M48
; DRILL file {KiCad 8.0.3} date 2024-09-28T16:02:07+0200
; FORMAT={-:-/ absolute / inch / decimal}
; #@! TF.CreationDate,2024-09-28T16:02:07+02:00
; #@! TF.GenerationSoftware,Kicad,Pcbnew,8.0.3
; #@! TF.FileFunction,Plated,1,2,PTH
FMAT,2
INCH
; #@! TA.AperFunction,Plated,PTH,ComponentDrill
T1C0.0315
; #@! TA.AperFunction,Plated,PTH,ComponentDrill
T2C0.0354
; #@! TA.AperFunction,Plated,PTH,ComponentDrill
T3C0.0394
%
G90
G05
T1
X5.5768Y-4.4094
X6.0768Y-4.4094
T2
X5.6587Y-4.2126
X5.7587Y-4.2126
X5.8949Y-4.2126
X5.9949Y-4.2126
T3
X5.1181Y-2.4268
X5.1181Y-2.5268
X5.1181Y-2.6268
X5.1181Y-2.7268
X5.1181Y-2.8268
X5.1181Y-2.9268
X5.1181Y-3.0268
X5.1181Y-3.1268
X5.1181Y-3.2268
X5.1181Y-3.3268
X5.1181Y-3.4268
X5.1181Y-3.5268
X5.1181Y-3.6268
X5.1181Y-3.7268
X5.1181Y-3.8268
X5.2756Y-4.4094
X5.287Y-2.4272
X5.287Y-2.5272
X5.287Y-2.6272
X5.287Y-2.7272
X5.287Y-2.8272
X5.287Y-2.9272
X5.287Y-3.0272
X5.287Y-3.1272
X5.287Y-3.2272
X5.287Y-3.3272
X5.287Y-3.4272
X5.287Y-3.5272
X5.287Y-3.6272
X5.287Y-3.7272
X5.287Y-3.8272
X5.374Y-4.4094
X5.887Y-2.4272
X5.887Y-2.5272
X5.887Y-2.6272
X5.887Y-2.7272
X5.887Y-2.8272
X5.887Y-2.9272
X5.887Y-3.0272
X5.887Y-3.1272
X5.887Y-3.2272
X5.887Y-3.3272
X5.887Y-3.4272
X5.887Y-3.5272
X5.887Y-3.6272
X5.887Y-3.7272
X5.887Y-3.8272
X6.0513Y-2.4268
X6.0513Y-2.5268
X6.0513Y-2.6268
X6.0513Y-2.7268
X6.0513Y-2.8268
X6.0513Y-2.9268
X6.0513Y-3.0268
X6.0513Y-3.1268
X6.0513Y-3.2268
X6.0513Y-3.3268
X6.0513Y-3.4268
X6.0513Y-3.5268
X6.0513Y-3.6268
X6.0513Y-3.7268
X6.0513Y-3.8268
X6.2057Y-4.3593
X6.2057Y-4.4593
X6.2205Y-2.3307
X6.2205Y-2.4307
X6.2205Y-2.5307
X6.2205Y-2.6307
X6.2205Y-2.814
X6.2205Y-2.914
X6.2205Y-3.014
X6.2205Y-3.5008
X6.2205Y-3.6008
X6.2205Y-3.7008
X6.2206Y-3.8752
X6.2206Y-3.9752
M30
