%TF.GenerationSoftware,KiCad,Pcbnew,8.0.3*%
%TF.CreationDate,2024-09-28T16:02:09+02:00*%
%TF.ProjectId,pcb_robot,7063625f-726f-4626-9f74-2e6b69636164,rev?*%
%TF.SameCoordinates,Original*%
%TF.FileFunction,Soldermask,Bot*%
%TF.FilePolarity,Negative*%
%FSLAX46Y46*%
G04 Gerber Fmt 4.6, Leading zero omitted, Abs format (unit mm)*
G04 Created by KiCad (PCBNEW 8.0.3) date 2024-09-28 16:02:09*
%MOMM*%
%LPD*%
G01*
G04 APERTURE LIST*
G04 Aperture macros list*
%AMRoundRect*
0 Rectangle with rounded corners*
0 $1 Rounding radius*
0 $2 $3 $4 $5 $6 $7 $8 $9 X,Y pos of 4 corners*
0 Add a 4 corners polygon primitive as box body*
4,1,4,$2,$3,$4,$5,$6,$7,$8,$9,$2,$3,0*
0 Add four circle primitives for the rounded corners*
1,1,$1+$1,$2,$3*
1,1,$1+$1,$4,$5*
1,1,$1+$1,$6,$7*
1,1,$1+$1,$8,$9*
0 Add four rect primitives between the rounded corners*
20,1,$1+$1,$2,$3,$4,$5,0*
20,1,$1+$1,$4,$5,$6,$7,0*
20,1,$1+$1,$6,$7,$8,$9,0*
20,1,$1+$1,$8,$9,$2,$3,0*%
G04 Aperture macros list end*
%ADD10R,1.700000X1.700000*%
%ADD11O,1.700000X1.700000*%
%ADD12RoundRect,0.250000X-0.600000X-0.750000X0.600000X-0.750000X0.600000X0.750000X-0.600000X0.750000X0*%
%ADD13O,1.700000X2.000000*%
%ADD14R,1.800000X1.800000*%
%ADD15C,1.800000*%
%ADD16C,1.600000*%
%ADD17O,1.600000X1.600000*%
%ADD18R,1.600000X1.600000*%
%ADD19RoundRect,0.250000X0.450000X-0.350000X0.450000X0.350000X-0.450000X0.350000X-0.450000X-0.350000X0*%
G04 APERTURE END LIST*
D10*
%TO.C,J7*%
X158000000Y-59200000D03*
D11*
X158000000Y-61740000D03*
X158000000Y-64280000D03*
X158000000Y-66820000D03*
%TD*%
D12*
%TO.C,J5*%
X134000000Y-112000000D03*
D13*
X136500000Y-112000000D03*
%TD*%
D14*
%TO.C,D1*%
X149730000Y-107000000D03*
D15*
X152270000Y-107000000D03*
%TD*%
D10*
%TO.C,J6*%
X158003632Y-98430000D03*
D11*
X158003632Y-100970000D03*
%TD*%
D10*
%TO.C,J2*%
X158000000Y-88920000D03*
D11*
X158000000Y-91460000D03*
X158000000Y-94000000D03*
%TD*%
D10*
%TO.C,J4*%
X157625000Y-110725000D03*
D11*
X157625000Y-113265000D03*
%TD*%
D10*
%TO.C,J9*%
X153703632Y-97200000D03*
D11*
X153703632Y-94660000D03*
X153703632Y-92120000D03*
X153703632Y-89580000D03*
X153703632Y-87040000D03*
X153703632Y-84500000D03*
X153703632Y-81960000D03*
X153703632Y-79420000D03*
X153703632Y-76880000D03*
X153703632Y-74340000D03*
X153703632Y-71800000D03*
X153703632Y-69260000D03*
X153703632Y-66720000D03*
X153703632Y-64180000D03*
X153703632Y-61640000D03*
%TD*%
D10*
%TO.C,J10*%
X130000000Y-61640000D03*
D11*
X130000000Y-64180000D03*
X130000000Y-66720000D03*
X130000000Y-69260000D03*
X130000000Y-71800000D03*
X130000000Y-74340000D03*
X130000000Y-76880000D03*
X130000000Y-79420000D03*
X130000000Y-81960000D03*
X130000000Y-84500000D03*
X130000000Y-87040000D03*
X130000000Y-89580000D03*
X130000000Y-92120000D03*
X130000000Y-94660000D03*
X130000000Y-97200000D03*
%TD*%
D14*
%TO.C,D2*%
X146270000Y-107000000D03*
D15*
X143730000Y-107000000D03*
%TD*%
D16*
%TO.C,F1*%
X141650000Y-112000000D03*
D17*
X154350000Y-112000000D03*
%TD*%
D10*
%TO.C,J3*%
X158000000Y-71475000D03*
D11*
X158000000Y-74015000D03*
X158000000Y-76555000D03*
%TD*%
D18*
%TO.C,A1*%
X134290000Y-61650000D03*
D17*
X134290000Y-64190000D03*
X134290000Y-66730000D03*
X134290000Y-69270000D03*
X134290000Y-71810000D03*
X134290000Y-74350000D03*
X134290000Y-76890000D03*
X134290000Y-79430000D03*
X134290000Y-81970000D03*
X134290000Y-84510000D03*
X134290000Y-87050000D03*
X134290000Y-89590000D03*
X134290000Y-92130000D03*
X134290000Y-94670000D03*
X134290000Y-97210000D03*
X149530000Y-97210000D03*
X149530000Y-94670000D03*
X149530000Y-92130000D03*
X149530000Y-89590000D03*
X149530000Y-87050000D03*
X149530000Y-84510000D03*
X149530000Y-81970000D03*
X149530000Y-79430000D03*
X149530000Y-76890000D03*
X149530000Y-74350000D03*
X149530000Y-71810000D03*
X149530000Y-69270000D03*
X149530000Y-66730000D03*
X149530000Y-64190000D03*
X149530000Y-61650000D03*
%TD*%
D19*
%TO.C,R2*%
X144510000Y-68000000D03*
X144510000Y-66000000D03*
%TD*%
%TO.C,R3*%
X142000000Y-68000000D03*
X142000000Y-66000000D03*
%TD*%
M02*
