%TF.GenerationSoftware,KiCad,Pcbnew,8.0.3*%
%TF.CreationDate,2024-09-13T10:49:28+02:00*%
%TF.ProjectId,pcb_robot,7063625f-726f-4626-9f74-2e6b69636164,rev?*%
%TF.SameCoordinates,Original*%
%TF.FileFunction,Legend,Bot*%
%TF.FilePolarity,Positive*%
%FSLAX46Y46*%
G04 Gerber Fmt 4.6, Leading zero omitted, Abs format (unit mm)*
G04 Created by KiCad (PCBNEW 8.0.3) date 2024-09-13 10:49:28*
%MOMM*%
%LPD*%
G01*
G04 APERTURE LIST*
%ADD10C,0.100000*%
%ADD11C,0.125000*%
G04 APERTURE END LIST*
D10*
X139500000Y-71000000D02*
X147000000Y-71000000D01*
X147000000Y-92000000D01*
X139500000Y-92000000D01*
X139500000Y-71000000D01*
D11*
X127841166Y-62467950D02*
X127874500Y-62539378D01*
X127874500Y-62539378D02*
X127907833Y-62563188D01*
X127907833Y-62563188D02*
X127974500Y-62586997D01*
X127974500Y-62586997D02*
X128074500Y-62586997D01*
X128074500Y-62586997D02*
X128141166Y-62563188D01*
X128141166Y-62563188D02*
X128174500Y-62539378D01*
X128174500Y-62539378D02*
X128207833Y-62491759D01*
X128207833Y-62491759D02*
X128207833Y-62301283D01*
X128207833Y-62301283D02*
X127507833Y-62301283D01*
X127507833Y-62301283D02*
X127507833Y-62467950D01*
X127507833Y-62467950D02*
X127541166Y-62515569D01*
X127541166Y-62515569D02*
X127574500Y-62539378D01*
X127574500Y-62539378D02*
X127641166Y-62563188D01*
X127641166Y-62563188D02*
X127707833Y-62563188D01*
X127707833Y-62563188D02*
X127774500Y-62539378D01*
X127774500Y-62539378D02*
X127807833Y-62515569D01*
X127807833Y-62515569D02*
X127841166Y-62467950D01*
X127841166Y-62467950D02*
X127841166Y-62301283D01*
X128007833Y-62777474D02*
X128007833Y-63015569D01*
X128207833Y-62729855D02*
X127507833Y-62896521D01*
X127507833Y-62896521D02*
X128207833Y-63063188D01*
X127507833Y-63229854D02*
X128074500Y-63229854D01*
X128074500Y-63229854D02*
X128141166Y-63253664D01*
X128141166Y-63253664D02*
X128174500Y-63277473D01*
X128174500Y-63277473D02*
X128207833Y-63325092D01*
X128207833Y-63325092D02*
X128207833Y-63420330D01*
X128207833Y-63420330D02*
X128174500Y-63467949D01*
X128174500Y-63467949D02*
X128141166Y-63491759D01*
X128141166Y-63491759D02*
X128074500Y-63515568D01*
X128074500Y-63515568D02*
X127507833Y-63515568D01*
X128474500Y-64277473D02*
X128441166Y-64253664D01*
X128441166Y-64253664D02*
X128341166Y-64206045D01*
X128341166Y-64206045D02*
X128274500Y-64182235D01*
X128274500Y-64182235D02*
X128174500Y-64158426D01*
X128174500Y-64158426D02*
X128007833Y-64134616D01*
X128007833Y-64134616D02*
X127874500Y-64134616D01*
X127874500Y-64134616D02*
X127707833Y-64158426D01*
X127707833Y-64158426D02*
X127607833Y-64182235D01*
X127607833Y-64182235D02*
X127541166Y-64206045D01*
X127541166Y-64206045D02*
X127441166Y-64253664D01*
X127441166Y-64253664D02*
X127407833Y-64277473D01*
X128207833Y-64467949D02*
X127507833Y-64467949D01*
X128207833Y-64706044D02*
X127507833Y-64706044D01*
X127507833Y-64706044D02*
X128207833Y-64991758D01*
X128207833Y-64991758D02*
X127507833Y-64991758D01*
X128174500Y-65253664D02*
X128207833Y-65253664D01*
X128207833Y-65253664D02*
X128274500Y-65229854D01*
X128274500Y-65229854D02*
X128307833Y-65206045D01*
X127507833Y-65944139D02*
X127507833Y-66039377D01*
X127507833Y-66039377D02*
X127541166Y-66086996D01*
X127541166Y-66086996D02*
X127607833Y-66134615D01*
X127607833Y-66134615D02*
X127741166Y-66158425D01*
X127741166Y-66158425D02*
X127974500Y-66158425D01*
X127974500Y-66158425D02*
X128107833Y-66134615D01*
X128107833Y-66134615D02*
X128174500Y-66086996D01*
X128174500Y-66086996D02*
X128207833Y-66039377D01*
X128207833Y-66039377D02*
X128207833Y-65944139D01*
X128207833Y-65944139D02*
X128174500Y-65896520D01*
X128174500Y-65896520D02*
X128107833Y-65848901D01*
X128107833Y-65848901D02*
X127974500Y-65825092D01*
X127974500Y-65825092D02*
X127741166Y-65825092D01*
X127741166Y-65825092D02*
X127607833Y-65848901D01*
X127607833Y-65848901D02*
X127541166Y-65896520D01*
X127541166Y-65896520D02*
X127507833Y-65944139D01*
X127507833Y-66372711D02*
X128074500Y-66372711D01*
X128074500Y-66372711D02*
X128141166Y-66396521D01*
X128141166Y-66396521D02*
X128174500Y-66420330D01*
X128174500Y-66420330D02*
X128207833Y-66467949D01*
X128207833Y-66467949D02*
X128207833Y-66563187D01*
X128207833Y-66563187D02*
X128174500Y-66610806D01*
X128174500Y-66610806D02*
X128141166Y-66634616D01*
X128141166Y-66634616D02*
X128074500Y-66658425D01*
X128074500Y-66658425D02*
X127507833Y-66658425D01*
X127507833Y-66825093D02*
X127507833Y-67110807D01*
X128207833Y-66967950D02*
X127507833Y-66967950D01*
X128474500Y-67229854D02*
X128441166Y-67253664D01*
X128441166Y-67253664D02*
X128341166Y-67301283D01*
X128341166Y-67301283D02*
X128274500Y-67325092D01*
X128274500Y-67325092D02*
X128174500Y-67348902D01*
X128174500Y-67348902D02*
X128007833Y-67372711D01*
X128007833Y-67372711D02*
X127874500Y-67372711D01*
X127874500Y-67372711D02*
X127707833Y-67348902D01*
X127707833Y-67348902D02*
X127607833Y-67325092D01*
X127607833Y-67325092D02*
X127541166Y-67301283D01*
X127541166Y-67301283D02*
X127441166Y-67253664D01*
X127441166Y-67253664D02*
X127407833Y-67229854D01*
X159680872Y-65980953D02*
X159680872Y-66266667D01*
X160380872Y-66123810D02*
X159680872Y-66123810D01*
X159680872Y-66528571D02*
X159680872Y-66623809D01*
X159680872Y-66623809D02*
X159714205Y-66671428D01*
X159714205Y-66671428D02*
X159780872Y-66719047D01*
X159780872Y-66719047D02*
X159914205Y-66742857D01*
X159914205Y-66742857D02*
X160147539Y-66742857D01*
X160147539Y-66742857D02*
X160280872Y-66719047D01*
X160280872Y-66719047D02*
X160347539Y-66671428D01*
X160347539Y-66671428D02*
X160380872Y-66623809D01*
X160380872Y-66623809D02*
X160380872Y-66528571D01*
X160380872Y-66528571D02*
X160347539Y-66480952D01*
X160347539Y-66480952D02*
X160280872Y-66433333D01*
X160280872Y-66433333D02*
X160147539Y-66409524D01*
X160147539Y-66409524D02*
X159914205Y-66409524D01*
X159914205Y-66409524D02*
X159780872Y-66433333D01*
X159780872Y-66433333D02*
X159714205Y-66480952D01*
X159714205Y-66480952D02*
X159680872Y-66528571D01*
X160014205Y-67123810D02*
X160014205Y-66957143D01*
X160380872Y-66957143D02*
X159680872Y-66957143D01*
X159680872Y-66957143D02*
X159680872Y-67195238D01*
X161774500Y-62683335D02*
X161741166Y-62659526D01*
X161741166Y-62659526D02*
X161641166Y-62611907D01*
X161641166Y-62611907D02*
X161574500Y-62588097D01*
X161574500Y-62588097D02*
X161474500Y-62564288D01*
X161474500Y-62564288D02*
X161307833Y-62540478D01*
X161307833Y-62540478D02*
X161174500Y-62540478D01*
X161174500Y-62540478D02*
X161007833Y-62564288D01*
X161007833Y-62564288D02*
X160907833Y-62588097D01*
X160907833Y-62588097D02*
X160841166Y-62611907D01*
X160841166Y-62611907D02*
X160741166Y-62659526D01*
X160741166Y-62659526D02*
X160707833Y-62683335D01*
X160841166Y-63135716D02*
X160807833Y-63088097D01*
X160807833Y-63088097D02*
X160807833Y-63016668D01*
X160807833Y-63016668D02*
X160841166Y-62945240D01*
X160841166Y-62945240D02*
X160907833Y-62897621D01*
X160907833Y-62897621D02*
X160974500Y-62873811D01*
X160974500Y-62873811D02*
X161107833Y-62850002D01*
X161107833Y-62850002D02*
X161207833Y-62850002D01*
X161207833Y-62850002D02*
X161341166Y-62873811D01*
X161341166Y-62873811D02*
X161407833Y-62897621D01*
X161407833Y-62897621D02*
X161474500Y-62945240D01*
X161474500Y-62945240D02*
X161507833Y-63016668D01*
X161507833Y-63016668D02*
X161507833Y-63064287D01*
X161507833Y-63064287D02*
X161474500Y-63135716D01*
X161474500Y-63135716D02*
X161441166Y-63159525D01*
X161441166Y-63159525D02*
X161207833Y-63159525D01*
X161207833Y-63159525D02*
X161207833Y-63064287D01*
X161507833Y-63373811D02*
X160807833Y-63373811D01*
X160807833Y-63373811D02*
X161507833Y-63659525D01*
X161507833Y-63659525D02*
X160807833Y-63659525D01*
X161507833Y-63897621D02*
X160807833Y-63897621D01*
X160807833Y-63897621D02*
X160807833Y-64016669D01*
X160807833Y-64016669D02*
X160841166Y-64088097D01*
X160841166Y-64088097D02*
X160907833Y-64135716D01*
X160907833Y-64135716D02*
X160974500Y-64159526D01*
X160974500Y-64159526D02*
X161107833Y-64183335D01*
X161107833Y-64183335D02*
X161207833Y-64183335D01*
X161207833Y-64183335D02*
X161341166Y-64159526D01*
X161341166Y-64159526D02*
X161407833Y-64135716D01*
X161407833Y-64135716D02*
X161474500Y-64088097D01*
X161474500Y-64088097D02*
X161507833Y-64016669D01*
X161507833Y-64016669D02*
X161507833Y-63897621D01*
X161474500Y-64421431D02*
X161507833Y-64421431D01*
X161507833Y-64421431D02*
X161574500Y-64397621D01*
X161574500Y-64397621D02*
X161607833Y-64373812D01*
X161241166Y-65016668D02*
X161241166Y-65397621D01*
X161507833Y-65207144D02*
X160974500Y-65207144D01*
X160807833Y-65873811D02*
X160807833Y-65635716D01*
X160807833Y-65635716D02*
X161141166Y-65611907D01*
X161141166Y-65611907D02*
X161107833Y-65635716D01*
X161107833Y-65635716D02*
X161074500Y-65683335D01*
X161074500Y-65683335D02*
X161074500Y-65802383D01*
X161074500Y-65802383D02*
X161107833Y-65850002D01*
X161107833Y-65850002D02*
X161141166Y-65873811D01*
X161141166Y-65873811D02*
X161207833Y-65897621D01*
X161207833Y-65897621D02*
X161374500Y-65897621D01*
X161374500Y-65897621D02*
X161441166Y-65873811D01*
X161441166Y-65873811D02*
X161474500Y-65850002D01*
X161474500Y-65850002D02*
X161507833Y-65802383D01*
X161507833Y-65802383D02*
X161507833Y-65683335D01*
X161507833Y-65683335D02*
X161474500Y-65635716D01*
X161474500Y-65635716D02*
X161441166Y-65611907D01*
X160807833Y-66040478D02*
X161507833Y-66207144D01*
X161507833Y-66207144D02*
X160807833Y-66373811D01*
X161474500Y-66564287D02*
X161507833Y-66564287D01*
X161507833Y-66564287D02*
X161574500Y-66540477D01*
X161574500Y-66540477D02*
X161607833Y-66516668D01*
X161474500Y-67135715D02*
X161507833Y-67207143D01*
X161507833Y-67207143D02*
X161507833Y-67326191D01*
X161507833Y-67326191D02*
X161474500Y-67373810D01*
X161474500Y-67373810D02*
X161441166Y-67397619D01*
X161441166Y-67397619D02*
X161374500Y-67421429D01*
X161374500Y-67421429D02*
X161307833Y-67421429D01*
X161307833Y-67421429D02*
X161241166Y-67397619D01*
X161241166Y-67397619D02*
X161207833Y-67373810D01*
X161207833Y-67373810D02*
X161174500Y-67326191D01*
X161174500Y-67326191D02*
X161141166Y-67230953D01*
X161141166Y-67230953D02*
X161107833Y-67183334D01*
X161107833Y-67183334D02*
X161074500Y-67159524D01*
X161074500Y-67159524D02*
X161007833Y-67135715D01*
X161007833Y-67135715D02*
X160941166Y-67135715D01*
X160941166Y-67135715D02*
X160874500Y-67159524D01*
X160874500Y-67159524D02*
X160841166Y-67183334D01*
X160841166Y-67183334D02*
X160807833Y-67230953D01*
X160807833Y-67230953D02*
X160807833Y-67350000D01*
X160807833Y-67350000D02*
X160841166Y-67421429D01*
X161441166Y-67921428D02*
X161474500Y-67897619D01*
X161474500Y-67897619D02*
X161507833Y-67826190D01*
X161507833Y-67826190D02*
X161507833Y-67778571D01*
X161507833Y-67778571D02*
X161474500Y-67707143D01*
X161474500Y-67707143D02*
X161407833Y-67659524D01*
X161407833Y-67659524D02*
X161341166Y-67635714D01*
X161341166Y-67635714D02*
X161207833Y-67611905D01*
X161207833Y-67611905D02*
X161107833Y-67611905D01*
X161107833Y-67611905D02*
X160974500Y-67635714D01*
X160974500Y-67635714D02*
X160907833Y-67659524D01*
X160907833Y-67659524D02*
X160841166Y-67707143D01*
X160841166Y-67707143D02*
X160807833Y-67778571D01*
X160807833Y-67778571D02*
X160807833Y-67826190D01*
X160807833Y-67826190D02*
X160841166Y-67897619D01*
X160841166Y-67897619D02*
X160874500Y-67921428D01*
X161507833Y-68373809D02*
X161507833Y-68135714D01*
X161507833Y-68135714D02*
X160807833Y-68135714D01*
X161474500Y-68564286D02*
X161507833Y-68564286D01*
X161507833Y-68564286D02*
X161574500Y-68540476D01*
X161574500Y-68540476D02*
X161607833Y-68516667D01*
X161474500Y-69135714D02*
X161507833Y-69207142D01*
X161507833Y-69207142D02*
X161507833Y-69326190D01*
X161507833Y-69326190D02*
X161474500Y-69373809D01*
X161474500Y-69373809D02*
X161441166Y-69397618D01*
X161441166Y-69397618D02*
X161374500Y-69421428D01*
X161374500Y-69421428D02*
X161307833Y-69421428D01*
X161307833Y-69421428D02*
X161241166Y-69397618D01*
X161241166Y-69397618D02*
X161207833Y-69373809D01*
X161207833Y-69373809D02*
X161174500Y-69326190D01*
X161174500Y-69326190D02*
X161141166Y-69230952D01*
X161141166Y-69230952D02*
X161107833Y-69183333D01*
X161107833Y-69183333D02*
X161074500Y-69159523D01*
X161074500Y-69159523D02*
X161007833Y-69135714D01*
X161007833Y-69135714D02*
X160941166Y-69135714D01*
X160941166Y-69135714D02*
X160874500Y-69159523D01*
X160874500Y-69159523D02*
X160841166Y-69183333D01*
X160841166Y-69183333D02*
X160807833Y-69230952D01*
X160807833Y-69230952D02*
X160807833Y-69349999D01*
X160807833Y-69349999D02*
X160841166Y-69421428D01*
X161507833Y-69635713D02*
X160807833Y-69635713D01*
X160807833Y-69635713D02*
X160807833Y-69754761D01*
X160807833Y-69754761D02*
X160841166Y-69826189D01*
X160841166Y-69826189D02*
X160907833Y-69873808D01*
X160907833Y-69873808D02*
X160974500Y-69897618D01*
X160974500Y-69897618D02*
X161107833Y-69921427D01*
X161107833Y-69921427D02*
X161207833Y-69921427D01*
X161207833Y-69921427D02*
X161341166Y-69897618D01*
X161341166Y-69897618D02*
X161407833Y-69873808D01*
X161407833Y-69873808D02*
X161474500Y-69826189D01*
X161474500Y-69826189D02*
X161507833Y-69754761D01*
X161507833Y-69754761D02*
X161507833Y-69635713D01*
X161307833Y-70111904D02*
X161307833Y-70349999D01*
X161507833Y-70064285D02*
X160807833Y-70230951D01*
X160807833Y-70230951D02*
X161507833Y-70397618D01*
X161774500Y-70516665D02*
X161741166Y-70540475D01*
X161741166Y-70540475D02*
X161641166Y-70588094D01*
X161641166Y-70588094D02*
X161574500Y-70611903D01*
X161574500Y-70611903D02*
X161474500Y-70635713D01*
X161474500Y-70635713D02*
X161307833Y-70659522D01*
X161307833Y-70659522D02*
X161174500Y-70659522D01*
X161174500Y-70659522D02*
X161007833Y-70635713D01*
X161007833Y-70635713D02*
X160907833Y-70611903D01*
X160907833Y-70611903D02*
X160841166Y-70588094D01*
X160841166Y-70588094D02*
X160741166Y-70540475D01*
X160741166Y-70540475D02*
X160707833Y-70516665D01*
X122560283Y-79088096D02*
X122593617Y-79159524D01*
X122593617Y-79159524D02*
X122626950Y-79183334D01*
X122626950Y-79183334D02*
X122693617Y-79207143D01*
X122693617Y-79207143D02*
X122793617Y-79207143D01*
X122793617Y-79207143D02*
X122860283Y-79183334D01*
X122860283Y-79183334D02*
X122893617Y-79159524D01*
X122893617Y-79159524D02*
X122926950Y-79111905D01*
X122926950Y-79111905D02*
X122926950Y-78921429D01*
X122926950Y-78921429D02*
X122226950Y-78921429D01*
X122226950Y-78921429D02*
X122226950Y-79088096D01*
X122226950Y-79088096D02*
X122260283Y-79135715D01*
X122260283Y-79135715D02*
X122293617Y-79159524D01*
X122293617Y-79159524D02*
X122360283Y-79183334D01*
X122360283Y-79183334D02*
X122426950Y-79183334D01*
X122426950Y-79183334D02*
X122493617Y-79159524D01*
X122493617Y-79159524D02*
X122526950Y-79135715D01*
X122526950Y-79135715D02*
X122560283Y-79088096D01*
X122560283Y-79088096D02*
X122560283Y-78921429D01*
X122726950Y-79397620D02*
X122726950Y-79635715D01*
X122926950Y-79350001D02*
X122226950Y-79516667D01*
X122226950Y-79516667D02*
X122926950Y-79683334D01*
X122226950Y-79778572D02*
X122226950Y-80064286D01*
X122926950Y-79921429D02*
X122226950Y-79921429D01*
X122226950Y-80159524D02*
X122226950Y-80445238D01*
X122926950Y-80302381D02*
X122226950Y-80302381D01*
X123193617Y-81135713D02*
X123160283Y-81111904D01*
X123160283Y-81111904D02*
X123060283Y-81064285D01*
X123060283Y-81064285D02*
X122993617Y-81040475D01*
X122993617Y-81040475D02*
X122893617Y-81016666D01*
X122893617Y-81016666D02*
X122726950Y-80992856D01*
X122726950Y-80992856D02*
X122593617Y-80992856D01*
X122593617Y-80992856D02*
X122426950Y-81016666D01*
X122426950Y-81016666D02*
X122326950Y-81040475D01*
X122326950Y-81040475D02*
X122260283Y-81064285D01*
X122260283Y-81064285D02*
X122160283Y-81111904D01*
X122160283Y-81111904D02*
X122126950Y-81135713D01*
X122660283Y-81326189D02*
X122660283Y-81707142D01*
X122926950Y-81516665D02*
X122393617Y-81516665D01*
X122893617Y-81969047D02*
X122926950Y-81969047D01*
X122926950Y-81969047D02*
X122993617Y-81945237D01*
X122993617Y-81945237D02*
X123026950Y-81921428D01*
X122660283Y-82564284D02*
X122660283Y-82945237D01*
X123193617Y-83135713D02*
X123160283Y-83159523D01*
X123160283Y-83159523D02*
X123060283Y-83207142D01*
X123060283Y-83207142D02*
X122993617Y-83230951D01*
X122993617Y-83230951D02*
X122893617Y-83254761D01*
X122893617Y-83254761D02*
X122726950Y-83278570D01*
X122726950Y-83278570D02*
X122593617Y-83278570D01*
X122593617Y-83278570D02*
X122426950Y-83254761D01*
X122426950Y-83254761D02*
X122326950Y-83230951D01*
X122326950Y-83230951D02*
X122260283Y-83207142D01*
X122260283Y-83207142D02*
X122160283Y-83159523D01*
X122160283Y-83159523D02*
X122126950Y-83135713D01*
X125607833Y-75719049D02*
X126174500Y-75719049D01*
X126174500Y-75719049D02*
X126241166Y-75742859D01*
X126241166Y-75742859D02*
X126274500Y-75766668D01*
X126274500Y-75766668D02*
X126307833Y-75814287D01*
X126307833Y-75814287D02*
X126307833Y-75909525D01*
X126307833Y-75909525D02*
X126274500Y-75957144D01*
X126274500Y-75957144D02*
X126241166Y-75980954D01*
X126241166Y-75980954D02*
X126174500Y-76004763D01*
X126174500Y-76004763D02*
X125607833Y-76004763D01*
X125841166Y-76171431D02*
X125841166Y-76361907D01*
X125607833Y-76242859D02*
X126207833Y-76242859D01*
X126207833Y-76242859D02*
X126274500Y-76266669D01*
X126274500Y-76266669D02*
X126307833Y-76314288D01*
X126307833Y-76314288D02*
X126307833Y-76361907D01*
X126307833Y-76528573D02*
X125841166Y-76528573D01*
X125607833Y-76528573D02*
X125641166Y-76504764D01*
X125641166Y-76504764D02*
X125674500Y-76528573D01*
X125674500Y-76528573D02*
X125641166Y-76552383D01*
X125641166Y-76552383D02*
X125607833Y-76528573D01*
X125607833Y-76528573D02*
X125674500Y-76528573D01*
X126307833Y-76838097D02*
X126274500Y-76790478D01*
X126274500Y-76790478D02*
X126207833Y-76766668D01*
X126207833Y-76766668D02*
X125607833Y-76766668D01*
X126307833Y-77028573D02*
X125841166Y-77028573D01*
X125607833Y-77028573D02*
X125641166Y-77004764D01*
X125641166Y-77004764D02*
X125674500Y-77028573D01*
X125674500Y-77028573D02*
X125641166Y-77052383D01*
X125641166Y-77052383D02*
X125607833Y-77028573D01*
X125607833Y-77028573D02*
X125674500Y-77028573D01*
X126274500Y-77242859D02*
X126307833Y-77290478D01*
X126307833Y-77290478D02*
X126307833Y-77385716D01*
X126307833Y-77385716D02*
X126274500Y-77433335D01*
X126274500Y-77433335D02*
X126207833Y-77457144D01*
X126207833Y-77457144D02*
X126174500Y-77457144D01*
X126174500Y-77457144D02*
X126107833Y-77433335D01*
X126107833Y-77433335D02*
X126074500Y-77385716D01*
X126074500Y-77385716D02*
X126074500Y-77314287D01*
X126074500Y-77314287D02*
X126041166Y-77266668D01*
X126041166Y-77266668D02*
X125974500Y-77242859D01*
X125974500Y-77242859D02*
X125941166Y-77242859D01*
X125941166Y-77242859D02*
X125874500Y-77266668D01*
X125874500Y-77266668D02*
X125841166Y-77314287D01*
X125841166Y-77314287D02*
X125841166Y-77385716D01*
X125841166Y-77385716D02*
X125874500Y-77433335D01*
X126307833Y-77885716D02*
X125941166Y-77885716D01*
X125941166Y-77885716D02*
X125874500Y-77861906D01*
X125874500Y-77861906D02*
X125841166Y-77814287D01*
X125841166Y-77814287D02*
X125841166Y-77719049D01*
X125841166Y-77719049D02*
X125874500Y-77671430D01*
X126274500Y-77885716D02*
X126307833Y-77838097D01*
X126307833Y-77838097D02*
X126307833Y-77719049D01*
X126307833Y-77719049D02*
X126274500Y-77671430D01*
X126274500Y-77671430D02*
X126207833Y-77647621D01*
X126207833Y-77647621D02*
X126141166Y-77647621D01*
X126141166Y-77647621D02*
X126074500Y-77671430D01*
X126074500Y-77671430D02*
X126041166Y-77719049D01*
X126041166Y-77719049D02*
X126041166Y-77838097D01*
X126041166Y-77838097D02*
X126007833Y-77885716D01*
X125841166Y-78052383D02*
X125841166Y-78242859D01*
X125607833Y-78123811D02*
X126207833Y-78123811D01*
X126207833Y-78123811D02*
X126274500Y-78147621D01*
X126274500Y-78147621D02*
X126307833Y-78195240D01*
X126307833Y-78195240D02*
X126307833Y-78242859D01*
X126307833Y-78409525D02*
X125841166Y-78409525D01*
X125607833Y-78409525D02*
X125641166Y-78385716D01*
X125641166Y-78385716D02*
X125674500Y-78409525D01*
X125674500Y-78409525D02*
X125641166Y-78433335D01*
X125641166Y-78433335D02*
X125607833Y-78409525D01*
X125607833Y-78409525D02*
X125674500Y-78409525D01*
X126307833Y-78719049D02*
X126274500Y-78671430D01*
X126274500Y-78671430D02*
X126241166Y-78647620D01*
X126241166Y-78647620D02*
X126174500Y-78623811D01*
X126174500Y-78623811D02*
X125974500Y-78623811D01*
X125974500Y-78623811D02*
X125907833Y-78647620D01*
X125907833Y-78647620D02*
X125874500Y-78671430D01*
X125874500Y-78671430D02*
X125841166Y-78719049D01*
X125841166Y-78719049D02*
X125841166Y-78790477D01*
X125841166Y-78790477D02*
X125874500Y-78838096D01*
X125874500Y-78838096D02*
X125907833Y-78861906D01*
X125907833Y-78861906D02*
X125974500Y-78885715D01*
X125974500Y-78885715D02*
X126174500Y-78885715D01*
X126174500Y-78885715D02*
X126241166Y-78861906D01*
X126241166Y-78861906D02*
X126274500Y-78838096D01*
X126274500Y-78838096D02*
X126307833Y-78790477D01*
X126307833Y-78790477D02*
X126307833Y-78719049D01*
X125841166Y-79100001D02*
X126307833Y-79100001D01*
X125907833Y-79100001D02*
X125874500Y-79123811D01*
X125874500Y-79123811D02*
X125841166Y-79171430D01*
X125841166Y-79171430D02*
X125841166Y-79242858D01*
X125841166Y-79242858D02*
X125874500Y-79290477D01*
X125874500Y-79290477D02*
X125941166Y-79314287D01*
X125941166Y-79314287D02*
X126307833Y-79314287D01*
X125841166Y-79933334D02*
X126307833Y-79933334D01*
X125907833Y-79933334D02*
X125874500Y-79957144D01*
X125874500Y-79957144D02*
X125841166Y-80004763D01*
X125841166Y-80004763D02*
X125841166Y-80076191D01*
X125841166Y-80076191D02*
X125874500Y-80123810D01*
X125874500Y-80123810D02*
X125941166Y-80147620D01*
X125941166Y-80147620D02*
X126307833Y-80147620D01*
X126307833Y-80457144D02*
X126274500Y-80409525D01*
X126274500Y-80409525D02*
X126241166Y-80385715D01*
X126241166Y-80385715D02*
X126174500Y-80361906D01*
X126174500Y-80361906D02*
X125974500Y-80361906D01*
X125974500Y-80361906D02*
X125907833Y-80385715D01*
X125907833Y-80385715D02*
X125874500Y-80409525D01*
X125874500Y-80409525D02*
X125841166Y-80457144D01*
X125841166Y-80457144D02*
X125841166Y-80528572D01*
X125841166Y-80528572D02*
X125874500Y-80576191D01*
X125874500Y-80576191D02*
X125907833Y-80600001D01*
X125907833Y-80600001D02*
X125974500Y-80623810D01*
X125974500Y-80623810D02*
X126174500Y-80623810D01*
X126174500Y-80623810D02*
X126241166Y-80600001D01*
X126241166Y-80600001D02*
X126274500Y-80576191D01*
X126274500Y-80576191D02*
X126307833Y-80528572D01*
X126307833Y-80528572D02*
X126307833Y-80457144D01*
X126307833Y-80838096D02*
X125841166Y-80838096D01*
X125974500Y-80838096D02*
X125907833Y-80861906D01*
X125907833Y-80861906D02*
X125874500Y-80885715D01*
X125874500Y-80885715D02*
X125841166Y-80933334D01*
X125841166Y-80933334D02*
X125841166Y-80980953D01*
X126307833Y-81147620D02*
X125841166Y-81147620D01*
X125907833Y-81147620D02*
X125874500Y-81171430D01*
X125874500Y-81171430D02*
X125841166Y-81219049D01*
X125841166Y-81219049D02*
X125841166Y-81290477D01*
X125841166Y-81290477D02*
X125874500Y-81338096D01*
X125874500Y-81338096D02*
X125941166Y-81361906D01*
X125941166Y-81361906D02*
X126307833Y-81361906D01*
X125941166Y-81361906D02*
X125874500Y-81385715D01*
X125874500Y-81385715D02*
X125841166Y-81433334D01*
X125841166Y-81433334D02*
X125841166Y-81504763D01*
X125841166Y-81504763D02*
X125874500Y-81552382D01*
X125874500Y-81552382D02*
X125941166Y-81576192D01*
X125941166Y-81576192D02*
X126307833Y-81576192D01*
X126307833Y-82028573D02*
X125941166Y-82028573D01*
X125941166Y-82028573D02*
X125874500Y-82004763D01*
X125874500Y-82004763D02*
X125841166Y-81957144D01*
X125841166Y-81957144D02*
X125841166Y-81861906D01*
X125841166Y-81861906D02*
X125874500Y-81814287D01*
X126274500Y-82028573D02*
X126307833Y-81980954D01*
X126307833Y-81980954D02*
X126307833Y-81861906D01*
X126307833Y-81861906D02*
X126274500Y-81814287D01*
X126274500Y-81814287D02*
X126207833Y-81790478D01*
X126207833Y-81790478D02*
X126141166Y-81790478D01*
X126141166Y-81790478D02*
X126074500Y-81814287D01*
X126074500Y-81814287D02*
X126041166Y-81861906D01*
X126041166Y-81861906D02*
X126041166Y-81980954D01*
X126041166Y-81980954D02*
X126007833Y-82028573D01*
X126307833Y-82338097D02*
X126274500Y-82290478D01*
X126274500Y-82290478D02*
X126207833Y-82266668D01*
X126207833Y-82266668D02*
X125607833Y-82266668D01*
X126274500Y-82719049D02*
X126307833Y-82671430D01*
X126307833Y-82671430D02*
X126307833Y-82576192D01*
X126307833Y-82576192D02*
X126274500Y-82528573D01*
X126274500Y-82528573D02*
X126207833Y-82504764D01*
X126207833Y-82504764D02*
X125941166Y-82504764D01*
X125941166Y-82504764D02*
X125874500Y-82528573D01*
X125874500Y-82528573D02*
X125841166Y-82576192D01*
X125841166Y-82576192D02*
X125841166Y-82671430D01*
X125841166Y-82671430D02*
X125874500Y-82719049D01*
X125874500Y-82719049D02*
X125941166Y-82742859D01*
X125941166Y-82742859D02*
X126007833Y-82742859D01*
X126007833Y-82742859D02*
X126074500Y-82504764D01*
X126241166Y-82957144D02*
X126274500Y-82980954D01*
X126274500Y-82980954D02*
X126307833Y-82957144D01*
X126307833Y-82957144D02*
X126274500Y-82933335D01*
X126274500Y-82933335D02*
X126241166Y-82957144D01*
X126241166Y-82957144D02*
X126307833Y-82957144D01*
X125874500Y-82957144D02*
X125907833Y-82980954D01*
X125907833Y-82980954D02*
X125941166Y-82957144D01*
X125941166Y-82957144D02*
X125907833Y-82933335D01*
X125907833Y-82933335D02*
X125874500Y-82957144D01*
X125874500Y-82957144D02*
X125941166Y-82957144D01*
X125607833Y-83814286D02*
X125607833Y-83576191D01*
X125607833Y-83576191D02*
X125941166Y-83552382D01*
X125941166Y-83552382D02*
X125907833Y-83576191D01*
X125907833Y-83576191D02*
X125874500Y-83623810D01*
X125874500Y-83623810D02*
X125874500Y-83742858D01*
X125874500Y-83742858D02*
X125907833Y-83790477D01*
X125907833Y-83790477D02*
X125941166Y-83814286D01*
X125941166Y-83814286D02*
X126007833Y-83838096D01*
X126007833Y-83838096D02*
X126174500Y-83838096D01*
X126174500Y-83838096D02*
X126241166Y-83814286D01*
X126241166Y-83814286D02*
X126274500Y-83790477D01*
X126274500Y-83790477D02*
X126307833Y-83742858D01*
X126307833Y-83742858D02*
X126307833Y-83623810D01*
X126307833Y-83623810D02*
X126274500Y-83576191D01*
X126274500Y-83576191D02*
X126241166Y-83552382D01*
X125607833Y-83980953D02*
X126307833Y-84147619D01*
X126307833Y-84147619D02*
X125607833Y-84314286D01*
X126274500Y-84504762D02*
X126307833Y-84504762D01*
X126307833Y-84504762D02*
X126374500Y-84480952D01*
X126374500Y-84480952D02*
X126407833Y-84457143D01*
X125607833Y-85195237D02*
X125607833Y-85242856D01*
X125607833Y-85242856D02*
X125641166Y-85290475D01*
X125641166Y-85290475D02*
X125674500Y-85314285D01*
X125674500Y-85314285D02*
X125741166Y-85338094D01*
X125741166Y-85338094D02*
X125874500Y-85361904D01*
X125874500Y-85361904D02*
X126041166Y-85361904D01*
X126041166Y-85361904D02*
X126174500Y-85338094D01*
X126174500Y-85338094D02*
X126241166Y-85314285D01*
X126241166Y-85314285D02*
X126274500Y-85290475D01*
X126274500Y-85290475D02*
X126307833Y-85242856D01*
X126307833Y-85242856D02*
X126307833Y-85195237D01*
X126307833Y-85195237D02*
X126274500Y-85147618D01*
X126274500Y-85147618D02*
X126241166Y-85123809D01*
X126241166Y-85123809D02*
X126174500Y-85099999D01*
X126174500Y-85099999D02*
X126041166Y-85076190D01*
X126041166Y-85076190D02*
X125874500Y-85076190D01*
X125874500Y-85076190D02*
X125741166Y-85099999D01*
X125741166Y-85099999D02*
X125674500Y-85123809D01*
X125674500Y-85123809D02*
X125641166Y-85147618D01*
X125641166Y-85147618D02*
X125607833Y-85195237D01*
X126241166Y-85576189D02*
X126274500Y-85599999D01*
X126274500Y-85599999D02*
X126307833Y-85576189D01*
X126307833Y-85576189D02*
X126274500Y-85552380D01*
X126274500Y-85552380D02*
X126241166Y-85576189D01*
X126241166Y-85576189D02*
X126307833Y-85576189D01*
X125674500Y-85790475D02*
X125641166Y-85814284D01*
X125641166Y-85814284D02*
X125607833Y-85861903D01*
X125607833Y-85861903D02*
X125607833Y-85980951D01*
X125607833Y-85980951D02*
X125641166Y-86028570D01*
X125641166Y-86028570D02*
X125674500Y-86052379D01*
X125674500Y-86052379D02*
X125741166Y-86076189D01*
X125741166Y-86076189D02*
X125807833Y-86076189D01*
X125807833Y-86076189D02*
X125907833Y-86052379D01*
X125907833Y-86052379D02*
X126307833Y-85766665D01*
X126307833Y-85766665D02*
X126307833Y-86076189D01*
X126107833Y-86266665D02*
X126107833Y-86504760D01*
X126307833Y-86219046D02*
X125607833Y-86385712D01*
X125607833Y-86385712D02*
X126307833Y-86552379D01*
X160347539Y-76304762D02*
X160380872Y-76376190D01*
X160380872Y-76376190D02*
X160380872Y-76495238D01*
X160380872Y-76495238D02*
X160347539Y-76542857D01*
X160347539Y-76542857D02*
X160314205Y-76566666D01*
X160314205Y-76566666D02*
X160247539Y-76590476D01*
X160247539Y-76590476D02*
X160180872Y-76590476D01*
X160180872Y-76590476D02*
X160114205Y-76566666D01*
X160114205Y-76566666D02*
X160080872Y-76542857D01*
X160080872Y-76542857D02*
X160047539Y-76495238D01*
X160047539Y-76495238D02*
X160014205Y-76400000D01*
X160014205Y-76400000D02*
X159980872Y-76352381D01*
X159980872Y-76352381D02*
X159947539Y-76328571D01*
X159947539Y-76328571D02*
X159880872Y-76304762D01*
X159880872Y-76304762D02*
X159814205Y-76304762D01*
X159814205Y-76304762D02*
X159747539Y-76328571D01*
X159747539Y-76328571D02*
X159714205Y-76352381D01*
X159714205Y-76352381D02*
X159680872Y-76400000D01*
X159680872Y-76400000D02*
X159680872Y-76519047D01*
X159680872Y-76519047D02*
X159714205Y-76590476D01*
X160014205Y-76804761D02*
X160014205Y-76971428D01*
X160380872Y-77042856D02*
X160380872Y-76804761D01*
X160380872Y-76804761D02*
X159680872Y-76804761D01*
X159680872Y-76804761D02*
X159680872Y-77042856D01*
X160380872Y-77542856D02*
X160047539Y-77376190D01*
X160380872Y-77257142D02*
X159680872Y-77257142D01*
X159680872Y-77257142D02*
X159680872Y-77447618D01*
X159680872Y-77447618D02*
X159714205Y-77495237D01*
X159714205Y-77495237D02*
X159747539Y-77519047D01*
X159747539Y-77519047D02*
X159814205Y-77542856D01*
X159814205Y-77542856D02*
X159914205Y-77542856D01*
X159914205Y-77542856D02*
X159980872Y-77519047D01*
X159980872Y-77519047D02*
X160014205Y-77495237D01*
X160014205Y-77495237D02*
X160047539Y-77447618D01*
X160047539Y-77447618D02*
X160047539Y-77257142D01*
X159680872Y-77685714D02*
X160380872Y-77852380D01*
X160380872Y-77852380D02*
X159680872Y-78019047D01*
X159680872Y-78280951D02*
X159680872Y-78376189D01*
X159680872Y-78376189D02*
X159714205Y-78423808D01*
X159714205Y-78423808D02*
X159780872Y-78471427D01*
X159780872Y-78471427D02*
X159914205Y-78495237D01*
X159914205Y-78495237D02*
X160147539Y-78495237D01*
X160147539Y-78495237D02*
X160280872Y-78471427D01*
X160280872Y-78471427D02*
X160347539Y-78423808D01*
X160347539Y-78423808D02*
X160380872Y-78376189D01*
X160380872Y-78376189D02*
X160380872Y-78280951D01*
X160380872Y-78280951D02*
X160347539Y-78233332D01*
X160347539Y-78233332D02*
X160280872Y-78185713D01*
X160280872Y-78185713D02*
X160147539Y-78161904D01*
X160147539Y-78161904D02*
X159914205Y-78161904D01*
X159914205Y-78161904D02*
X159780872Y-78185713D01*
X159780872Y-78185713D02*
X159714205Y-78233332D01*
X159714205Y-78233332D02*
X159680872Y-78280951D01*
X161774500Y-74733334D02*
X161741166Y-74709525D01*
X161741166Y-74709525D02*
X161641166Y-74661906D01*
X161641166Y-74661906D02*
X161574500Y-74638096D01*
X161574500Y-74638096D02*
X161474500Y-74614287D01*
X161474500Y-74614287D02*
X161307833Y-74590477D01*
X161307833Y-74590477D02*
X161174500Y-74590477D01*
X161174500Y-74590477D02*
X161007833Y-74614287D01*
X161007833Y-74614287D02*
X160907833Y-74638096D01*
X160907833Y-74638096D02*
X160841166Y-74661906D01*
X160841166Y-74661906D02*
X160741166Y-74709525D01*
X160741166Y-74709525D02*
X160707833Y-74733334D01*
X160841166Y-75185715D02*
X160807833Y-75138096D01*
X160807833Y-75138096D02*
X160807833Y-75066667D01*
X160807833Y-75066667D02*
X160841166Y-74995239D01*
X160841166Y-74995239D02*
X160907833Y-74947620D01*
X160907833Y-74947620D02*
X160974500Y-74923810D01*
X160974500Y-74923810D02*
X161107833Y-74900001D01*
X161107833Y-74900001D02*
X161207833Y-74900001D01*
X161207833Y-74900001D02*
X161341166Y-74923810D01*
X161341166Y-74923810D02*
X161407833Y-74947620D01*
X161407833Y-74947620D02*
X161474500Y-74995239D01*
X161474500Y-74995239D02*
X161507833Y-75066667D01*
X161507833Y-75066667D02*
X161507833Y-75114286D01*
X161507833Y-75114286D02*
X161474500Y-75185715D01*
X161474500Y-75185715D02*
X161441166Y-75209524D01*
X161441166Y-75209524D02*
X161207833Y-75209524D01*
X161207833Y-75209524D02*
X161207833Y-75114286D01*
X161507833Y-75423810D02*
X160807833Y-75423810D01*
X160807833Y-75423810D02*
X161507833Y-75709524D01*
X161507833Y-75709524D02*
X160807833Y-75709524D01*
X161507833Y-75947620D02*
X160807833Y-75947620D01*
X160807833Y-75947620D02*
X160807833Y-76066668D01*
X160807833Y-76066668D02*
X160841166Y-76138096D01*
X160841166Y-76138096D02*
X160907833Y-76185715D01*
X160907833Y-76185715D02*
X160974500Y-76209525D01*
X160974500Y-76209525D02*
X161107833Y-76233334D01*
X161107833Y-76233334D02*
X161207833Y-76233334D01*
X161207833Y-76233334D02*
X161341166Y-76209525D01*
X161341166Y-76209525D02*
X161407833Y-76185715D01*
X161407833Y-76185715D02*
X161474500Y-76138096D01*
X161474500Y-76138096D02*
X161507833Y-76066668D01*
X161507833Y-76066668D02*
X161507833Y-75947620D01*
X161474500Y-76471430D02*
X161507833Y-76471430D01*
X161507833Y-76471430D02*
X161574500Y-76447620D01*
X161574500Y-76447620D02*
X161607833Y-76423811D01*
X161241166Y-77066667D02*
X161241166Y-77447620D01*
X161507833Y-77257143D02*
X160974500Y-77257143D01*
X160807833Y-77923810D02*
X160807833Y-77685715D01*
X160807833Y-77685715D02*
X161141166Y-77661906D01*
X161141166Y-77661906D02*
X161107833Y-77685715D01*
X161107833Y-77685715D02*
X161074500Y-77733334D01*
X161074500Y-77733334D02*
X161074500Y-77852382D01*
X161074500Y-77852382D02*
X161107833Y-77900001D01*
X161107833Y-77900001D02*
X161141166Y-77923810D01*
X161141166Y-77923810D02*
X161207833Y-77947620D01*
X161207833Y-77947620D02*
X161374500Y-77947620D01*
X161374500Y-77947620D02*
X161441166Y-77923810D01*
X161441166Y-77923810D02*
X161474500Y-77900001D01*
X161474500Y-77900001D02*
X161507833Y-77852382D01*
X161507833Y-77852382D02*
X161507833Y-77733334D01*
X161507833Y-77733334D02*
X161474500Y-77685715D01*
X161474500Y-77685715D02*
X161441166Y-77661906D01*
X160807833Y-78090477D02*
X161507833Y-78257143D01*
X161507833Y-78257143D02*
X160807833Y-78423810D01*
X161474500Y-78614286D02*
X161507833Y-78614286D01*
X161507833Y-78614286D02*
X161574500Y-78590476D01*
X161574500Y-78590476D02*
X161607833Y-78566667D01*
X161307833Y-79185714D02*
X161307833Y-79423809D01*
X161507833Y-79138095D02*
X160807833Y-79304761D01*
X160807833Y-79304761D02*
X161507833Y-79471428D01*
X161507833Y-79899999D02*
X161507833Y-79614285D01*
X161507833Y-79757142D02*
X160807833Y-79757142D01*
X160807833Y-79757142D02*
X160907833Y-79709523D01*
X160907833Y-79709523D02*
X160974500Y-79661904D01*
X160974500Y-79661904D02*
X161007833Y-79614285D01*
X161774500Y-80066665D02*
X161741166Y-80090475D01*
X161741166Y-80090475D02*
X161641166Y-80138094D01*
X161641166Y-80138094D02*
X161574500Y-80161903D01*
X161574500Y-80161903D02*
X161474500Y-80185713D01*
X161474500Y-80185713D02*
X161307833Y-80209522D01*
X161307833Y-80209522D02*
X161174500Y-80209522D01*
X161174500Y-80209522D02*
X161007833Y-80185713D01*
X161007833Y-80185713D02*
X160907833Y-80161903D01*
X160907833Y-80161903D02*
X160841166Y-80138094D01*
X160841166Y-80138094D02*
X160741166Y-80090475D01*
X160741166Y-80090475D02*
X160707833Y-80066665D01*
X160247539Y-85904762D02*
X160280872Y-85976190D01*
X160280872Y-85976190D02*
X160280872Y-86095238D01*
X160280872Y-86095238D02*
X160247539Y-86142857D01*
X160247539Y-86142857D02*
X160214205Y-86166666D01*
X160214205Y-86166666D02*
X160147539Y-86190476D01*
X160147539Y-86190476D02*
X160080872Y-86190476D01*
X160080872Y-86190476D02*
X160014205Y-86166666D01*
X160014205Y-86166666D02*
X159980872Y-86142857D01*
X159980872Y-86142857D02*
X159947539Y-86095238D01*
X159947539Y-86095238D02*
X159914205Y-86000000D01*
X159914205Y-86000000D02*
X159880872Y-85952381D01*
X159880872Y-85952381D02*
X159847539Y-85928571D01*
X159847539Y-85928571D02*
X159780872Y-85904762D01*
X159780872Y-85904762D02*
X159714205Y-85904762D01*
X159714205Y-85904762D02*
X159647539Y-85928571D01*
X159647539Y-85928571D02*
X159614205Y-85952381D01*
X159614205Y-85952381D02*
X159580872Y-86000000D01*
X159580872Y-86000000D02*
X159580872Y-86119047D01*
X159580872Y-86119047D02*
X159614205Y-86190476D01*
X159914205Y-86404761D02*
X159914205Y-86571428D01*
X160280872Y-86642856D02*
X160280872Y-86404761D01*
X160280872Y-86404761D02*
X159580872Y-86404761D01*
X159580872Y-86404761D02*
X159580872Y-86642856D01*
X160280872Y-87142856D02*
X159947539Y-86976190D01*
X160280872Y-86857142D02*
X159580872Y-86857142D01*
X159580872Y-86857142D02*
X159580872Y-87047618D01*
X159580872Y-87047618D02*
X159614205Y-87095237D01*
X159614205Y-87095237D02*
X159647539Y-87119047D01*
X159647539Y-87119047D02*
X159714205Y-87142856D01*
X159714205Y-87142856D02*
X159814205Y-87142856D01*
X159814205Y-87142856D02*
X159880872Y-87119047D01*
X159880872Y-87119047D02*
X159914205Y-87095237D01*
X159914205Y-87095237D02*
X159947539Y-87047618D01*
X159947539Y-87047618D02*
X159947539Y-86857142D01*
X159580872Y-87285714D02*
X160280872Y-87452380D01*
X160280872Y-87452380D02*
X159580872Y-87619047D01*
X159580872Y-87880951D02*
X159580872Y-87976189D01*
X159580872Y-87976189D02*
X159614205Y-88023808D01*
X159614205Y-88023808D02*
X159680872Y-88071427D01*
X159680872Y-88071427D02*
X159814205Y-88095237D01*
X159814205Y-88095237D02*
X160047539Y-88095237D01*
X160047539Y-88095237D02*
X160180872Y-88071427D01*
X160180872Y-88071427D02*
X160247539Y-88023808D01*
X160247539Y-88023808D02*
X160280872Y-87976189D01*
X160280872Y-87976189D02*
X160280872Y-87880951D01*
X160280872Y-87880951D02*
X160247539Y-87833332D01*
X160247539Y-87833332D02*
X160180872Y-87785713D01*
X160180872Y-87785713D02*
X160047539Y-87761904D01*
X160047539Y-87761904D02*
X159814205Y-87761904D01*
X159814205Y-87761904D02*
X159680872Y-87785713D01*
X159680872Y-87785713D02*
X159614205Y-87833332D01*
X159614205Y-87833332D02*
X159580872Y-87880951D01*
X161674500Y-84333334D02*
X161641166Y-84309525D01*
X161641166Y-84309525D02*
X161541166Y-84261906D01*
X161541166Y-84261906D02*
X161474500Y-84238096D01*
X161474500Y-84238096D02*
X161374500Y-84214287D01*
X161374500Y-84214287D02*
X161207833Y-84190477D01*
X161207833Y-84190477D02*
X161074500Y-84190477D01*
X161074500Y-84190477D02*
X160907833Y-84214287D01*
X160907833Y-84214287D02*
X160807833Y-84238096D01*
X160807833Y-84238096D02*
X160741166Y-84261906D01*
X160741166Y-84261906D02*
X160641166Y-84309525D01*
X160641166Y-84309525D02*
X160607833Y-84333334D01*
X160741166Y-84785715D02*
X160707833Y-84738096D01*
X160707833Y-84738096D02*
X160707833Y-84666667D01*
X160707833Y-84666667D02*
X160741166Y-84595239D01*
X160741166Y-84595239D02*
X160807833Y-84547620D01*
X160807833Y-84547620D02*
X160874500Y-84523810D01*
X160874500Y-84523810D02*
X161007833Y-84500001D01*
X161007833Y-84500001D02*
X161107833Y-84500001D01*
X161107833Y-84500001D02*
X161241166Y-84523810D01*
X161241166Y-84523810D02*
X161307833Y-84547620D01*
X161307833Y-84547620D02*
X161374500Y-84595239D01*
X161374500Y-84595239D02*
X161407833Y-84666667D01*
X161407833Y-84666667D02*
X161407833Y-84714286D01*
X161407833Y-84714286D02*
X161374500Y-84785715D01*
X161374500Y-84785715D02*
X161341166Y-84809524D01*
X161341166Y-84809524D02*
X161107833Y-84809524D01*
X161107833Y-84809524D02*
X161107833Y-84714286D01*
X161407833Y-85023810D02*
X160707833Y-85023810D01*
X160707833Y-85023810D02*
X161407833Y-85309524D01*
X161407833Y-85309524D02*
X160707833Y-85309524D01*
X161407833Y-85547620D02*
X160707833Y-85547620D01*
X160707833Y-85547620D02*
X160707833Y-85666668D01*
X160707833Y-85666668D02*
X160741166Y-85738096D01*
X160741166Y-85738096D02*
X160807833Y-85785715D01*
X160807833Y-85785715D02*
X160874500Y-85809525D01*
X160874500Y-85809525D02*
X161007833Y-85833334D01*
X161007833Y-85833334D02*
X161107833Y-85833334D01*
X161107833Y-85833334D02*
X161241166Y-85809525D01*
X161241166Y-85809525D02*
X161307833Y-85785715D01*
X161307833Y-85785715D02*
X161374500Y-85738096D01*
X161374500Y-85738096D02*
X161407833Y-85666668D01*
X161407833Y-85666668D02*
X161407833Y-85547620D01*
X161374500Y-86071430D02*
X161407833Y-86071430D01*
X161407833Y-86071430D02*
X161474500Y-86047620D01*
X161474500Y-86047620D02*
X161507833Y-86023811D01*
X161141166Y-86666667D02*
X161141166Y-87047620D01*
X161407833Y-86857143D02*
X160874500Y-86857143D01*
X160707833Y-87523810D02*
X160707833Y-87285715D01*
X160707833Y-87285715D02*
X161041166Y-87261906D01*
X161041166Y-87261906D02*
X161007833Y-87285715D01*
X161007833Y-87285715D02*
X160974500Y-87333334D01*
X160974500Y-87333334D02*
X160974500Y-87452382D01*
X160974500Y-87452382D02*
X161007833Y-87500001D01*
X161007833Y-87500001D02*
X161041166Y-87523810D01*
X161041166Y-87523810D02*
X161107833Y-87547620D01*
X161107833Y-87547620D02*
X161274500Y-87547620D01*
X161274500Y-87547620D02*
X161341166Y-87523810D01*
X161341166Y-87523810D02*
X161374500Y-87500001D01*
X161374500Y-87500001D02*
X161407833Y-87452382D01*
X161407833Y-87452382D02*
X161407833Y-87333334D01*
X161407833Y-87333334D02*
X161374500Y-87285715D01*
X161374500Y-87285715D02*
X161341166Y-87261906D01*
X160707833Y-87690477D02*
X161407833Y-87857143D01*
X161407833Y-87857143D02*
X160707833Y-88023810D01*
X161374500Y-88214286D02*
X161407833Y-88214286D01*
X161407833Y-88214286D02*
X161474500Y-88190476D01*
X161474500Y-88190476D02*
X161507833Y-88166667D01*
X161207833Y-88785714D02*
X161207833Y-89023809D01*
X161407833Y-88738095D02*
X160707833Y-88904761D01*
X160707833Y-88904761D02*
X161407833Y-89071428D01*
X160707833Y-89333332D02*
X160707833Y-89380951D01*
X160707833Y-89380951D02*
X160741166Y-89428570D01*
X160741166Y-89428570D02*
X160774500Y-89452380D01*
X160774500Y-89452380D02*
X160841166Y-89476189D01*
X160841166Y-89476189D02*
X160974500Y-89499999D01*
X160974500Y-89499999D02*
X161141166Y-89499999D01*
X161141166Y-89499999D02*
X161274500Y-89476189D01*
X161274500Y-89476189D02*
X161341166Y-89452380D01*
X161341166Y-89452380D02*
X161374500Y-89428570D01*
X161374500Y-89428570D02*
X161407833Y-89380951D01*
X161407833Y-89380951D02*
X161407833Y-89333332D01*
X161407833Y-89333332D02*
X161374500Y-89285713D01*
X161374500Y-89285713D02*
X161341166Y-89261904D01*
X161341166Y-89261904D02*
X161274500Y-89238094D01*
X161274500Y-89238094D02*
X161141166Y-89214285D01*
X161141166Y-89214285D02*
X160974500Y-89214285D01*
X160974500Y-89214285D02*
X160841166Y-89238094D01*
X160841166Y-89238094D02*
X160774500Y-89261904D01*
X160774500Y-89261904D02*
X160741166Y-89285713D01*
X160741166Y-89285713D02*
X160707833Y-89333332D01*
X161674500Y-89666665D02*
X161641166Y-89690475D01*
X161641166Y-89690475D02*
X161541166Y-89738094D01*
X161541166Y-89738094D02*
X161474500Y-89761903D01*
X161474500Y-89761903D02*
X161374500Y-89785713D01*
X161374500Y-89785713D02*
X161207833Y-89809522D01*
X161207833Y-89809522D02*
X161074500Y-89809522D01*
X161074500Y-89809522D02*
X160907833Y-89785713D01*
X160907833Y-89785713D02*
X160807833Y-89761903D01*
X160807833Y-89761903D02*
X160741166Y-89738094D01*
X160741166Y-89738094D02*
X160641166Y-89690475D01*
X160641166Y-89690475D02*
X160607833Y-89666665D01*
X126307833Y-91539378D02*
X126307833Y-91301283D01*
X126307833Y-91301283D02*
X125607833Y-91301283D01*
X125941166Y-91706045D02*
X125941166Y-91872712D01*
X126307833Y-91944140D02*
X126307833Y-91706045D01*
X126307833Y-91706045D02*
X125607833Y-91706045D01*
X125607833Y-91706045D02*
X125607833Y-91944140D01*
X126307833Y-92158426D02*
X125607833Y-92158426D01*
X125607833Y-92158426D02*
X125607833Y-92277474D01*
X125607833Y-92277474D02*
X125641166Y-92348902D01*
X125641166Y-92348902D02*
X125707833Y-92396521D01*
X125707833Y-92396521D02*
X125774500Y-92420331D01*
X125774500Y-92420331D02*
X125907833Y-92444140D01*
X125907833Y-92444140D02*
X126007833Y-92444140D01*
X126007833Y-92444140D02*
X126141166Y-92420331D01*
X126141166Y-92420331D02*
X126207833Y-92396521D01*
X126207833Y-92396521D02*
X126274500Y-92348902D01*
X126274500Y-92348902D02*
X126307833Y-92277474D01*
X126307833Y-92277474D02*
X126307833Y-92158426D01*
X126274500Y-92634617D02*
X126307833Y-92682236D01*
X126307833Y-92682236D02*
X126307833Y-92777474D01*
X126307833Y-92777474D02*
X126274500Y-92825093D01*
X126274500Y-92825093D02*
X126207833Y-92848902D01*
X126207833Y-92848902D02*
X126174500Y-92848902D01*
X126174500Y-92848902D02*
X126107833Y-92825093D01*
X126107833Y-92825093D02*
X126074500Y-92777474D01*
X126074500Y-92777474D02*
X126074500Y-92706045D01*
X126074500Y-92706045D02*
X126041166Y-92658426D01*
X126041166Y-92658426D02*
X125974500Y-92634617D01*
X125974500Y-92634617D02*
X125941166Y-92634617D01*
X125941166Y-92634617D02*
X125874500Y-92658426D01*
X125874500Y-92658426D02*
X125841166Y-92706045D01*
X125841166Y-92706045D02*
X125841166Y-92777474D01*
X125841166Y-92777474D02*
X125874500Y-92825093D01*
X126374500Y-92944141D02*
X126374500Y-93325093D01*
X126274500Y-93634616D02*
X126307833Y-93586997D01*
X126307833Y-93586997D02*
X126307833Y-93491759D01*
X126307833Y-93491759D02*
X126274500Y-93444140D01*
X126274500Y-93444140D02*
X126207833Y-93420331D01*
X126207833Y-93420331D02*
X125941166Y-93420331D01*
X125941166Y-93420331D02*
X125874500Y-93444140D01*
X125874500Y-93444140D02*
X125841166Y-93491759D01*
X125841166Y-93491759D02*
X125841166Y-93586997D01*
X125841166Y-93586997D02*
X125874500Y-93634616D01*
X125874500Y-93634616D02*
X125941166Y-93658426D01*
X125941166Y-93658426D02*
X126007833Y-93658426D01*
X126007833Y-93658426D02*
X126074500Y-93420331D01*
X125841166Y-94086997D02*
X126541166Y-94086997D01*
X126274500Y-94086997D02*
X126307833Y-94039378D01*
X126307833Y-94039378D02*
X126307833Y-93944140D01*
X126307833Y-93944140D02*
X126274500Y-93896521D01*
X126274500Y-93896521D02*
X126241166Y-93872711D01*
X126241166Y-93872711D02*
X126174500Y-93848902D01*
X126174500Y-93848902D02*
X125974500Y-93848902D01*
X125974500Y-93848902D02*
X125907833Y-93872711D01*
X125907833Y-93872711D02*
X125874500Y-93896521D01*
X125874500Y-93896521D02*
X125841166Y-93944140D01*
X125841166Y-93944140D02*
X125841166Y-94039378D01*
X125841166Y-94039378D02*
X125874500Y-94086997D01*
X125841166Y-94539378D02*
X126307833Y-94539378D01*
X125841166Y-94325092D02*
X126207833Y-94325092D01*
X126207833Y-94325092D02*
X126274500Y-94348902D01*
X126274500Y-94348902D02*
X126307833Y-94396521D01*
X126307833Y-94396521D02*
X126307833Y-94467949D01*
X126307833Y-94467949D02*
X126274500Y-94515568D01*
X126274500Y-94515568D02*
X126241166Y-94539378D01*
X126307833Y-94777473D02*
X125841166Y-94777473D01*
X125607833Y-94777473D02*
X125641166Y-94753664D01*
X125641166Y-94753664D02*
X125674500Y-94777473D01*
X125674500Y-94777473D02*
X125641166Y-94801283D01*
X125641166Y-94801283D02*
X125607833Y-94777473D01*
X125607833Y-94777473D02*
X125674500Y-94777473D01*
X125841166Y-95015568D02*
X126541166Y-95015568D01*
X125874500Y-95015568D02*
X125841166Y-95063187D01*
X125841166Y-95063187D02*
X125841166Y-95158425D01*
X125841166Y-95158425D02*
X125874500Y-95206044D01*
X125874500Y-95206044D02*
X125907833Y-95229854D01*
X125907833Y-95229854D02*
X125974500Y-95253663D01*
X125974500Y-95253663D02*
X126174500Y-95253663D01*
X126174500Y-95253663D02*
X126241166Y-95229854D01*
X126241166Y-95229854D02*
X126274500Y-95206044D01*
X126274500Y-95206044D02*
X126307833Y-95158425D01*
X126307833Y-95158425D02*
X126307833Y-95063187D01*
X126307833Y-95063187D02*
X126274500Y-95015568D01*
X126274500Y-95658425D02*
X126307833Y-95610806D01*
X126307833Y-95610806D02*
X126307833Y-95515568D01*
X126307833Y-95515568D02*
X126274500Y-95467949D01*
X126274500Y-95467949D02*
X126207833Y-95444140D01*
X126207833Y-95444140D02*
X125941166Y-95444140D01*
X125941166Y-95444140D02*
X125874500Y-95467949D01*
X125874500Y-95467949D02*
X125841166Y-95515568D01*
X125841166Y-95515568D02*
X125841166Y-95610806D01*
X125841166Y-95610806D02*
X125874500Y-95658425D01*
X125874500Y-95658425D02*
X125941166Y-95682235D01*
X125941166Y-95682235D02*
X126007833Y-95682235D01*
X126007833Y-95682235D02*
X126074500Y-95444140D01*
X126574500Y-96420329D02*
X126541166Y-96396520D01*
X126541166Y-96396520D02*
X126441166Y-96348901D01*
X126441166Y-96348901D02*
X126374500Y-96325091D01*
X126374500Y-96325091D02*
X126274500Y-96301282D01*
X126274500Y-96301282D02*
X126107833Y-96277472D01*
X126107833Y-96277472D02*
X125974500Y-96277472D01*
X125974500Y-96277472D02*
X125807833Y-96301282D01*
X125807833Y-96301282D02*
X125707833Y-96325091D01*
X125707833Y-96325091D02*
X125641166Y-96348901D01*
X125641166Y-96348901D02*
X125541166Y-96396520D01*
X125541166Y-96396520D02*
X125507833Y-96420329D01*
X126307833Y-96610805D02*
X125607833Y-96610805D01*
X125607833Y-96610805D02*
X125607833Y-96729853D01*
X125607833Y-96729853D02*
X125641166Y-96801281D01*
X125641166Y-96801281D02*
X125707833Y-96848900D01*
X125707833Y-96848900D02*
X125774500Y-96872710D01*
X125774500Y-96872710D02*
X125907833Y-96896519D01*
X125907833Y-96896519D02*
X126007833Y-96896519D01*
X126007833Y-96896519D02*
X126141166Y-96872710D01*
X126141166Y-96872710D02*
X126207833Y-96848900D01*
X126207833Y-96848900D02*
X126274500Y-96801281D01*
X126274500Y-96801281D02*
X126307833Y-96729853D01*
X126307833Y-96729853D02*
X126307833Y-96610805D01*
X126307833Y-97372710D02*
X126307833Y-97086996D01*
X126307833Y-97229853D02*
X125607833Y-97229853D01*
X125607833Y-97229853D02*
X125707833Y-97182234D01*
X125707833Y-97182234D02*
X125774500Y-97134615D01*
X125774500Y-97134615D02*
X125807833Y-97086996D01*
X125607833Y-97682233D02*
X125607833Y-97729852D01*
X125607833Y-97729852D02*
X125641166Y-97777471D01*
X125641166Y-97777471D02*
X125674500Y-97801281D01*
X125674500Y-97801281D02*
X125741166Y-97825090D01*
X125741166Y-97825090D02*
X125874500Y-97848900D01*
X125874500Y-97848900D02*
X126041166Y-97848900D01*
X126041166Y-97848900D02*
X126174500Y-97825090D01*
X126174500Y-97825090D02*
X126241166Y-97801281D01*
X126241166Y-97801281D02*
X126274500Y-97777471D01*
X126274500Y-97777471D02*
X126307833Y-97729852D01*
X126307833Y-97729852D02*
X126307833Y-97682233D01*
X126307833Y-97682233D02*
X126274500Y-97634614D01*
X126274500Y-97634614D02*
X126241166Y-97610805D01*
X126241166Y-97610805D02*
X126174500Y-97586995D01*
X126174500Y-97586995D02*
X126041166Y-97563186D01*
X126041166Y-97563186D02*
X125874500Y-97563186D01*
X125874500Y-97563186D02*
X125741166Y-97586995D01*
X125741166Y-97586995D02*
X125674500Y-97610805D01*
X125674500Y-97610805D02*
X125641166Y-97634614D01*
X125641166Y-97634614D02*
X125607833Y-97682233D01*
X126274500Y-98086995D02*
X126307833Y-98086995D01*
X126307833Y-98086995D02*
X126374500Y-98063185D01*
X126374500Y-98063185D02*
X126407833Y-98039376D01*
X126307833Y-98682232D02*
X125607833Y-98682232D01*
X125607833Y-98682232D02*
X125607833Y-98801280D01*
X125607833Y-98801280D02*
X125641166Y-98872708D01*
X125641166Y-98872708D02*
X125707833Y-98920327D01*
X125707833Y-98920327D02*
X125774500Y-98944137D01*
X125774500Y-98944137D02*
X125907833Y-98967946D01*
X125907833Y-98967946D02*
X126007833Y-98967946D01*
X126007833Y-98967946D02*
X126141166Y-98944137D01*
X126141166Y-98944137D02*
X126207833Y-98920327D01*
X126207833Y-98920327D02*
X126274500Y-98872708D01*
X126274500Y-98872708D02*
X126307833Y-98801280D01*
X126307833Y-98801280D02*
X126307833Y-98682232D01*
X126307833Y-99444137D02*
X126307833Y-99158423D01*
X126307833Y-99301280D02*
X125607833Y-99301280D01*
X125607833Y-99301280D02*
X125707833Y-99253661D01*
X125707833Y-99253661D02*
X125774500Y-99206042D01*
X125774500Y-99206042D02*
X125807833Y-99158423D01*
X126307833Y-99920327D02*
X126307833Y-99634613D01*
X126307833Y-99777470D02*
X125607833Y-99777470D01*
X125607833Y-99777470D02*
X125707833Y-99729851D01*
X125707833Y-99729851D02*
X125774500Y-99682232D01*
X125774500Y-99682232D02*
X125807833Y-99634613D01*
X126574500Y-100086993D02*
X126541166Y-100110803D01*
X126541166Y-100110803D02*
X126441166Y-100158422D01*
X126441166Y-100158422D02*
X126374500Y-100182231D01*
X126374500Y-100182231D02*
X126274500Y-100206041D01*
X126274500Y-100206041D02*
X126107833Y-100229850D01*
X126107833Y-100229850D02*
X125974500Y-100229850D01*
X125974500Y-100229850D02*
X125807833Y-100206041D01*
X125807833Y-100206041D02*
X125707833Y-100182231D01*
X125707833Y-100182231D02*
X125641166Y-100158422D01*
X125641166Y-100158422D02*
X125541166Y-100110803D01*
X125541166Y-100110803D02*
X125507833Y-100086993D01*
X141399989Y-77464286D02*
X140699989Y-77464286D01*
X140699989Y-77464286D02*
X140699989Y-77654762D01*
X140699989Y-77654762D02*
X140733322Y-77702381D01*
X140733322Y-77702381D02*
X140766656Y-77726191D01*
X140766656Y-77726191D02*
X140833322Y-77750000D01*
X140833322Y-77750000D02*
X140933322Y-77750000D01*
X140933322Y-77750000D02*
X140999989Y-77726191D01*
X140999989Y-77726191D02*
X141033322Y-77702381D01*
X141033322Y-77702381D02*
X141066656Y-77654762D01*
X141066656Y-77654762D02*
X141066656Y-77464286D01*
X141333322Y-78250000D02*
X141366656Y-78226191D01*
X141366656Y-78226191D02*
X141399989Y-78154762D01*
X141399989Y-78154762D02*
X141399989Y-78107143D01*
X141399989Y-78107143D02*
X141366656Y-78035715D01*
X141366656Y-78035715D02*
X141299989Y-77988096D01*
X141299989Y-77988096D02*
X141233322Y-77964286D01*
X141233322Y-77964286D02*
X141099989Y-77940477D01*
X141099989Y-77940477D02*
X140999989Y-77940477D01*
X140999989Y-77940477D02*
X140866656Y-77964286D01*
X140866656Y-77964286D02*
X140799989Y-77988096D01*
X140799989Y-77988096D02*
X140733322Y-78035715D01*
X140733322Y-78035715D02*
X140699989Y-78107143D01*
X140699989Y-78107143D02*
X140699989Y-78154762D01*
X140699989Y-78154762D02*
X140733322Y-78226191D01*
X140733322Y-78226191D02*
X140766656Y-78250000D01*
X141033322Y-78630953D02*
X141066656Y-78702381D01*
X141066656Y-78702381D02*
X141099989Y-78726191D01*
X141099989Y-78726191D02*
X141166656Y-78750000D01*
X141166656Y-78750000D02*
X141266656Y-78750000D01*
X141266656Y-78750000D02*
X141333322Y-78726191D01*
X141333322Y-78726191D02*
X141366656Y-78702381D01*
X141366656Y-78702381D02*
X141399989Y-78654762D01*
X141399989Y-78654762D02*
X141399989Y-78464286D01*
X141399989Y-78464286D02*
X140699989Y-78464286D01*
X140699989Y-78464286D02*
X140699989Y-78630953D01*
X140699989Y-78630953D02*
X140733322Y-78678572D01*
X140733322Y-78678572D02*
X140766656Y-78702381D01*
X140766656Y-78702381D02*
X140833322Y-78726191D01*
X140833322Y-78726191D02*
X140899989Y-78726191D01*
X140899989Y-78726191D02*
X140966656Y-78702381D01*
X140966656Y-78702381D02*
X140999989Y-78678572D01*
X140999989Y-78678572D02*
X141033322Y-78630953D01*
X141033322Y-78630953D02*
X141033322Y-78464286D01*
X141399989Y-79630952D02*
X141066656Y-79464286D01*
X141399989Y-79345238D02*
X140699989Y-79345238D01*
X140699989Y-79345238D02*
X140699989Y-79535714D01*
X140699989Y-79535714D02*
X140733322Y-79583333D01*
X140733322Y-79583333D02*
X140766656Y-79607143D01*
X140766656Y-79607143D02*
X140833322Y-79630952D01*
X140833322Y-79630952D02*
X140933322Y-79630952D01*
X140933322Y-79630952D02*
X140999989Y-79607143D01*
X140999989Y-79607143D02*
X141033322Y-79583333D01*
X141033322Y-79583333D02*
X141066656Y-79535714D01*
X141066656Y-79535714D02*
X141066656Y-79345238D01*
X141399989Y-79916667D02*
X141366656Y-79869048D01*
X141366656Y-79869048D02*
X141333322Y-79845238D01*
X141333322Y-79845238D02*
X141266656Y-79821429D01*
X141266656Y-79821429D02*
X141066656Y-79821429D01*
X141066656Y-79821429D02*
X140999989Y-79845238D01*
X140999989Y-79845238D02*
X140966656Y-79869048D01*
X140966656Y-79869048D02*
X140933322Y-79916667D01*
X140933322Y-79916667D02*
X140933322Y-79988095D01*
X140933322Y-79988095D02*
X140966656Y-80035714D01*
X140966656Y-80035714D02*
X140999989Y-80059524D01*
X140999989Y-80059524D02*
X141066656Y-80083333D01*
X141066656Y-80083333D02*
X141266656Y-80083333D01*
X141266656Y-80083333D02*
X141333322Y-80059524D01*
X141333322Y-80059524D02*
X141366656Y-80035714D01*
X141366656Y-80035714D02*
X141399989Y-79988095D01*
X141399989Y-79988095D02*
X141399989Y-79916667D01*
X141399989Y-80297619D02*
X140699989Y-80297619D01*
X140966656Y-80297619D02*
X140933322Y-80345238D01*
X140933322Y-80345238D02*
X140933322Y-80440476D01*
X140933322Y-80440476D02*
X140966656Y-80488095D01*
X140966656Y-80488095D02*
X140999989Y-80511905D01*
X140999989Y-80511905D02*
X141066656Y-80535714D01*
X141066656Y-80535714D02*
X141266656Y-80535714D01*
X141266656Y-80535714D02*
X141333322Y-80511905D01*
X141333322Y-80511905D02*
X141366656Y-80488095D01*
X141366656Y-80488095D02*
X141399989Y-80440476D01*
X141399989Y-80440476D02*
X141399989Y-80345238D01*
X141399989Y-80345238D02*
X141366656Y-80297619D01*
X141399989Y-80821429D02*
X141366656Y-80773810D01*
X141366656Y-80773810D02*
X141333322Y-80750000D01*
X141333322Y-80750000D02*
X141266656Y-80726191D01*
X141266656Y-80726191D02*
X141066656Y-80726191D01*
X141066656Y-80726191D02*
X140999989Y-80750000D01*
X140999989Y-80750000D02*
X140966656Y-80773810D01*
X140966656Y-80773810D02*
X140933322Y-80821429D01*
X140933322Y-80821429D02*
X140933322Y-80892857D01*
X140933322Y-80892857D02*
X140966656Y-80940476D01*
X140966656Y-80940476D02*
X140999989Y-80964286D01*
X140999989Y-80964286D02*
X141066656Y-80988095D01*
X141066656Y-80988095D02*
X141266656Y-80988095D01*
X141266656Y-80988095D02*
X141333322Y-80964286D01*
X141333322Y-80964286D02*
X141366656Y-80940476D01*
X141366656Y-80940476D02*
X141399989Y-80892857D01*
X141399989Y-80892857D02*
X141399989Y-80821429D01*
X140933322Y-81130953D02*
X140933322Y-81321429D01*
X140699989Y-81202381D02*
X141299989Y-81202381D01*
X141299989Y-81202381D02*
X141366656Y-81226191D01*
X141366656Y-81226191D02*
X141399989Y-81273810D01*
X141399989Y-81273810D02*
X141399989Y-81321429D01*
X141399989Y-81869047D02*
X140699989Y-81869047D01*
X141033322Y-81869047D02*
X141033322Y-82154761D01*
X141399989Y-82154761D02*
X140699989Y-82154761D01*
X141399989Y-82607143D02*
X141033322Y-82607143D01*
X141033322Y-82607143D02*
X140966656Y-82583333D01*
X140966656Y-82583333D02*
X140933322Y-82535714D01*
X140933322Y-82535714D02*
X140933322Y-82440476D01*
X140933322Y-82440476D02*
X140966656Y-82392857D01*
X141366656Y-82607143D02*
X141399989Y-82559524D01*
X141399989Y-82559524D02*
X141399989Y-82440476D01*
X141399989Y-82440476D02*
X141366656Y-82392857D01*
X141366656Y-82392857D02*
X141299989Y-82369048D01*
X141299989Y-82369048D02*
X141233322Y-82369048D01*
X141233322Y-82369048D02*
X141166656Y-82392857D01*
X141166656Y-82392857D02*
X141133322Y-82440476D01*
X141133322Y-82440476D02*
X141133322Y-82559524D01*
X141133322Y-82559524D02*
X141099989Y-82607143D01*
X141366656Y-83059524D02*
X141399989Y-83011905D01*
X141399989Y-83011905D02*
X141399989Y-82916667D01*
X141399989Y-82916667D02*
X141366656Y-82869048D01*
X141366656Y-82869048D02*
X141333322Y-82845238D01*
X141333322Y-82845238D02*
X141266656Y-82821429D01*
X141266656Y-82821429D02*
X141066656Y-82821429D01*
X141066656Y-82821429D02*
X140999989Y-82845238D01*
X140999989Y-82845238D02*
X140966656Y-82869048D01*
X140966656Y-82869048D02*
X140933322Y-82916667D01*
X140933322Y-82916667D02*
X140933322Y-83011905D01*
X140933322Y-83011905D02*
X140966656Y-83059524D01*
X141399989Y-83273809D02*
X140699989Y-83273809D01*
X141133322Y-83321428D02*
X141399989Y-83464285D01*
X140933322Y-83464285D02*
X141199989Y-83273809D01*
X141399989Y-83892857D02*
X141033322Y-83892857D01*
X141033322Y-83892857D02*
X140966656Y-83869047D01*
X140966656Y-83869047D02*
X140933322Y-83821428D01*
X140933322Y-83821428D02*
X140933322Y-83726190D01*
X140933322Y-83726190D02*
X140966656Y-83678571D01*
X141366656Y-83892857D02*
X141399989Y-83845238D01*
X141399989Y-83845238D02*
X141399989Y-83726190D01*
X141399989Y-83726190D02*
X141366656Y-83678571D01*
X141366656Y-83678571D02*
X141299989Y-83654762D01*
X141299989Y-83654762D02*
X141233322Y-83654762D01*
X141233322Y-83654762D02*
X141166656Y-83678571D01*
X141166656Y-83678571D02*
X141133322Y-83726190D01*
X141133322Y-83726190D02*
X141133322Y-83845238D01*
X141133322Y-83845238D02*
X141099989Y-83892857D01*
X140933322Y-84059524D02*
X140933322Y-84250000D01*
X140699989Y-84130952D02*
X141299989Y-84130952D01*
X141299989Y-84130952D02*
X141366656Y-84154762D01*
X141366656Y-84154762D02*
X141399989Y-84202381D01*
X141399989Y-84202381D02*
X141399989Y-84250000D01*
X141399989Y-84416666D02*
X140699989Y-84416666D01*
X141399989Y-84630952D02*
X141033322Y-84630952D01*
X141033322Y-84630952D02*
X140966656Y-84607142D01*
X140966656Y-84607142D02*
X140933322Y-84559523D01*
X140933322Y-84559523D02*
X140933322Y-84488095D01*
X140933322Y-84488095D02*
X140966656Y-84440476D01*
X140966656Y-84440476D02*
X140999989Y-84416666D01*
X141399989Y-84940476D02*
X141366656Y-84892857D01*
X141366656Y-84892857D02*
X141333322Y-84869047D01*
X141333322Y-84869047D02*
X141266656Y-84845238D01*
X141266656Y-84845238D02*
X141066656Y-84845238D01*
X141066656Y-84845238D02*
X140999989Y-84869047D01*
X140999989Y-84869047D02*
X140966656Y-84892857D01*
X140966656Y-84892857D02*
X140933322Y-84940476D01*
X140933322Y-84940476D02*
X140933322Y-85011904D01*
X140933322Y-85011904D02*
X140966656Y-85059523D01*
X140966656Y-85059523D02*
X140999989Y-85083333D01*
X140999989Y-85083333D02*
X141066656Y-85107142D01*
X141066656Y-85107142D02*
X141266656Y-85107142D01*
X141266656Y-85107142D02*
X141333322Y-85083333D01*
X141333322Y-85083333D02*
X141366656Y-85059523D01*
X141366656Y-85059523D02*
X141399989Y-85011904D01*
X141399989Y-85011904D02*
X141399989Y-84940476D01*
X140933322Y-85321428D02*
X141399989Y-85321428D01*
X140999989Y-85321428D02*
X140966656Y-85345238D01*
X140966656Y-85345238D02*
X140933322Y-85392857D01*
X140933322Y-85392857D02*
X140933322Y-85464285D01*
X140933322Y-85464285D02*
X140966656Y-85511904D01*
X140966656Y-85511904D02*
X141033322Y-85535714D01*
X141033322Y-85535714D02*
X141399989Y-85535714D01*
X143187244Y-79666668D02*
X143653911Y-79785716D01*
X143653911Y-79785716D02*
X143187244Y-79904763D01*
X143653911Y-80357144D02*
X143653911Y-80071430D01*
X143653911Y-80214287D02*
X142953911Y-80214287D01*
X142953911Y-80214287D02*
X143053911Y-80166668D01*
X143053911Y-80166668D02*
X143120578Y-80119049D01*
X143120578Y-80119049D02*
X143153911Y-80071430D01*
X143920578Y-81095238D02*
X143887244Y-81071429D01*
X143887244Y-81071429D02*
X143787244Y-81023810D01*
X143787244Y-81023810D02*
X143720578Y-81000000D01*
X143720578Y-81000000D02*
X143620578Y-80976191D01*
X143620578Y-80976191D02*
X143453911Y-80952381D01*
X143453911Y-80952381D02*
X143320578Y-80952381D01*
X143320578Y-80952381D02*
X143153911Y-80976191D01*
X143153911Y-80976191D02*
X143053911Y-81000000D01*
X143053911Y-81000000D02*
X142987244Y-81023810D01*
X142987244Y-81023810D02*
X142887244Y-81071429D01*
X142887244Y-81071429D02*
X142853911Y-81095238D01*
X143020578Y-81261905D02*
X142987244Y-81285714D01*
X142987244Y-81285714D02*
X142953911Y-81333333D01*
X142953911Y-81333333D02*
X142953911Y-81452381D01*
X142953911Y-81452381D02*
X142987244Y-81500000D01*
X142987244Y-81500000D02*
X143020578Y-81523809D01*
X143020578Y-81523809D02*
X143087244Y-81547619D01*
X143087244Y-81547619D02*
X143153911Y-81547619D01*
X143153911Y-81547619D02*
X143253911Y-81523809D01*
X143253911Y-81523809D02*
X143653911Y-81238095D01*
X143653911Y-81238095D02*
X143653911Y-81547619D01*
X142953911Y-81857142D02*
X142953911Y-81904761D01*
X142953911Y-81904761D02*
X142987244Y-81952380D01*
X142987244Y-81952380D02*
X143020578Y-81976190D01*
X143020578Y-81976190D02*
X143087244Y-81999999D01*
X143087244Y-81999999D02*
X143220578Y-82023809D01*
X143220578Y-82023809D02*
X143387244Y-82023809D01*
X143387244Y-82023809D02*
X143520578Y-81999999D01*
X143520578Y-81999999D02*
X143587244Y-81976190D01*
X143587244Y-81976190D02*
X143620578Y-81952380D01*
X143620578Y-81952380D02*
X143653911Y-81904761D01*
X143653911Y-81904761D02*
X143653911Y-81857142D01*
X143653911Y-81857142D02*
X143620578Y-81809523D01*
X143620578Y-81809523D02*
X143587244Y-81785714D01*
X143587244Y-81785714D02*
X143520578Y-81761904D01*
X143520578Y-81761904D02*
X143387244Y-81738095D01*
X143387244Y-81738095D02*
X143220578Y-81738095D01*
X143220578Y-81738095D02*
X143087244Y-81761904D01*
X143087244Y-81761904D02*
X143020578Y-81785714D01*
X143020578Y-81785714D02*
X142987244Y-81809523D01*
X142987244Y-81809523D02*
X142953911Y-81857142D01*
X143020578Y-82214285D02*
X142987244Y-82238094D01*
X142987244Y-82238094D02*
X142953911Y-82285713D01*
X142953911Y-82285713D02*
X142953911Y-82404761D01*
X142953911Y-82404761D02*
X142987244Y-82452380D01*
X142987244Y-82452380D02*
X143020578Y-82476189D01*
X143020578Y-82476189D02*
X143087244Y-82499999D01*
X143087244Y-82499999D02*
X143153911Y-82499999D01*
X143153911Y-82499999D02*
X143253911Y-82476189D01*
X143253911Y-82476189D02*
X143653911Y-82190475D01*
X143653911Y-82190475D02*
X143653911Y-82499999D01*
X143187244Y-82928570D02*
X143653911Y-82928570D01*
X142920578Y-82809522D02*
X143420578Y-82690475D01*
X143420578Y-82690475D02*
X143420578Y-82999998D01*
X143920578Y-83142855D02*
X143887244Y-83166665D01*
X143887244Y-83166665D02*
X143787244Y-83214284D01*
X143787244Y-83214284D02*
X143720578Y-83238093D01*
X143720578Y-83238093D02*
X143620578Y-83261903D01*
X143620578Y-83261903D02*
X143453911Y-83285712D01*
X143453911Y-83285712D02*
X143320578Y-83285712D01*
X143320578Y-83285712D02*
X143153911Y-83261903D01*
X143153911Y-83261903D02*
X143053911Y-83238093D01*
X143053911Y-83238093D02*
X142987244Y-83214284D01*
X142987244Y-83214284D02*
X142887244Y-83166665D01*
X142887244Y-83166665D02*
X142853911Y-83142855D01*
X145541166Y-71619052D02*
X145541166Y-71452385D01*
X145907833Y-71452385D02*
X145207833Y-71452385D01*
X145207833Y-71452385D02*
X145207833Y-71690480D01*
X145907833Y-72095242D02*
X145541166Y-72095242D01*
X145541166Y-72095242D02*
X145474500Y-72071432D01*
X145474500Y-72071432D02*
X145441166Y-72023813D01*
X145441166Y-72023813D02*
X145441166Y-71928575D01*
X145441166Y-71928575D02*
X145474500Y-71880956D01*
X145874500Y-72095242D02*
X145907833Y-72047623D01*
X145907833Y-72047623D02*
X145907833Y-71928575D01*
X145907833Y-71928575D02*
X145874500Y-71880956D01*
X145874500Y-71880956D02*
X145807833Y-71857147D01*
X145807833Y-71857147D02*
X145741166Y-71857147D01*
X145741166Y-71857147D02*
X145674500Y-71880956D01*
X145674500Y-71880956D02*
X145641166Y-71928575D01*
X145641166Y-71928575D02*
X145641166Y-72047623D01*
X145641166Y-72047623D02*
X145607833Y-72095242D01*
X145907833Y-72333337D02*
X145441166Y-72333337D01*
X145207833Y-72333337D02*
X145241166Y-72309528D01*
X145241166Y-72309528D02*
X145274500Y-72333337D01*
X145274500Y-72333337D02*
X145241166Y-72357147D01*
X145241166Y-72357147D02*
X145207833Y-72333337D01*
X145207833Y-72333337D02*
X145274500Y-72333337D01*
X145441166Y-72500004D02*
X145441166Y-72690480D01*
X145207833Y-72571432D02*
X145807833Y-72571432D01*
X145807833Y-72571432D02*
X145874500Y-72595242D01*
X145874500Y-72595242D02*
X145907833Y-72642861D01*
X145907833Y-72642861D02*
X145907833Y-72690480D01*
X145907833Y-73452384D02*
X145541166Y-73452384D01*
X145541166Y-73452384D02*
X145474500Y-73428574D01*
X145474500Y-73428574D02*
X145441166Y-73380955D01*
X145441166Y-73380955D02*
X145441166Y-73285717D01*
X145441166Y-73285717D02*
X145474500Y-73238098D01*
X145874500Y-73452384D02*
X145907833Y-73404765D01*
X145907833Y-73404765D02*
X145907833Y-73285717D01*
X145907833Y-73285717D02*
X145874500Y-73238098D01*
X145874500Y-73238098D02*
X145807833Y-73214289D01*
X145807833Y-73214289D02*
X145741166Y-73214289D01*
X145741166Y-73214289D02*
X145674500Y-73238098D01*
X145674500Y-73238098D02*
X145641166Y-73285717D01*
X145641166Y-73285717D02*
X145641166Y-73404765D01*
X145641166Y-73404765D02*
X145607833Y-73452384D01*
X145441166Y-73642860D02*
X145907833Y-73761908D01*
X145907833Y-73761908D02*
X145441166Y-73880955D01*
X145874500Y-74261907D02*
X145907833Y-74214288D01*
X145907833Y-74214288D02*
X145907833Y-74119050D01*
X145907833Y-74119050D02*
X145874500Y-74071431D01*
X145874500Y-74071431D02*
X145807833Y-74047622D01*
X145807833Y-74047622D02*
X145541166Y-74047622D01*
X145541166Y-74047622D02*
X145474500Y-74071431D01*
X145474500Y-74071431D02*
X145441166Y-74119050D01*
X145441166Y-74119050D02*
X145441166Y-74214288D01*
X145441166Y-74214288D02*
X145474500Y-74261907D01*
X145474500Y-74261907D02*
X145541166Y-74285717D01*
X145541166Y-74285717D02*
X145607833Y-74285717D01*
X145607833Y-74285717D02*
X145674500Y-74047622D01*
X145874500Y-74714288D02*
X145907833Y-74666669D01*
X145907833Y-74666669D02*
X145907833Y-74571431D01*
X145907833Y-74571431D02*
X145874500Y-74523812D01*
X145874500Y-74523812D02*
X145841166Y-74500002D01*
X145841166Y-74500002D02*
X145774500Y-74476193D01*
X145774500Y-74476193D02*
X145574500Y-74476193D01*
X145574500Y-74476193D02*
X145507833Y-74500002D01*
X145507833Y-74500002D02*
X145474500Y-74523812D01*
X145474500Y-74523812D02*
X145441166Y-74571431D01*
X145441166Y-74571431D02*
X145441166Y-74666669D01*
X145441166Y-74666669D02*
X145474500Y-74714288D01*
X145907833Y-75523811D02*
X145541166Y-75523811D01*
X145541166Y-75523811D02*
X145474500Y-75500001D01*
X145474500Y-75500001D02*
X145441166Y-75452382D01*
X145441166Y-75452382D02*
X145441166Y-75357144D01*
X145441166Y-75357144D02*
X145474500Y-75309525D01*
X145874500Y-75523811D02*
X145907833Y-75476192D01*
X145907833Y-75476192D02*
X145907833Y-75357144D01*
X145907833Y-75357144D02*
X145874500Y-75309525D01*
X145874500Y-75309525D02*
X145807833Y-75285716D01*
X145807833Y-75285716D02*
X145741166Y-75285716D01*
X145741166Y-75285716D02*
X145674500Y-75309525D01*
X145674500Y-75309525D02*
X145641166Y-75357144D01*
X145641166Y-75357144D02*
X145641166Y-75476192D01*
X145641166Y-75476192D02*
X145607833Y-75523811D01*
X145907833Y-75761906D02*
X145441166Y-75761906D01*
X145507833Y-75761906D02*
X145474500Y-75785716D01*
X145474500Y-75785716D02*
X145441166Y-75833335D01*
X145441166Y-75833335D02*
X145441166Y-75904763D01*
X145441166Y-75904763D02*
X145474500Y-75952382D01*
X145474500Y-75952382D02*
X145541166Y-75976192D01*
X145541166Y-75976192D02*
X145907833Y-75976192D01*
X145541166Y-75976192D02*
X145474500Y-76000001D01*
X145474500Y-76000001D02*
X145441166Y-76047620D01*
X145441166Y-76047620D02*
X145441166Y-76119049D01*
X145441166Y-76119049D02*
X145474500Y-76166668D01*
X145474500Y-76166668D02*
X145541166Y-76190478D01*
X145541166Y-76190478D02*
X145907833Y-76190478D01*
X145907833Y-76500002D02*
X145874500Y-76452383D01*
X145874500Y-76452383D02*
X145841166Y-76428573D01*
X145841166Y-76428573D02*
X145774500Y-76404764D01*
X145774500Y-76404764D02*
X145574500Y-76404764D01*
X145574500Y-76404764D02*
X145507833Y-76428573D01*
X145507833Y-76428573D02*
X145474500Y-76452383D01*
X145474500Y-76452383D02*
X145441166Y-76500002D01*
X145441166Y-76500002D02*
X145441166Y-76571430D01*
X145441166Y-76571430D02*
X145474500Y-76619049D01*
X145474500Y-76619049D02*
X145507833Y-76642859D01*
X145507833Y-76642859D02*
X145574500Y-76666668D01*
X145574500Y-76666668D02*
X145774500Y-76666668D01*
X145774500Y-76666668D02*
X145841166Y-76642859D01*
X145841166Y-76642859D02*
X145874500Y-76619049D01*
X145874500Y-76619049D02*
X145907833Y-76571430D01*
X145907833Y-76571430D02*
X145907833Y-76500002D01*
X145441166Y-77095240D02*
X145907833Y-77095240D01*
X145441166Y-76880954D02*
X145807833Y-76880954D01*
X145807833Y-76880954D02*
X145874500Y-76904764D01*
X145874500Y-76904764D02*
X145907833Y-76952383D01*
X145907833Y-76952383D02*
X145907833Y-77023811D01*
X145907833Y-77023811D02*
X145874500Y-77071430D01*
X145874500Y-77071430D02*
X145841166Y-77095240D01*
X145907833Y-77333335D02*
X145441166Y-77333335D01*
X145574500Y-77333335D02*
X145507833Y-77357145D01*
X145507833Y-77357145D02*
X145474500Y-77380954D01*
X145474500Y-77380954D02*
X145441166Y-77428573D01*
X145441166Y-77428573D02*
X145441166Y-77476192D01*
X145874500Y-77666669D02*
X145907833Y-77666669D01*
X145907833Y-77666669D02*
X145974500Y-77642859D01*
X145974500Y-77642859D02*
X146007833Y-77619050D01*
X145441166Y-78261906D02*
X146141166Y-78261906D01*
X145474500Y-78261906D02*
X145441166Y-78309525D01*
X145441166Y-78309525D02*
X145441166Y-78404763D01*
X145441166Y-78404763D02*
X145474500Y-78452382D01*
X145474500Y-78452382D02*
X145507833Y-78476192D01*
X145507833Y-78476192D02*
X145574500Y-78500001D01*
X145574500Y-78500001D02*
X145774500Y-78500001D01*
X145774500Y-78500001D02*
X145841166Y-78476192D01*
X145841166Y-78476192D02*
X145874500Y-78452382D01*
X145874500Y-78452382D02*
X145907833Y-78404763D01*
X145907833Y-78404763D02*
X145907833Y-78309525D01*
X145907833Y-78309525D02*
X145874500Y-78261906D01*
X145907833Y-78785716D02*
X145874500Y-78738097D01*
X145874500Y-78738097D02*
X145841166Y-78714287D01*
X145841166Y-78714287D02*
X145774500Y-78690478D01*
X145774500Y-78690478D02*
X145574500Y-78690478D01*
X145574500Y-78690478D02*
X145507833Y-78714287D01*
X145507833Y-78714287D02*
X145474500Y-78738097D01*
X145474500Y-78738097D02*
X145441166Y-78785716D01*
X145441166Y-78785716D02*
X145441166Y-78857144D01*
X145441166Y-78857144D02*
X145474500Y-78904763D01*
X145474500Y-78904763D02*
X145507833Y-78928573D01*
X145507833Y-78928573D02*
X145574500Y-78952382D01*
X145574500Y-78952382D02*
X145774500Y-78952382D01*
X145774500Y-78952382D02*
X145841166Y-78928573D01*
X145841166Y-78928573D02*
X145874500Y-78904763D01*
X145874500Y-78904763D02*
X145907833Y-78857144D01*
X145907833Y-78857144D02*
X145907833Y-78785716D01*
X145441166Y-79380954D02*
X145907833Y-79380954D01*
X145441166Y-79166668D02*
X145807833Y-79166668D01*
X145807833Y-79166668D02*
X145874500Y-79190478D01*
X145874500Y-79190478D02*
X145907833Y-79238097D01*
X145907833Y-79238097D02*
X145907833Y-79309525D01*
X145907833Y-79309525D02*
X145874500Y-79357144D01*
X145874500Y-79357144D02*
X145841166Y-79380954D01*
X145907833Y-79619049D02*
X145441166Y-79619049D01*
X145574500Y-79619049D02*
X145507833Y-79642859D01*
X145507833Y-79642859D02*
X145474500Y-79666668D01*
X145474500Y-79666668D02*
X145441166Y-79714287D01*
X145441166Y-79714287D02*
X145441166Y-79761906D01*
X145907833Y-80380954D02*
X145874500Y-80333335D01*
X145874500Y-80333335D02*
X145807833Y-80309525D01*
X145807833Y-80309525D02*
X145207833Y-80309525D01*
X145874500Y-80761906D02*
X145907833Y-80714287D01*
X145907833Y-80714287D02*
X145907833Y-80619049D01*
X145907833Y-80619049D02*
X145874500Y-80571430D01*
X145874500Y-80571430D02*
X145807833Y-80547621D01*
X145807833Y-80547621D02*
X145541166Y-80547621D01*
X145541166Y-80547621D02*
X145474500Y-80571430D01*
X145474500Y-80571430D02*
X145441166Y-80619049D01*
X145441166Y-80619049D02*
X145441166Y-80714287D01*
X145441166Y-80714287D02*
X145474500Y-80761906D01*
X145474500Y-80761906D02*
X145541166Y-80785716D01*
X145541166Y-80785716D02*
X145607833Y-80785716D01*
X145607833Y-80785716D02*
X145674500Y-80547621D01*
X145874500Y-80976192D02*
X145907833Y-81023811D01*
X145907833Y-81023811D02*
X145907833Y-81119049D01*
X145907833Y-81119049D02*
X145874500Y-81166668D01*
X145874500Y-81166668D02*
X145807833Y-81190477D01*
X145807833Y-81190477D02*
X145774500Y-81190477D01*
X145774500Y-81190477D02*
X145707833Y-81166668D01*
X145707833Y-81166668D02*
X145674500Y-81119049D01*
X145674500Y-81119049D02*
X145674500Y-81047620D01*
X145674500Y-81047620D02*
X145641166Y-81000001D01*
X145641166Y-81000001D02*
X145574500Y-80976192D01*
X145574500Y-80976192D02*
X145541166Y-80976192D01*
X145541166Y-80976192D02*
X145474500Y-81000001D01*
X145474500Y-81000001D02*
X145441166Y-81047620D01*
X145441166Y-81047620D02*
X145441166Y-81119049D01*
X145441166Y-81119049D02*
X145474500Y-81166668D01*
X145907833Y-82047620D02*
X145907833Y-81761906D01*
X145907833Y-81904763D02*
X145207833Y-81904763D01*
X145207833Y-81904763D02*
X145307833Y-81857144D01*
X145307833Y-81857144D02*
X145374500Y-81809525D01*
X145374500Y-81809525D02*
X145407833Y-81761906D01*
X145707833Y-82238096D02*
X145707833Y-82476191D01*
X145907833Y-82190477D02*
X145207833Y-82357143D01*
X145207833Y-82357143D02*
X145907833Y-82523810D01*
X145874500Y-82714286D02*
X145907833Y-82714286D01*
X145907833Y-82714286D02*
X145974500Y-82690476D01*
X145974500Y-82690476D02*
X146007833Y-82666667D01*
X145441166Y-83309523D02*
X146141166Y-83309523D01*
X145474500Y-83309523D02*
X145441166Y-83357142D01*
X145441166Y-83357142D02*
X145441166Y-83452380D01*
X145441166Y-83452380D02*
X145474500Y-83499999D01*
X145474500Y-83499999D02*
X145507833Y-83523809D01*
X145507833Y-83523809D02*
X145574500Y-83547618D01*
X145574500Y-83547618D02*
X145774500Y-83547618D01*
X145774500Y-83547618D02*
X145841166Y-83523809D01*
X145841166Y-83523809D02*
X145874500Y-83499999D01*
X145874500Y-83499999D02*
X145907833Y-83452380D01*
X145907833Y-83452380D02*
X145907833Y-83357142D01*
X145907833Y-83357142D02*
X145874500Y-83309523D01*
X145907833Y-83976190D02*
X145541166Y-83976190D01*
X145541166Y-83976190D02*
X145474500Y-83952380D01*
X145474500Y-83952380D02*
X145441166Y-83904761D01*
X145441166Y-83904761D02*
X145441166Y-83809523D01*
X145441166Y-83809523D02*
X145474500Y-83761904D01*
X145874500Y-83976190D02*
X145907833Y-83928571D01*
X145907833Y-83928571D02*
X145907833Y-83809523D01*
X145907833Y-83809523D02*
X145874500Y-83761904D01*
X145874500Y-83761904D02*
X145807833Y-83738095D01*
X145807833Y-83738095D02*
X145741166Y-83738095D01*
X145741166Y-83738095D02*
X145674500Y-83761904D01*
X145674500Y-83761904D02*
X145641166Y-83809523D01*
X145641166Y-83809523D02*
X145641166Y-83928571D01*
X145641166Y-83928571D02*
X145607833Y-83976190D01*
X145907833Y-84214285D02*
X145441166Y-84214285D01*
X145574500Y-84214285D02*
X145507833Y-84238095D01*
X145507833Y-84238095D02*
X145474500Y-84261904D01*
X145474500Y-84261904D02*
X145441166Y-84309523D01*
X145441166Y-84309523D02*
X145441166Y-84357142D01*
X145907833Y-84976190D02*
X145874500Y-84928571D01*
X145874500Y-84928571D02*
X145807833Y-84904761D01*
X145807833Y-84904761D02*
X145207833Y-84904761D01*
X145874500Y-85357142D02*
X145907833Y-85309523D01*
X145907833Y-85309523D02*
X145907833Y-85214285D01*
X145907833Y-85214285D02*
X145874500Y-85166666D01*
X145874500Y-85166666D02*
X145807833Y-85142857D01*
X145807833Y-85142857D02*
X145541166Y-85142857D01*
X145541166Y-85142857D02*
X145474500Y-85166666D01*
X145474500Y-85166666D02*
X145441166Y-85214285D01*
X145441166Y-85214285D02*
X145441166Y-85309523D01*
X145441166Y-85309523D02*
X145474500Y-85357142D01*
X145474500Y-85357142D02*
X145541166Y-85380952D01*
X145541166Y-85380952D02*
X145607833Y-85380952D01*
X145607833Y-85380952D02*
X145674500Y-85142857D01*
X145874500Y-85571428D02*
X145907833Y-85619047D01*
X145907833Y-85619047D02*
X145907833Y-85714285D01*
X145907833Y-85714285D02*
X145874500Y-85761904D01*
X145874500Y-85761904D02*
X145807833Y-85785713D01*
X145807833Y-85785713D02*
X145774500Y-85785713D01*
X145774500Y-85785713D02*
X145707833Y-85761904D01*
X145707833Y-85761904D02*
X145674500Y-85714285D01*
X145674500Y-85714285D02*
X145674500Y-85642856D01*
X145674500Y-85642856D02*
X145641166Y-85595237D01*
X145641166Y-85595237D02*
X145574500Y-85571428D01*
X145574500Y-85571428D02*
X145541166Y-85571428D01*
X145541166Y-85571428D02*
X145474500Y-85595237D01*
X145474500Y-85595237D02*
X145441166Y-85642856D01*
X145441166Y-85642856D02*
X145441166Y-85714285D01*
X145441166Y-85714285D02*
X145474500Y-85761904D01*
X145441166Y-86333332D02*
X145907833Y-86452380D01*
X145907833Y-86452380D02*
X145441166Y-86571427D01*
X145907833Y-86761903D02*
X145441166Y-86761903D01*
X145207833Y-86761903D02*
X145241166Y-86738094D01*
X145241166Y-86738094D02*
X145274500Y-86761903D01*
X145274500Y-86761903D02*
X145241166Y-86785713D01*
X145241166Y-86785713D02*
X145207833Y-86761903D01*
X145207833Y-86761903D02*
X145274500Y-86761903D01*
X145874500Y-87190474D02*
X145907833Y-87142855D01*
X145907833Y-87142855D02*
X145907833Y-87047617D01*
X145907833Y-87047617D02*
X145874500Y-86999998D01*
X145874500Y-86999998D02*
X145807833Y-86976189D01*
X145807833Y-86976189D02*
X145541166Y-86976189D01*
X145541166Y-86976189D02*
X145474500Y-86999998D01*
X145474500Y-86999998D02*
X145441166Y-87047617D01*
X145441166Y-87047617D02*
X145441166Y-87142855D01*
X145441166Y-87142855D02*
X145474500Y-87190474D01*
X145474500Y-87190474D02*
X145541166Y-87214284D01*
X145541166Y-87214284D02*
X145607833Y-87214284D01*
X145607833Y-87214284D02*
X145674500Y-86976189D01*
X145441166Y-87642855D02*
X145907833Y-87642855D01*
X145441166Y-87428569D02*
X145807833Y-87428569D01*
X145807833Y-87428569D02*
X145874500Y-87452379D01*
X145874500Y-87452379D02*
X145907833Y-87499998D01*
X145907833Y-87499998D02*
X145907833Y-87571426D01*
X145907833Y-87571426D02*
X145874500Y-87619045D01*
X145874500Y-87619045D02*
X145841166Y-87642855D01*
X145907833Y-87833331D02*
X145441166Y-88095236D01*
X145441166Y-87833331D02*
X145907833Y-88095236D01*
X146174500Y-90333329D02*
X146141166Y-90309520D01*
X146141166Y-90309520D02*
X146041166Y-90261901D01*
X146041166Y-90261901D02*
X145974500Y-90238091D01*
X145974500Y-90238091D02*
X145874500Y-90214282D01*
X145874500Y-90214282D02*
X145707833Y-90190472D01*
X145707833Y-90190472D02*
X145574500Y-90190472D01*
X145574500Y-90190472D02*
X145407833Y-90214282D01*
X145407833Y-90214282D02*
X145307833Y-90238091D01*
X145307833Y-90238091D02*
X145241166Y-90261901D01*
X145241166Y-90261901D02*
X145141166Y-90309520D01*
X145141166Y-90309520D02*
X145107833Y-90333329D01*
X145707833Y-90499996D02*
X145707833Y-90738091D01*
X145907833Y-90452377D02*
X145207833Y-90619043D01*
X145207833Y-90619043D02*
X145907833Y-90785710D01*
X145841166Y-91238090D02*
X145874500Y-91214281D01*
X145874500Y-91214281D02*
X145907833Y-91142852D01*
X145907833Y-91142852D02*
X145907833Y-91095233D01*
X145907833Y-91095233D02*
X145874500Y-91023805D01*
X145874500Y-91023805D02*
X145807833Y-90976186D01*
X145807833Y-90976186D02*
X145741166Y-90952376D01*
X145741166Y-90952376D02*
X145607833Y-90928567D01*
X145607833Y-90928567D02*
X145507833Y-90928567D01*
X145507833Y-90928567D02*
X145374500Y-90952376D01*
X145374500Y-90952376D02*
X145307833Y-90976186D01*
X145307833Y-90976186D02*
X145241166Y-91023805D01*
X145241166Y-91023805D02*
X145207833Y-91095233D01*
X145207833Y-91095233D02*
X145207833Y-91142852D01*
X145207833Y-91142852D02*
X145241166Y-91214281D01*
X145241166Y-91214281D02*
X145274500Y-91238090D01*
X146174500Y-91404757D02*
X146141166Y-91428567D01*
X146141166Y-91428567D02*
X146041166Y-91476186D01*
X146041166Y-91476186D02*
X145974500Y-91499995D01*
X145974500Y-91499995D02*
X145874500Y-91523805D01*
X145874500Y-91523805D02*
X145707833Y-91547614D01*
X145707833Y-91547614D02*
X145574500Y-91547614D01*
X145574500Y-91547614D02*
X145407833Y-91523805D01*
X145407833Y-91523805D02*
X145307833Y-91499995D01*
X145307833Y-91499995D02*
X145241166Y-91476186D01*
X145241166Y-91476186D02*
X145141166Y-91428567D01*
X145141166Y-91428567D02*
X145107833Y-91404757D01*
X161041166Y-91567950D02*
X161074500Y-91639378D01*
X161074500Y-91639378D02*
X161107833Y-91663188D01*
X161107833Y-91663188D02*
X161174500Y-91686997D01*
X161174500Y-91686997D02*
X161274500Y-91686997D01*
X161274500Y-91686997D02*
X161341166Y-91663188D01*
X161341166Y-91663188D02*
X161374500Y-91639378D01*
X161374500Y-91639378D02*
X161407833Y-91591759D01*
X161407833Y-91591759D02*
X161407833Y-91401283D01*
X161407833Y-91401283D02*
X160707833Y-91401283D01*
X160707833Y-91401283D02*
X160707833Y-91567950D01*
X160707833Y-91567950D02*
X160741166Y-91615569D01*
X160741166Y-91615569D02*
X160774500Y-91639378D01*
X160774500Y-91639378D02*
X160841166Y-91663188D01*
X160841166Y-91663188D02*
X160907833Y-91663188D01*
X160907833Y-91663188D02*
X160974500Y-91639378D01*
X160974500Y-91639378D02*
X161007833Y-91615569D01*
X161007833Y-91615569D02*
X161041166Y-91567950D01*
X161041166Y-91567950D02*
X161041166Y-91401283D01*
X160707833Y-91829855D02*
X160707833Y-92115569D01*
X161407833Y-91972712D02*
X160707833Y-91972712D01*
X161407833Y-92282235D02*
X160707833Y-92282235D01*
X160707833Y-92282235D02*
X161407833Y-92567949D01*
X161407833Y-92567949D02*
X160707833Y-92567949D01*
X161474500Y-92686998D02*
X161474500Y-93067950D01*
X161374500Y-93377473D02*
X161407833Y-93329854D01*
X161407833Y-93329854D02*
X161407833Y-93234616D01*
X161407833Y-93234616D02*
X161374500Y-93186997D01*
X161374500Y-93186997D02*
X161307833Y-93163188D01*
X161307833Y-93163188D02*
X161041166Y-93163188D01*
X161041166Y-93163188D02*
X160974500Y-93186997D01*
X160974500Y-93186997D02*
X160941166Y-93234616D01*
X160941166Y-93234616D02*
X160941166Y-93329854D01*
X160941166Y-93329854D02*
X160974500Y-93377473D01*
X160974500Y-93377473D02*
X161041166Y-93401283D01*
X161041166Y-93401283D02*
X161107833Y-93401283D01*
X161107833Y-93401283D02*
X161174500Y-93163188D01*
X160941166Y-93829854D02*
X161641166Y-93829854D01*
X161374500Y-93829854D02*
X161407833Y-93782235D01*
X161407833Y-93782235D02*
X161407833Y-93686997D01*
X161407833Y-93686997D02*
X161374500Y-93639378D01*
X161374500Y-93639378D02*
X161341166Y-93615568D01*
X161341166Y-93615568D02*
X161274500Y-93591759D01*
X161274500Y-93591759D02*
X161074500Y-93591759D01*
X161074500Y-93591759D02*
X161007833Y-93615568D01*
X161007833Y-93615568D02*
X160974500Y-93639378D01*
X160974500Y-93639378D02*
X160941166Y-93686997D01*
X160941166Y-93686997D02*
X160941166Y-93782235D01*
X160941166Y-93782235D02*
X160974500Y-93829854D01*
X160941166Y-94282235D02*
X161407833Y-94282235D01*
X160941166Y-94067949D02*
X161307833Y-94067949D01*
X161307833Y-94067949D02*
X161374500Y-94091759D01*
X161374500Y-94091759D02*
X161407833Y-94139378D01*
X161407833Y-94139378D02*
X161407833Y-94210806D01*
X161407833Y-94210806D02*
X161374500Y-94258425D01*
X161374500Y-94258425D02*
X161341166Y-94282235D01*
X161407833Y-94520330D02*
X160941166Y-94520330D01*
X160707833Y-94520330D02*
X160741166Y-94496521D01*
X160741166Y-94496521D02*
X160774500Y-94520330D01*
X160774500Y-94520330D02*
X160741166Y-94544140D01*
X160741166Y-94544140D02*
X160707833Y-94520330D01*
X160707833Y-94520330D02*
X160774500Y-94520330D01*
X160941166Y-94758425D02*
X161641166Y-94758425D01*
X160974500Y-94758425D02*
X160941166Y-94806044D01*
X160941166Y-94806044D02*
X160941166Y-94901282D01*
X160941166Y-94901282D02*
X160974500Y-94948901D01*
X160974500Y-94948901D02*
X161007833Y-94972711D01*
X161007833Y-94972711D02*
X161074500Y-94996520D01*
X161074500Y-94996520D02*
X161274500Y-94996520D01*
X161274500Y-94996520D02*
X161341166Y-94972711D01*
X161341166Y-94972711D02*
X161374500Y-94948901D01*
X161374500Y-94948901D02*
X161407833Y-94901282D01*
X161407833Y-94901282D02*
X161407833Y-94806044D01*
X161407833Y-94806044D02*
X161374500Y-94758425D01*
X161374500Y-95401282D02*
X161407833Y-95353663D01*
X161407833Y-95353663D02*
X161407833Y-95258425D01*
X161407833Y-95258425D02*
X161374500Y-95210806D01*
X161374500Y-95210806D02*
X161307833Y-95186997D01*
X161307833Y-95186997D02*
X161041166Y-95186997D01*
X161041166Y-95186997D02*
X160974500Y-95210806D01*
X160974500Y-95210806D02*
X160941166Y-95258425D01*
X160941166Y-95258425D02*
X160941166Y-95353663D01*
X160941166Y-95353663D02*
X160974500Y-95401282D01*
X160974500Y-95401282D02*
X161041166Y-95425092D01*
X161041166Y-95425092D02*
X161107833Y-95425092D01*
X161107833Y-95425092D02*
X161174500Y-95186997D01*
X161674500Y-96163186D02*
X161641166Y-96139377D01*
X161641166Y-96139377D02*
X161541166Y-96091758D01*
X161541166Y-96091758D02*
X161474500Y-96067948D01*
X161474500Y-96067948D02*
X161374500Y-96044139D01*
X161374500Y-96044139D02*
X161207833Y-96020329D01*
X161207833Y-96020329D02*
X161074500Y-96020329D01*
X161074500Y-96020329D02*
X160907833Y-96044139D01*
X160907833Y-96044139D02*
X160807833Y-96067948D01*
X160807833Y-96067948D02*
X160741166Y-96091758D01*
X160741166Y-96091758D02*
X160641166Y-96139377D01*
X160641166Y-96139377D02*
X160607833Y-96163186D01*
X160741166Y-96615567D02*
X160707833Y-96567948D01*
X160707833Y-96567948D02*
X160707833Y-96496519D01*
X160707833Y-96496519D02*
X160741166Y-96425091D01*
X160741166Y-96425091D02*
X160807833Y-96377472D01*
X160807833Y-96377472D02*
X160874500Y-96353662D01*
X160874500Y-96353662D02*
X161007833Y-96329853D01*
X161007833Y-96329853D02*
X161107833Y-96329853D01*
X161107833Y-96329853D02*
X161241166Y-96353662D01*
X161241166Y-96353662D02*
X161307833Y-96377472D01*
X161307833Y-96377472D02*
X161374500Y-96425091D01*
X161374500Y-96425091D02*
X161407833Y-96496519D01*
X161407833Y-96496519D02*
X161407833Y-96544138D01*
X161407833Y-96544138D02*
X161374500Y-96615567D01*
X161374500Y-96615567D02*
X161341166Y-96639376D01*
X161341166Y-96639376D02*
X161107833Y-96639376D01*
X161107833Y-96639376D02*
X161107833Y-96544138D01*
X161407833Y-96853662D02*
X160707833Y-96853662D01*
X160707833Y-96853662D02*
X161407833Y-97139376D01*
X161407833Y-97139376D02*
X160707833Y-97139376D01*
X161407833Y-97377472D02*
X160707833Y-97377472D01*
X160707833Y-97377472D02*
X160707833Y-97496520D01*
X160707833Y-97496520D02*
X160741166Y-97567948D01*
X160741166Y-97567948D02*
X160807833Y-97615567D01*
X160807833Y-97615567D02*
X160874500Y-97639377D01*
X160874500Y-97639377D02*
X161007833Y-97663186D01*
X161007833Y-97663186D02*
X161107833Y-97663186D01*
X161107833Y-97663186D02*
X161241166Y-97639377D01*
X161241166Y-97639377D02*
X161307833Y-97615567D01*
X161307833Y-97615567D02*
X161374500Y-97567948D01*
X161374500Y-97567948D02*
X161407833Y-97496520D01*
X161407833Y-97496520D02*
X161407833Y-97377472D01*
X161374500Y-97901282D02*
X161407833Y-97901282D01*
X161407833Y-97901282D02*
X161474500Y-97877472D01*
X161474500Y-97877472D02*
X161507833Y-97853663D01*
X161407833Y-98496519D02*
X160707833Y-98496519D01*
X160707833Y-98496519D02*
X160707833Y-98615567D01*
X160707833Y-98615567D02*
X160741166Y-98686995D01*
X160741166Y-98686995D02*
X160807833Y-98734614D01*
X160807833Y-98734614D02*
X160874500Y-98758424D01*
X160874500Y-98758424D02*
X161007833Y-98782233D01*
X161007833Y-98782233D02*
X161107833Y-98782233D01*
X161107833Y-98782233D02*
X161241166Y-98758424D01*
X161241166Y-98758424D02*
X161307833Y-98734614D01*
X161307833Y-98734614D02*
X161374500Y-98686995D01*
X161374500Y-98686995D02*
X161407833Y-98615567D01*
X161407833Y-98615567D02*
X161407833Y-98496519D01*
X161407833Y-99258424D02*
X161407833Y-98972710D01*
X161407833Y-99115567D02*
X160707833Y-99115567D01*
X160707833Y-99115567D02*
X160807833Y-99067948D01*
X160807833Y-99067948D02*
X160874500Y-99020329D01*
X160874500Y-99020329D02*
X160907833Y-98972710D01*
X160707833Y-99425090D02*
X160707833Y-99734614D01*
X160707833Y-99734614D02*
X160974500Y-99567947D01*
X160974500Y-99567947D02*
X160974500Y-99639376D01*
X160974500Y-99639376D02*
X161007833Y-99686995D01*
X161007833Y-99686995D02*
X161041166Y-99710804D01*
X161041166Y-99710804D02*
X161107833Y-99734614D01*
X161107833Y-99734614D02*
X161274500Y-99734614D01*
X161274500Y-99734614D02*
X161341166Y-99710804D01*
X161341166Y-99710804D02*
X161374500Y-99686995D01*
X161374500Y-99686995D02*
X161407833Y-99639376D01*
X161407833Y-99639376D02*
X161407833Y-99496519D01*
X161407833Y-99496519D02*
X161374500Y-99448900D01*
X161374500Y-99448900D02*
X161341166Y-99425090D01*
X161674500Y-99901280D02*
X161641166Y-99925090D01*
X161641166Y-99925090D02*
X161541166Y-99972709D01*
X161541166Y-99972709D02*
X161474500Y-99996518D01*
X161474500Y-99996518D02*
X161374500Y-100020328D01*
X161374500Y-100020328D02*
X161207833Y-100044137D01*
X161207833Y-100044137D02*
X161074500Y-100044137D01*
X161074500Y-100044137D02*
X160907833Y-100020328D01*
X160907833Y-100020328D02*
X160807833Y-99996518D01*
X160807833Y-99996518D02*
X160741166Y-99972709D01*
X160741166Y-99972709D02*
X160641166Y-99925090D01*
X160641166Y-99925090D02*
X160607833Y-99901280D01*
M02*
