%TF.GenerationSoftware,KiCad,Pcbnew,8.0.3*%
%TF.CreationDate,2024-09-13T10:49:28+02:00*%
%TF.ProjectId,pcb_robot,7063625f-726f-4626-9f74-2e6b69636164,rev?*%
%TF.SameCoordinates,Original*%
%TF.FileFunction,Copper,L2,Bot*%
%TF.FilePolarity,Positive*%
%FSLAX46Y46*%
G04 Gerber Fmt 4.6, Leading zero omitted, Abs format (unit mm)*
G04 Created by KiCad (PCBNEW 8.0.3) date 2024-09-13 10:49:28*
%MOMM*%
%LPD*%
G01*
G04 APERTURE LIST*
G04 Aperture macros list*
%AMRoundRect*
0 Rectangle with rounded corners*
0 $1 Rounding radius*
0 $2 $3 $4 $5 $6 $7 $8 $9 X,Y pos of 4 corners*
0 Add a 4 corners polygon primitive as box body*
4,1,4,$2,$3,$4,$5,$6,$7,$8,$9,$2,$3,0*
0 Add four circle primitives for the rounded corners*
1,1,$1+$1,$2,$3*
1,1,$1+$1,$4,$5*
1,1,$1+$1,$6,$7*
1,1,$1+$1,$8,$9*
0 Add four rect primitives between the rounded corners*
20,1,$1+$1,$2,$3,$4,$5,0*
20,1,$1+$1,$4,$5,$6,$7,0*
20,1,$1+$1,$6,$7,$8,$9,0*
20,1,$1+$1,$8,$9,$2,$3,0*%
G04 Aperture macros list end*
%TA.AperFunction,ComponentPad*%
%ADD10R,1.700000X1.700000*%
%TD*%
%TA.AperFunction,ComponentPad*%
%ADD11O,1.700000X1.700000*%
%TD*%
%TA.AperFunction,ComponentPad*%
%ADD12RoundRect,0.250000X-0.750000X0.600000X-0.750000X-0.600000X0.750000X-0.600000X0.750000X0.600000X0*%
%TD*%
%TA.AperFunction,ComponentPad*%
%ADD13O,2.000000X1.700000*%
%TD*%
%TA.AperFunction,ComponentPad*%
%ADD14C,1.800000*%
%TD*%
%TA.AperFunction,ComponentPad*%
%ADD15R,1.800000X1.800000*%
%TD*%
%TA.AperFunction,ComponentPad*%
%ADD16C,1.600000*%
%TD*%
%TA.AperFunction,ComponentPad*%
%ADD17O,1.600000X1.600000*%
%TD*%
%TA.AperFunction,ComponentPad*%
%ADD18R,1.600000X1.600000*%
%TD*%
G04 APERTURE END LIST*
D10*
%TO.P,J6,1,Pin_1*%
%TO.N,Net-(A1-D13)*%
X155503632Y-94025000D03*
D11*
%TO.P,J6,2,Pin_2*%
%TO.N,GND*%
X155503632Y-96565000D03*
%TD*%
%TO.P,J7,4,Pin_4*%
%TO.N,Net-(A1-D4)*%
X155500000Y-70345000D03*
%TO.P,J7,3,Pin_3*%
%TO.N,Net-(A1-D5)*%
X155500000Y-67805000D03*
%TO.P,J7,2,Pin_2*%
%TO.N,Net-(A1-+5V)*%
X155500000Y-65265000D03*
D10*
%TO.P,J7,1,Pin_1*%
%TO.N,GND*%
X155500000Y-62725000D03*
%TD*%
%TO.P,J4,1,Pin_1*%
%TO.N,Net-(A1-VIN)*%
X126625000Y-70475000D03*
D11*
%TO.P,J4,2,Pin_2*%
%TO.N,Net-(J4-Pin_2)*%
X129165000Y-70475000D03*
%TD*%
D10*
%TO.P,J3,1,Pin_1*%
%TO.N,GND*%
X155500000Y-75000000D03*
D11*
%TO.P,J3,2,Pin_2*%
%TO.N,Net-(A1-VIN)*%
X155500000Y-77540000D03*
%TO.P,J3,3,Pin_3*%
%TO.N,Net-(A1-A1)*%
X155500000Y-80080000D03*
%TD*%
D12*
%TO.P,J5,1,Pin_1*%
%TO.N,GND*%
X124400000Y-79500000D03*
D13*
%TO.P,J5,2,Pin_2*%
%TO.N,Net-(J5-Pin_2)*%
X124400000Y-82000000D03*
%TD*%
D14*
%TO.P,D1,2,A*%
%TO.N,Net-(A1-D10)*%
X128900000Y-91860000D03*
D15*
%TO.P,D1,1,K*%
%TO.N,Net-(D1-K)*%
X128900000Y-94400000D03*
%TD*%
D14*
%TO.P,D2,2,A*%
%TO.N,Net-(A1-D11)*%
X128900000Y-99890000D03*
D15*
%TO.P,D2,1,K*%
%TO.N,Net-(D1-K)*%
X128900000Y-97350000D03*
%TD*%
D16*
%TO.P,F1,1*%
%TO.N,Net-(J5-Pin_2)*%
X129100000Y-87250000D03*
D17*
%TO.P,F1,2*%
%TO.N,Net-(J4-Pin_2)*%
X129100000Y-74550000D03*
%TD*%
D11*
%TO.P,J2,3,Pin_3*%
%TO.N,Net-(A1-A0)*%
X155500000Y-89595000D03*
%TO.P,J2,2,Pin_2*%
%TO.N,Net-(A1-VIN)*%
X155500000Y-87055000D03*
D10*
%TO.P,J2,1,Pin_1*%
%TO.N,GND*%
X155500000Y-84515000D03*
%TD*%
D17*
%TO.P,A1,30,VIN*%
%TO.N,Net-(A1-VIN)*%
X150230000Y-62750000D03*
%TO.P,A1,29,GND*%
%TO.N,GND*%
X150230000Y-65290000D03*
%TO.P,A1,28,~{RESET}*%
%TO.N,unconnected-(A1-~{RESET}-Pad28)*%
X150230000Y-67830000D03*
%TO.P,A1,27,+5V*%
%TO.N,Net-(A1-+5V)*%
X150230000Y-70370000D03*
%TO.P,A1,26,A7*%
%TO.N,unconnected-(A1-A7-Pad26)*%
X150230000Y-72910000D03*
%TO.P,A1,25,A6*%
%TO.N,unconnected-(A1-A6-Pad25)*%
X150230000Y-75450000D03*
%TO.P,A1,24,A5*%
%TO.N,unconnected-(A1-A5-Pad24)*%
X150230000Y-77990000D03*
%TO.P,A1,23,A4*%
%TO.N,unconnected-(A1-A4-Pad23)*%
X150230000Y-80530000D03*
%TO.P,A1,22,A3*%
%TO.N,unconnected-(A1-A3-Pad22)*%
X150230000Y-83070000D03*
%TO.P,A1,21,A2*%
%TO.N,unconnected-(A1-A2-Pad21)*%
X150230000Y-85610000D03*
%TO.P,A1,20,A1*%
%TO.N,Net-(A1-A1)*%
X150230000Y-88150000D03*
%TO.P,A1,19,A0*%
%TO.N,Net-(A1-A0)*%
X150230000Y-90690000D03*
%TO.P,A1,18,AREF*%
%TO.N,unconnected-(A1-AREF-Pad18)*%
X150230000Y-93230000D03*
%TO.P,A1,17,3V3*%
%TO.N,unconnected-(A1-3V3-Pad17)*%
X150230000Y-95770000D03*
%TO.P,A1,16,D13*%
%TO.N,Net-(A1-D13)*%
X150230000Y-98310000D03*
%TO.P,A1,15,D12*%
%TO.N,unconnected-(A1-D12-Pad15)*%
X134990000Y-98310000D03*
%TO.P,A1,14,D11*%
%TO.N,Net-(A1-D11)*%
X134990000Y-95770000D03*
%TO.P,A1,13,D10*%
%TO.N,Net-(A1-D10)*%
X134990000Y-93230000D03*
%TO.P,A1,12,D9*%
%TO.N,unconnected-(A1-D9-Pad12)*%
X134990000Y-90690000D03*
%TO.P,A1,11,D8*%
%TO.N,unconnected-(A1-D8-Pad11)*%
X134990000Y-88150000D03*
%TO.P,A1,10,D7*%
%TO.N,unconnected-(A1-D7-Pad10)*%
X134990000Y-85610000D03*
%TO.P,A1,9,D6*%
%TO.N,unconnected-(A1-D6-Pad9)*%
X134990000Y-83070000D03*
%TO.P,A1,8,D5*%
%TO.N,Net-(A1-D5)*%
X134990000Y-80530000D03*
%TO.P,A1,7,D4*%
%TO.N,Net-(A1-D4)*%
X134990000Y-77990000D03*
%TO.P,A1,6,D3*%
%TO.N,unconnected-(A1-D3-Pad6)*%
X134990000Y-75450000D03*
%TO.P,A1,5,D2*%
%TO.N,unconnected-(A1-D2-Pad5)*%
X134990000Y-72910000D03*
%TO.P,A1,4,GND*%
%TO.N,GND*%
X134990000Y-70370000D03*
%TO.P,A1,3,~{RESET}*%
%TO.N,unconnected-(A1-~{RESET}-Pad3)*%
X134990000Y-67830000D03*
%TO.P,A1,2,D0/RX*%
%TO.N,unconnected-(A1-D0{slash}RX-Pad2)*%
X134990000Y-65290000D03*
D18*
%TO.P,A1,1,D1/TX*%
%TO.N,unconnected-(A1-D1{slash}TX-Pad1)*%
X134990000Y-62750000D03*
%TD*%
%TA.AperFunction,Conductor*%
%TO.N,GND*%
G36*
X162903243Y-58395118D02*
G01*
X163218079Y-58411619D01*
X163230987Y-58412976D01*
X163539169Y-58461787D01*
X163551830Y-58464477D01*
X163853250Y-58545242D01*
X163865571Y-58549246D01*
X164156881Y-58661070D01*
X164168717Y-58666339D01*
X164446753Y-58808005D01*
X164457959Y-58814475D01*
X164719660Y-58984426D01*
X164730150Y-58992048D01*
X164972638Y-59188410D01*
X164982283Y-59197095D01*
X165202904Y-59417716D01*
X165211589Y-59427361D01*
X165407956Y-59669854D01*
X165415575Y-59680343D01*
X165585515Y-59942027D01*
X165592001Y-59953260D01*
X165733655Y-60231272D01*
X165738934Y-60243129D01*
X165850750Y-60534419D01*
X165854760Y-60546761D01*
X165858016Y-60558913D01*
X165935517Y-60848149D01*
X165938215Y-60860845D01*
X165987023Y-61169012D01*
X165988380Y-61181920D01*
X166004881Y-61496756D01*
X166005051Y-61503246D01*
X166005051Y-102996753D01*
X166004881Y-103003243D01*
X165988380Y-103318079D01*
X165987023Y-103330987D01*
X165938215Y-103639154D01*
X165935517Y-103651850D01*
X165854761Y-103953236D01*
X165850750Y-103965580D01*
X165738934Y-104256870D01*
X165733655Y-104268727D01*
X165592001Y-104546740D01*
X165585515Y-104557973D01*
X165585506Y-104557988D01*
X165415580Y-104819650D01*
X165407951Y-104830150D01*
X165211589Y-105072638D01*
X165202904Y-105082283D01*
X164982283Y-105302904D01*
X164972638Y-105311589D01*
X164730150Y-105507951D01*
X164719650Y-105515580D01*
X164457973Y-105685515D01*
X164446740Y-105692001D01*
X164168727Y-105833655D01*
X164156870Y-105838934D01*
X163865580Y-105950750D01*
X163853236Y-105954761D01*
X163551850Y-106035517D01*
X163539154Y-106038215D01*
X163230987Y-106087023D01*
X163218079Y-106088380D01*
X162903244Y-106104881D01*
X162896754Y-106105051D01*
X124279046Y-106105051D01*
X124279030Y-106105050D01*
X124208786Y-106105050D01*
X124202298Y-106104880D01*
X123887469Y-106088385D01*
X123874561Y-106087029D01*
X123566374Y-106038221D01*
X123553678Y-106035522D01*
X123252294Y-105954771D01*
X123239950Y-105950760D01*
X122948661Y-105838948D01*
X122936803Y-105833669D01*
X122936776Y-105833655D01*
X122658784Y-105692015D01*
X122647566Y-105685539D01*
X122385866Y-105515593D01*
X122375369Y-105507966D01*
X122132879Y-105311604D01*
X122123234Y-105302919D01*
X121902609Y-105082298D01*
X121893923Y-105072652D01*
X121697561Y-104830168D01*
X121689932Y-104819668D01*
X121689920Y-104819650D01*
X121519989Y-104557981D01*
X121513503Y-104546747D01*
X121371844Y-104268727D01*
X121366574Y-104256892D01*
X121254751Y-103965584D01*
X121250742Y-103953246D01*
X121250739Y-103953236D01*
X121169981Y-103651847D01*
X121167285Y-103639157D01*
X121155996Y-103567883D01*
X121118476Y-103330987D01*
X121117119Y-103318082D01*
X121100670Y-103004216D01*
X121100500Y-102997726D01*
X121100500Y-91859993D01*
X127494700Y-91859993D01*
X127494700Y-91860006D01*
X127513864Y-92091297D01*
X127513866Y-92091308D01*
X127570842Y-92316300D01*
X127664075Y-92528848D01*
X127791016Y-92723147D01*
X127791019Y-92723151D01*
X127791021Y-92723153D01*
X127885803Y-92826114D01*
X127916724Y-92888767D01*
X127908864Y-92958193D01*
X127864716Y-93012348D01*
X127837906Y-93026277D01*
X127757669Y-93056203D01*
X127757664Y-93056206D01*
X127642455Y-93142452D01*
X127642452Y-93142455D01*
X127556206Y-93257664D01*
X127556202Y-93257671D01*
X127505908Y-93392517D01*
X127499501Y-93452116D01*
X127499501Y-93452123D01*
X127499500Y-93452135D01*
X127499500Y-95347870D01*
X127499501Y-95347876D01*
X127505908Y-95407483D01*
X127556202Y-95542328D01*
X127556206Y-95542335D01*
X127642452Y-95657544D01*
X127642455Y-95657547D01*
X127757664Y-95743793D01*
X127757671Y-95743797D01*
X127797944Y-95758818D01*
X127853878Y-95800689D01*
X127878295Y-95866153D01*
X127863443Y-95934426D01*
X127814038Y-95983832D01*
X127797944Y-95991182D01*
X127757671Y-96006202D01*
X127757664Y-96006206D01*
X127642455Y-96092452D01*
X127642452Y-96092455D01*
X127556206Y-96207664D01*
X127556202Y-96207671D01*
X127505908Y-96342517D01*
X127502738Y-96372007D01*
X127499501Y-96402123D01*
X127499500Y-96402135D01*
X127499500Y-98297870D01*
X127499501Y-98297876D01*
X127505908Y-98357483D01*
X127556202Y-98492328D01*
X127556206Y-98492335D01*
X127642452Y-98607544D01*
X127642455Y-98607547D01*
X127757664Y-98693793D01*
X127757673Y-98693798D01*
X127837904Y-98723722D01*
X127893838Y-98765593D01*
X127918256Y-98831057D01*
X127903405Y-98899330D01*
X127885802Y-98923886D01*
X127791019Y-99026849D01*
X127664075Y-99221151D01*
X127570842Y-99433699D01*
X127513866Y-99658691D01*
X127513864Y-99658702D01*
X127494700Y-99889993D01*
X127494700Y-99890006D01*
X127513864Y-100121297D01*
X127513866Y-100121308D01*
X127570842Y-100346300D01*
X127664075Y-100558848D01*
X127791016Y-100753147D01*
X127791019Y-100753151D01*
X127791021Y-100753153D01*
X127948216Y-100923913D01*
X127948219Y-100923915D01*
X127948222Y-100923918D01*
X128131365Y-101066464D01*
X128131371Y-101066468D01*
X128131374Y-101066470D01*
X128335497Y-101176936D01*
X128449487Y-101216068D01*
X128555015Y-101252297D01*
X128555017Y-101252297D01*
X128555019Y-101252298D01*
X128783951Y-101290500D01*
X128783952Y-101290500D01*
X129016048Y-101290500D01*
X129016049Y-101290500D01*
X129244981Y-101252298D01*
X129464503Y-101176936D01*
X129668626Y-101066470D01*
X129851784Y-100923913D01*
X130008979Y-100753153D01*
X130135924Y-100558849D01*
X130229157Y-100346300D01*
X130286134Y-100121305D01*
X130305300Y-99890000D01*
X130305300Y-99889993D01*
X130286135Y-99658702D01*
X130286133Y-99658691D01*
X130229157Y-99433699D01*
X130135924Y-99221151D01*
X130008983Y-99026852D01*
X130008980Y-99026849D01*
X130008979Y-99026847D01*
X129914195Y-98923884D01*
X129883275Y-98861232D01*
X129891135Y-98791806D01*
X129935283Y-98737651D01*
X129962095Y-98723722D01*
X130042326Y-98693798D01*
X130042326Y-98693797D01*
X130042331Y-98693796D01*
X130157546Y-98607546D01*
X130243796Y-98492331D01*
X130294091Y-98357483D01*
X130300500Y-98297873D01*
X130300499Y-96402128D01*
X130294091Y-96342517D01*
X130283827Y-96314999D01*
X130243797Y-96207671D01*
X130243793Y-96207664D01*
X130157547Y-96092455D01*
X130157544Y-96092452D01*
X130042335Y-96006206D01*
X130042326Y-96006201D01*
X130002056Y-95991182D01*
X129946122Y-95949312D01*
X129921704Y-95883847D01*
X129936555Y-95815574D01*
X129985960Y-95766168D01*
X130002056Y-95758818D01*
X130042326Y-95743798D01*
X130042326Y-95743797D01*
X130042331Y-95743796D01*
X130157546Y-95657546D01*
X130243796Y-95542331D01*
X130294091Y-95407483D01*
X130300500Y-95347873D01*
X130300499Y-93452128D01*
X130294091Y-93392517D01*
X130243796Y-93257669D01*
X130243795Y-93257668D01*
X130243793Y-93257664D01*
X130157547Y-93142455D01*
X130157544Y-93142452D01*
X130042335Y-93056206D01*
X130042328Y-93056202D01*
X129962094Y-93026277D01*
X129906160Y-92984406D01*
X129881743Y-92918941D01*
X129896595Y-92850668D01*
X129914190Y-92826121D01*
X130008979Y-92723153D01*
X130135924Y-92528849D01*
X130229157Y-92316300D01*
X130286134Y-92091305D01*
X130291528Y-92026210D01*
X130305300Y-91860006D01*
X130305300Y-91859993D01*
X130286135Y-91628702D01*
X130286133Y-91628691D01*
X130229157Y-91403699D01*
X130135924Y-91191151D01*
X130008983Y-90996852D01*
X130008980Y-90996849D01*
X130008979Y-90996847D01*
X129851784Y-90826087D01*
X129851779Y-90826083D01*
X129851777Y-90826081D01*
X129668634Y-90683535D01*
X129668628Y-90683531D01*
X129464504Y-90573064D01*
X129464495Y-90573061D01*
X129244984Y-90497702D01*
X129057368Y-90466395D01*
X129016049Y-90459500D01*
X128783951Y-90459500D01*
X128761167Y-90463302D01*
X128555015Y-90497702D01*
X128335504Y-90573061D01*
X128335495Y-90573064D01*
X128131371Y-90683531D01*
X128131365Y-90683535D01*
X127948222Y-90826081D01*
X127948219Y-90826084D01*
X127791016Y-90996852D01*
X127664075Y-91191151D01*
X127570842Y-91403699D01*
X127513866Y-91628691D01*
X127513864Y-91628702D01*
X127494700Y-91859993D01*
X121100500Y-91859993D01*
X121100500Y-87249998D01*
X127794532Y-87249998D01*
X127794532Y-87250001D01*
X127814364Y-87476686D01*
X127814366Y-87476697D01*
X127873258Y-87696488D01*
X127873261Y-87696497D01*
X127969431Y-87902732D01*
X127969432Y-87902734D01*
X128099954Y-88089141D01*
X128260858Y-88250045D01*
X128260861Y-88250047D01*
X128447266Y-88380568D01*
X128653504Y-88476739D01*
X128873308Y-88535635D01*
X129035230Y-88549801D01*
X129099998Y-88555468D01*
X129100000Y-88555468D01*
X129100002Y-88555468D01*
X129156673Y-88550509D01*
X129326692Y-88535635D01*
X129546496Y-88476739D01*
X129752734Y-88380568D01*
X129939139Y-88250047D01*
X130100047Y-88089139D01*
X130230568Y-87902734D01*
X130326739Y-87696496D01*
X130385635Y-87476692D01*
X130405468Y-87250000D01*
X130385635Y-87023308D01*
X130326739Y-86803504D01*
X130230568Y-86597266D01*
X130100047Y-86410861D01*
X130100045Y-86410858D01*
X129939141Y-86249954D01*
X129752734Y-86119432D01*
X129752732Y-86119431D01*
X129546497Y-86023261D01*
X129546488Y-86023258D01*
X129326697Y-85964366D01*
X129326693Y-85964365D01*
X129326692Y-85964365D01*
X129326691Y-85964364D01*
X129326686Y-85964364D01*
X129100002Y-85944532D01*
X129099998Y-85944532D01*
X128873313Y-85964364D01*
X128873302Y-85964366D01*
X128653511Y-86023258D01*
X128653502Y-86023261D01*
X128447267Y-86119431D01*
X128447265Y-86119432D01*
X128260858Y-86249954D01*
X128099954Y-86410858D01*
X127969432Y-86597265D01*
X127969431Y-86597267D01*
X127873261Y-86803502D01*
X127873258Y-86803511D01*
X127814366Y-87023302D01*
X127814364Y-87023313D01*
X127794532Y-87249998D01*
X121100500Y-87249998D01*
X121100500Y-81893713D01*
X122899500Y-81893713D01*
X122899500Y-82106287D01*
X122932754Y-82316243D01*
X122965578Y-82417265D01*
X122998444Y-82518414D01*
X123094951Y-82707820D01*
X123219890Y-82879786D01*
X123370213Y-83030109D01*
X123542179Y-83155048D01*
X123542181Y-83155049D01*
X123542184Y-83155051D01*
X123731588Y-83251557D01*
X123933757Y-83317246D01*
X124143713Y-83350500D01*
X124143714Y-83350500D01*
X124656286Y-83350500D01*
X124656287Y-83350500D01*
X124866243Y-83317246D01*
X125068412Y-83251557D01*
X125257816Y-83155051D01*
X125279789Y-83139086D01*
X125429786Y-83030109D01*
X125429788Y-83030106D01*
X125429792Y-83030104D01*
X125580104Y-82879792D01*
X125580106Y-82879788D01*
X125580109Y-82879786D01*
X125705048Y-82707820D01*
X125705047Y-82707820D01*
X125705051Y-82707816D01*
X125801557Y-82518412D01*
X125867246Y-82316243D01*
X125900500Y-82106287D01*
X125900500Y-81893713D01*
X125867246Y-81683757D01*
X125801557Y-81481588D01*
X125705051Y-81292184D01*
X125705049Y-81292181D01*
X125705048Y-81292179D01*
X125580109Y-81120213D01*
X125440931Y-80981035D01*
X125407446Y-80919712D01*
X125412430Y-80850020D01*
X125454302Y-80794087D01*
X125463516Y-80787815D01*
X125618343Y-80692317D01*
X125742315Y-80568345D01*
X125834356Y-80419124D01*
X125834358Y-80419119D01*
X125889505Y-80252697D01*
X125889506Y-80252690D01*
X125899999Y-80149986D01*
X125900000Y-80149973D01*
X125900000Y-79750000D01*
X124833012Y-79750000D01*
X124865925Y-79692993D01*
X124900000Y-79565826D01*
X124900000Y-79434174D01*
X124865925Y-79307007D01*
X124833012Y-79250000D01*
X125899999Y-79250000D01*
X125899999Y-78850028D01*
X125899998Y-78850013D01*
X125889505Y-78747302D01*
X125834358Y-78580880D01*
X125834356Y-78580875D01*
X125742315Y-78431654D01*
X125618345Y-78307684D01*
X125469124Y-78215643D01*
X125469119Y-78215641D01*
X125302697Y-78160494D01*
X125302690Y-78160493D01*
X125199986Y-78150000D01*
X124650000Y-78150000D01*
X124650000Y-79066988D01*
X124592993Y-79034075D01*
X124465826Y-79000000D01*
X124334174Y-79000000D01*
X124207007Y-79034075D01*
X124150000Y-79066988D01*
X124150000Y-78150000D01*
X123600028Y-78150000D01*
X123600012Y-78150001D01*
X123497302Y-78160494D01*
X123330880Y-78215641D01*
X123330875Y-78215643D01*
X123181654Y-78307684D01*
X123057684Y-78431654D01*
X122965643Y-78580875D01*
X122965641Y-78580880D01*
X122910494Y-78747302D01*
X122910493Y-78747309D01*
X122900000Y-78850013D01*
X122900000Y-79250000D01*
X123966988Y-79250000D01*
X123934075Y-79307007D01*
X123900000Y-79434174D01*
X123900000Y-79565826D01*
X123934075Y-79692993D01*
X123966988Y-79750000D01*
X122900001Y-79750000D01*
X122900001Y-80149986D01*
X122910494Y-80252697D01*
X122965641Y-80419119D01*
X122965643Y-80419124D01*
X123057684Y-80568345D01*
X123181654Y-80692315D01*
X123336484Y-80787815D01*
X123383208Y-80839763D01*
X123394431Y-80908726D01*
X123366587Y-80972808D01*
X123359069Y-80981035D01*
X123219889Y-81120215D01*
X123094951Y-81292179D01*
X122998444Y-81481585D01*
X122932753Y-81683760D01*
X122914498Y-81799017D01*
X122899500Y-81893713D01*
X121100500Y-81893713D01*
X121100500Y-74549998D01*
X127794532Y-74549998D01*
X127794532Y-74550001D01*
X127814364Y-74776686D01*
X127814366Y-74776697D01*
X127873258Y-74996488D01*
X127873261Y-74996497D01*
X127969431Y-75202732D01*
X127969432Y-75202734D01*
X128099954Y-75389141D01*
X128260858Y-75550045D01*
X128260861Y-75550047D01*
X128447266Y-75680568D01*
X128653504Y-75776739D01*
X128873308Y-75835635D01*
X129035230Y-75849801D01*
X129099998Y-75855468D01*
X129100000Y-75855468D01*
X129100002Y-75855468D01*
X129156673Y-75850509D01*
X129326692Y-75835635D01*
X129546496Y-75776739D01*
X129752734Y-75680568D01*
X129939139Y-75550047D01*
X130100047Y-75389139D01*
X130230568Y-75202734D01*
X130326739Y-74996496D01*
X130385635Y-74776692D01*
X130405468Y-74550000D01*
X130385635Y-74323308D01*
X130326739Y-74103504D01*
X130230568Y-73897266D01*
X130100047Y-73710861D01*
X130100045Y-73710858D01*
X129939141Y-73549954D01*
X129752734Y-73419432D01*
X129752732Y-73419431D01*
X129546497Y-73323261D01*
X129546488Y-73323258D01*
X129326697Y-73264366D01*
X129326693Y-73264365D01*
X129326692Y-73264365D01*
X129326691Y-73264364D01*
X129326686Y-73264364D01*
X129100002Y-73244532D01*
X129099998Y-73244532D01*
X128873313Y-73264364D01*
X128873302Y-73264366D01*
X128653511Y-73323258D01*
X128653502Y-73323261D01*
X128447267Y-73419431D01*
X128447265Y-73419432D01*
X128260858Y-73549954D01*
X128099954Y-73710858D01*
X127969432Y-73897265D01*
X127969431Y-73897267D01*
X127873261Y-74103502D01*
X127873258Y-74103511D01*
X127814366Y-74323302D01*
X127814364Y-74323313D01*
X127794532Y-74549998D01*
X121100500Y-74549998D01*
X121100500Y-69577135D01*
X125274500Y-69577135D01*
X125274500Y-71372870D01*
X125274501Y-71372876D01*
X125280908Y-71432483D01*
X125331202Y-71567328D01*
X125331206Y-71567335D01*
X125417452Y-71682544D01*
X125417455Y-71682547D01*
X125532664Y-71768793D01*
X125532671Y-71768797D01*
X125667517Y-71819091D01*
X125667516Y-71819091D01*
X125674444Y-71819835D01*
X125727127Y-71825500D01*
X127522872Y-71825499D01*
X127582483Y-71819091D01*
X127717331Y-71768796D01*
X127832546Y-71682546D01*
X127918796Y-71567331D01*
X127967810Y-71435916D01*
X128009681Y-71379984D01*
X128075145Y-71355566D01*
X128143418Y-71370417D01*
X128171673Y-71391569D01*
X128293599Y-71513495D01*
X128376951Y-71571859D01*
X128487165Y-71649032D01*
X128487167Y-71649033D01*
X128487170Y-71649035D01*
X128701337Y-71748903D01*
X128929592Y-71810063D01*
X129106034Y-71825500D01*
X129164999Y-71830659D01*
X129165000Y-71830659D01*
X129165001Y-71830659D01*
X129223966Y-71825500D01*
X129400408Y-71810063D01*
X129628663Y-71748903D01*
X129842830Y-71649035D01*
X130036401Y-71513495D01*
X130203495Y-71346401D01*
X130339035Y-71152830D01*
X130438903Y-70938663D01*
X130500063Y-70710408D01*
X130520659Y-70475000D01*
X130500063Y-70239592D01*
X130438903Y-70011337D01*
X130339035Y-69797171D01*
X130283086Y-69717266D01*
X130203494Y-69603597D01*
X130036402Y-69436506D01*
X130036395Y-69436501D01*
X129842834Y-69300967D01*
X129842830Y-69300965D01*
X129842828Y-69300964D01*
X129628663Y-69201097D01*
X129628659Y-69201096D01*
X129628655Y-69201094D01*
X129400413Y-69139938D01*
X129400403Y-69139936D01*
X129165001Y-69119341D01*
X129164999Y-69119341D01*
X128929596Y-69139936D01*
X128929586Y-69139938D01*
X128701344Y-69201094D01*
X128701335Y-69201098D01*
X128487171Y-69300964D01*
X128487169Y-69300965D01*
X128293600Y-69436503D01*
X128171673Y-69558430D01*
X128110350Y-69591914D01*
X128040658Y-69586930D01*
X127984725Y-69545058D01*
X127967810Y-69514081D01*
X127918797Y-69382671D01*
X127918793Y-69382664D01*
X127832547Y-69267455D01*
X127832544Y-69267452D01*
X127717335Y-69181206D01*
X127717328Y-69181202D01*
X127582482Y-69130908D01*
X127582483Y-69130908D01*
X127522883Y-69124501D01*
X127522881Y-69124500D01*
X127522873Y-69124500D01*
X127522864Y-69124500D01*
X125727129Y-69124500D01*
X125727123Y-69124501D01*
X125667516Y-69130908D01*
X125532671Y-69181202D01*
X125532664Y-69181206D01*
X125417455Y-69267452D01*
X125417452Y-69267455D01*
X125331206Y-69382664D01*
X125331202Y-69382671D01*
X125280908Y-69517517D01*
X125274501Y-69577116D01*
X125274500Y-69577135D01*
X121100500Y-69577135D01*
X121100500Y-65289998D01*
X133684532Y-65289998D01*
X133684532Y-65290001D01*
X133704364Y-65516686D01*
X133704366Y-65516697D01*
X133763258Y-65736488D01*
X133763261Y-65736497D01*
X133859431Y-65942732D01*
X133859432Y-65942734D01*
X133989954Y-66129141D01*
X134150858Y-66290045D01*
X134150861Y-66290047D01*
X134337266Y-66420568D01*
X134394681Y-66447341D01*
X134395275Y-66447618D01*
X134447714Y-66493791D01*
X134466866Y-66560984D01*
X134446650Y-66627865D01*
X134395275Y-66672382D01*
X134337267Y-66699431D01*
X134337265Y-66699432D01*
X134150858Y-66829954D01*
X133989954Y-66990858D01*
X133859432Y-67177265D01*
X133859431Y-67177267D01*
X133763261Y-67383502D01*
X133763258Y-67383511D01*
X133704366Y-67603302D01*
X133704364Y-67603313D01*
X133684532Y-67829998D01*
X133684532Y-67830001D01*
X133704364Y-68056686D01*
X133704366Y-68056697D01*
X133763258Y-68276488D01*
X133763261Y-68276497D01*
X133859431Y-68482732D01*
X133859432Y-68482734D01*
X133989954Y-68669141D01*
X134150858Y-68830045D01*
X134150861Y-68830047D01*
X134337266Y-68960568D01*
X134395865Y-68987893D01*
X134448305Y-69034065D01*
X134467457Y-69101258D01*
X134447242Y-69168139D01*
X134395867Y-69212657D01*
X134337515Y-69239867D01*
X134151179Y-69370342D01*
X133990342Y-69531179D01*
X133859865Y-69717517D01*
X133763734Y-69923673D01*
X133763730Y-69923682D01*
X133711127Y-70119999D01*
X133711128Y-70120000D01*
X134556988Y-70120000D01*
X134524075Y-70177007D01*
X134490000Y-70304174D01*
X134490000Y-70435826D01*
X134524075Y-70562993D01*
X134556988Y-70620000D01*
X133711128Y-70620000D01*
X133763730Y-70816317D01*
X133763734Y-70816326D01*
X133859865Y-71022482D01*
X133990342Y-71208820D01*
X134151179Y-71369657D01*
X134337518Y-71500134D01*
X134337520Y-71500135D01*
X134395865Y-71527342D01*
X134448305Y-71573514D01*
X134467457Y-71640707D01*
X134447242Y-71707589D01*
X134395867Y-71752105D01*
X134337268Y-71779431D01*
X134337264Y-71779433D01*
X134150858Y-71909954D01*
X133989954Y-72070858D01*
X133859432Y-72257265D01*
X133859431Y-72257267D01*
X133763261Y-72463502D01*
X133763258Y-72463511D01*
X133704366Y-72683302D01*
X133704364Y-72683313D01*
X133684532Y-72909998D01*
X133684532Y-72910001D01*
X133704364Y-73136686D01*
X133704366Y-73136697D01*
X133763258Y-73356488D01*
X133763261Y-73356497D01*
X133859431Y-73562732D01*
X133859432Y-73562734D01*
X133989954Y-73749141D01*
X134150858Y-73910045D01*
X134150861Y-73910047D01*
X134337266Y-74040568D01*
X134341682Y-74042627D01*
X134395275Y-74067618D01*
X134447714Y-74113791D01*
X134466866Y-74180984D01*
X134446650Y-74247865D01*
X134395275Y-74292382D01*
X134337267Y-74319431D01*
X134337265Y-74319432D01*
X134150858Y-74449954D01*
X133989954Y-74610858D01*
X133859432Y-74797265D01*
X133859431Y-74797267D01*
X133763261Y-75003502D01*
X133763258Y-75003511D01*
X133704366Y-75223302D01*
X133704364Y-75223313D01*
X133684532Y-75449998D01*
X133684532Y-75450001D01*
X133704364Y-75676686D01*
X133704366Y-75676697D01*
X133763258Y-75896488D01*
X133763261Y-75896497D01*
X133859431Y-76102732D01*
X133859432Y-76102734D01*
X133989954Y-76289141D01*
X134150858Y-76450045D01*
X134150861Y-76450047D01*
X134337266Y-76580568D01*
X134395275Y-76607618D01*
X134447714Y-76653791D01*
X134466866Y-76720984D01*
X134446650Y-76787865D01*
X134395275Y-76832382D01*
X134337267Y-76859431D01*
X134337265Y-76859432D01*
X134150858Y-76989954D01*
X133989954Y-77150858D01*
X133859432Y-77337265D01*
X133859431Y-77337267D01*
X133763261Y-77543502D01*
X133763258Y-77543511D01*
X133704366Y-77763302D01*
X133704364Y-77763313D01*
X133684532Y-77989998D01*
X133684532Y-77990001D01*
X133704364Y-78216686D01*
X133704366Y-78216697D01*
X133763258Y-78436488D01*
X133763261Y-78436497D01*
X133859431Y-78642732D01*
X133859432Y-78642734D01*
X133989954Y-78829141D01*
X134150858Y-78990045D01*
X134150861Y-78990047D01*
X134337266Y-79120568D01*
X134395275Y-79147618D01*
X134447714Y-79193791D01*
X134466866Y-79260984D01*
X134446650Y-79327865D01*
X134395275Y-79372382D01*
X134337267Y-79399431D01*
X134337265Y-79399432D01*
X134150858Y-79529954D01*
X133989954Y-79690858D01*
X133859432Y-79877265D01*
X133859431Y-79877267D01*
X133763261Y-80083502D01*
X133763258Y-80083511D01*
X133704366Y-80303302D01*
X133704364Y-80303313D01*
X133684532Y-80529998D01*
X133684532Y-80530001D01*
X133704364Y-80756686D01*
X133704366Y-80756697D01*
X133763258Y-80976488D01*
X133763261Y-80976497D01*
X133859431Y-81182732D01*
X133859432Y-81182734D01*
X133989954Y-81369141D01*
X134150858Y-81530045D01*
X134150861Y-81530047D01*
X134337266Y-81660568D01*
X134395275Y-81687618D01*
X134447714Y-81733791D01*
X134466866Y-81800984D01*
X134446650Y-81867865D01*
X134395275Y-81912382D01*
X134337267Y-81939431D01*
X134337265Y-81939432D01*
X134150858Y-82069954D01*
X133989954Y-82230858D01*
X133859432Y-82417265D01*
X133859431Y-82417267D01*
X133763261Y-82623502D01*
X133763258Y-82623511D01*
X133704366Y-82843302D01*
X133704364Y-82843313D01*
X133684532Y-83069998D01*
X133684532Y-83070001D01*
X133704364Y-83296686D01*
X133704366Y-83296697D01*
X133763258Y-83516488D01*
X133763261Y-83516497D01*
X133859431Y-83722732D01*
X133859432Y-83722734D01*
X133989954Y-83909141D01*
X134150858Y-84070045D01*
X134150861Y-84070047D01*
X134337266Y-84200568D01*
X134395275Y-84227618D01*
X134447714Y-84273791D01*
X134466866Y-84340984D01*
X134446650Y-84407865D01*
X134395275Y-84452382D01*
X134337267Y-84479431D01*
X134337265Y-84479432D01*
X134150858Y-84609954D01*
X133989954Y-84770858D01*
X133859432Y-84957265D01*
X133859431Y-84957267D01*
X133763261Y-85163502D01*
X133763258Y-85163511D01*
X133704366Y-85383302D01*
X133704364Y-85383313D01*
X133684532Y-85609998D01*
X133684532Y-85610001D01*
X133704364Y-85836686D01*
X133704366Y-85836697D01*
X133763258Y-86056488D01*
X133763261Y-86056497D01*
X133859431Y-86262732D01*
X133859432Y-86262734D01*
X133989954Y-86449141D01*
X134150858Y-86610045D01*
X134150861Y-86610047D01*
X134337266Y-86740568D01*
X134395275Y-86767618D01*
X134447714Y-86813791D01*
X134466866Y-86880984D01*
X134446650Y-86947865D01*
X134395275Y-86992382D01*
X134337267Y-87019431D01*
X134337265Y-87019432D01*
X134150858Y-87149954D01*
X133989954Y-87310858D01*
X133859432Y-87497265D01*
X133859431Y-87497267D01*
X133763261Y-87703502D01*
X133763258Y-87703511D01*
X133704366Y-87923302D01*
X133704364Y-87923313D01*
X133684532Y-88149998D01*
X133684532Y-88150001D01*
X133704364Y-88376686D01*
X133704366Y-88376697D01*
X133763258Y-88596488D01*
X133763261Y-88596497D01*
X133859431Y-88802732D01*
X133859432Y-88802734D01*
X133989954Y-88989141D01*
X134150858Y-89150045D01*
X134150861Y-89150047D01*
X134337266Y-89280568D01*
X134395275Y-89307618D01*
X134447714Y-89353791D01*
X134466866Y-89420984D01*
X134446650Y-89487865D01*
X134395275Y-89532382D01*
X134337267Y-89559431D01*
X134337265Y-89559432D01*
X134150858Y-89689954D01*
X133989954Y-89850858D01*
X133859432Y-90037265D01*
X133859431Y-90037267D01*
X133763261Y-90243502D01*
X133763258Y-90243511D01*
X133704366Y-90463302D01*
X133704364Y-90463313D01*
X133684532Y-90689998D01*
X133684532Y-90690001D01*
X133704364Y-90916686D01*
X133704366Y-90916697D01*
X133763258Y-91136488D01*
X133763261Y-91136497D01*
X133859431Y-91342732D01*
X133859432Y-91342734D01*
X133989954Y-91529141D01*
X134150858Y-91690045D01*
X134150861Y-91690047D01*
X134337266Y-91820568D01*
X134395275Y-91847618D01*
X134447714Y-91893791D01*
X134466866Y-91960984D01*
X134446650Y-92027865D01*
X134395275Y-92072382D01*
X134337267Y-92099431D01*
X134337265Y-92099432D01*
X134150858Y-92229954D01*
X133989954Y-92390858D01*
X133859432Y-92577265D01*
X133859431Y-92577267D01*
X133763261Y-92783502D01*
X133763258Y-92783511D01*
X133704366Y-93003302D01*
X133704364Y-93003313D01*
X133684532Y-93229998D01*
X133684532Y-93230001D01*
X133704364Y-93456686D01*
X133704366Y-93456697D01*
X133763258Y-93676488D01*
X133763261Y-93676497D01*
X133859431Y-93882732D01*
X133859432Y-93882734D01*
X133989954Y-94069141D01*
X134150858Y-94230045D01*
X134150861Y-94230047D01*
X134337266Y-94360568D01*
X134395275Y-94387618D01*
X134447714Y-94433791D01*
X134466866Y-94500984D01*
X134446650Y-94567865D01*
X134395275Y-94612382D01*
X134337267Y-94639431D01*
X134337265Y-94639432D01*
X134150858Y-94769954D01*
X133989954Y-94930858D01*
X133859432Y-95117265D01*
X133859431Y-95117267D01*
X133763261Y-95323502D01*
X133763258Y-95323511D01*
X133704366Y-95543302D01*
X133704364Y-95543313D01*
X133684532Y-95769998D01*
X133684532Y-95770001D01*
X133704364Y-95996686D01*
X133704366Y-95996697D01*
X133763258Y-96216488D01*
X133763261Y-96216497D01*
X133859431Y-96422732D01*
X133859432Y-96422734D01*
X133989954Y-96609141D01*
X134150858Y-96770045D01*
X134150861Y-96770047D01*
X134337266Y-96900568D01*
X134395275Y-96927618D01*
X134447714Y-96973791D01*
X134466866Y-97040984D01*
X134446650Y-97107865D01*
X134395275Y-97152382D01*
X134337267Y-97179431D01*
X134337265Y-97179432D01*
X134150858Y-97309954D01*
X133989954Y-97470858D01*
X133859432Y-97657265D01*
X133859431Y-97657267D01*
X133763261Y-97863502D01*
X133763258Y-97863511D01*
X133704366Y-98083302D01*
X133704364Y-98083313D01*
X133684532Y-98309998D01*
X133684532Y-98310001D01*
X133704364Y-98536686D01*
X133704366Y-98536697D01*
X133763258Y-98756488D01*
X133763261Y-98756497D01*
X133859431Y-98962732D01*
X133859432Y-98962734D01*
X133989954Y-99149141D01*
X134150858Y-99310045D01*
X134150861Y-99310047D01*
X134337266Y-99440568D01*
X134543504Y-99536739D01*
X134763308Y-99595635D01*
X134925230Y-99609801D01*
X134989998Y-99615468D01*
X134990000Y-99615468D01*
X134990002Y-99615468D01*
X135046673Y-99610509D01*
X135216692Y-99595635D01*
X135436496Y-99536739D01*
X135642734Y-99440568D01*
X135829139Y-99310047D01*
X135990047Y-99149139D01*
X136120568Y-98962734D01*
X136216739Y-98756496D01*
X136275635Y-98536692D01*
X136295468Y-98310000D01*
X136275635Y-98083308D01*
X136216739Y-97863504D01*
X136120568Y-97657266D01*
X135990047Y-97470861D01*
X135990045Y-97470858D01*
X135829141Y-97309954D01*
X135642734Y-97179432D01*
X135642728Y-97179429D01*
X135584725Y-97152382D01*
X135532285Y-97106210D01*
X135513133Y-97039017D01*
X135533348Y-96972135D01*
X135584725Y-96927618D01*
X135642734Y-96900568D01*
X135829139Y-96770047D01*
X135990047Y-96609139D01*
X136120568Y-96422734D01*
X136216739Y-96216496D01*
X136275635Y-95996692D01*
X136295468Y-95770000D01*
X136293175Y-95743796D01*
X136288812Y-95693920D01*
X136275635Y-95543308D01*
X136216739Y-95323504D01*
X136120568Y-95117266D01*
X135990047Y-94930861D01*
X135990045Y-94930858D01*
X135829141Y-94769954D01*
X135642734Y-94639432D01*
X135642728Y-94639429D01*
X135584725Y-94612382D01*
X135532285Y-94566210D01*
X135513133Y-94499017D01*
X135533348Y-94432135D01*
X135584725Y-94387618D01*
X135642734Y-94360568D01*
X135829139Y-94230047D01*
X135990047Y-94069139D01*
X136120568Y-93882734D01*
X136216739Y-93676496D01*
X136275635Y-93456692D01*
X136295468Y-93230000D01*
X136275635Y-93003308D01*
X136216739Y-92783504D01*
X136120568Y-92577266D01*
X135990047Y-92390861D01*
X135990045Y-92390858D01*
X135829141Y-92229954D01*
X135642734Y-92099432D01*
X135642728Y-92099429D01*
X135584725Y-92072382D01*
X135532285Y-92026210D01*
X135513133Y-91959017D01*
X135533348Y-91892135D01*
X135584725Y-91847618D01*
X135642734Y-91820568D01*
X135829139Y-91690047D01*
X135990047Y-91529139D01*
X136120568Y-91342734D01*
X136216739Y-91136496D01*
X136275635Y-90916692D01*
X136295468Y-90690000D01*
X136294902Y-90683535D01*
X136278644Y-90497702D01*
X136275635Y-90463308D01*
X136216739Y-90243504D01*
X136120568Y-90037266D01*
X135990047Y-89850861D01*
X135990045Y-89850858D01*
X135829141Y-89689954D01*
X135642734Y-89559432D01*
X135642728Y-89559429D01*
X135584725Y-89532382D01*
X135532285Y-89486210D01*
X135513133Y-89419017D01*
X135533348Y-89352135D01*
X135584725Y-89307618D01*
X135642734Y-89280568D01*
X135829139Y-89150047D01*
X135990047Y-88989139D01*
X136120568Y-88802734D01*
X136216739Y-88596496D01*
X136275635Y-88376692D01*
X136295468Y-88150000D01*
X136275635Y-87923308D01*
X136216739Y-87703504D01*
X136120568Y-87497266D01*
X135990047Y-87310861D01*
X135990045Y-87310858D01*
X135829141Y-87149954D01*
X135642734Y-87019432D01*
X135642728Y-87019429D01*
X135584725Y-86992382D01*
X135532285Y-86946210D01*
X135513133Y-86879017D01*
X135533348Y-86812135D01*
X135584725Y-86767618D01*
X135642734Y-86740568D01*
X135829139Y-86610047D01*
X135990047Y-86449139D01*
X136120568Y-86262734D01*
X136216739Y-86056496D01*
X136275635Y-85836692D01*
X136295468Y-85610000D01*
X136275635Y-85383308D01*
X136216739Y-85163504D01*
X136120568Y-84957266D01*
X135990047Y-84770861D01*
X135990045Y-84770858D01*
X135829141Y-84609954D01*
X135642734Y-84479432D01*
X135642728Y-84479429D01*
X135584725Y-84452382D01*
X135532285Y-84406210D01*
X135513133Y-84339017D01*
X135533348Y-84272135D01*
X135584725Y-84227618D01*
X135642734Y-84200568D01*
X135829139Y-84070047D01*
X135990047Y-83909139D01*
X136120568Y-83722734D01*
X136216739Y-83516496D01*
X136275635Y-83296692D01*
X136295468Y-83070000D01*
X136275635Y-82843308D01*
X136216739Y-82623504D01*
X136120568Y-82417266D01*
X135990047Y-82230861D01*
X135990045Y-82230858D01*
X135829141Y-82069954D01*
X135642734Y-81939432D01*
X135642728Y-81939429D01*
X135584725Y-81912382D01*
X135532285Y-81866210D01*
X135513133Y-81799017D01*
X135533348Y-81732135D01*
X135584725Y-81687618D01*
X135642734Y-81660568D01*
X135829139Y-81530047D01*
X135990047Y-81369139D01*
X136120568Y-81182734D01*
X136216739Y-80976496D01*
X136275635Y-80756692D01*
X136295468Y-80530000D01*
X136275635Y-80303308D01*
X136216739Y-80083504D01*
X136120568Y-79877266D01*
X135990047Y-79690861D01*
X135990045Y-79690858D01*
X135829141Y-79529954D01*
X135642734Y-79399432D01*
X135642728Y-79399429D01*
X135584725Y-79372382D01*
X135532285Y-79326210D01*
X135513133Y-79259017D01*
X135533348Y-79192135D01*
X135584725Y-79147618D01*
X135642734Y-79120568D01*
X135829139Y-78990047D01*
X135990047Y-78829139D01*
X136120568Y-78642734D01*
X136216739Y-78436496D01*
X136275635Y-78216692D01*
X136295468Y-77990000D01*
X136275635Y-77763308D01*
X136216739Y-77543504D01*
X136120568Y-77337266D01*
X135990047Y-77150861D01*
X135990045Y-77150858D01*
X135829141Y-76989954D01*
X135642734Y-76859432D01*
X135642728Y-76859429D01*
X135584725Y-76832382D01*
X135532285Y-76786210D01*
X135513133Y-76719017D01*
X135533348Y-76652135D01*
X135584725Y-76607618D01*
X135642734Y-76580568D01*
X135829139Y-76450047D01*
X135990047Y-76289139D01*
X136120568Y-76102734D01*
X136216739Y-75896496D01*
X136275635Y-75676692D01*
X136295468Y-75450000D01*
X136275635Y-75223308D01*
X136216739Y-75003504D01*
X136120568Y-74797266D01*
X135990047Y-74610861D01*
X135990045Y-74610858D01*
X135829141Y-74449954D01*
X135642734Y-74319432D01*
X135642728Y-74319429D01*
X135584725Y-74292382D01*
X135532285Y-74246210D01*
X135513133Y-74179017D01*
X135533348Y-74112135D01*
X135584725Y-74067618D01*
X135642734Y-74040568D01*
X135829139Y-73910047D01*
X135990047Y-73749139D01*
X136120568Y-73562734D01*
X136216739Y-73356496D01*
X136275635Y-73136692D01*
X136295468Y-72910000D01*
X136275635Y-72683308D01*
X136216739Y-72463504D01*
X136120568Y-72257266D01*
X135990047Y-72070861D01*
X135990045Y-72070858D01*
X135829141Y-71909954D01*
X135642734Y-71779432D01*
X135642732Y-71779431D01*
X135584725Y-71752382D01*
X135584132Y-71752105D01*
X135531694Y-71705934D01*
X135512542Y-71638740D01*
X135532758Y-71571859D01*
X135584134Y-71527341D01*
X135642484Y-71500132D01*
X135828820Y-71369657D01*
X135989657Y-71208820D01*
X136120134Y-71022482D01*
X136216265Y-70816326D01*
X136216269Y-70816317D01*
X136268872Y-70620000D01*
X135423012Y-70620000D01*
X135455925Y-70562993D01*
X135490000Y-70435826D01*
X135490000Y-70304174D01*
X135455925Y-70177007D01*
X135423012Y-70120000D01*
X136268872Y-70120000D01*
X136268872Y-70119999D01*
X136216269Y-69923682D01*
X136216265Y-69923673D01*
X136120134Y-69717517D01*
X135989657Y-69531179D01*
X135828820Y-69370342D01*
X135642482Y-69239865D01*
X135584133Y-69212657D01*
X135531694Y-69166484D01*
X135512542Y-69099291D01*
X135532758Y-69032410D01*
X135584129Y-68987895D01*
X135642734Y-68960568D01*
X135829139Y-68830047D01*
X135990047Y-68669139D01*
X136120568Y-68482734D01*
X136216739Y-68276496D01*
X136275635Y-68056692D01*
X136295468Y-67830000D01*
X136275635Y-67603308D01*
X136216739Y-67383504D01*
X136120568Y-67177266D01*
X135990047Y-66990861D01*
X135990045Y-66990858D01*
X135829141Y-66829954D01*
X135642734Y-66699432D01*
X135642728Y-66699429D01*
X135584725Y-66672382D01*
X135532285Y-66626210D01*
X135513133Y-66559017D01*
X135533348Y-66492135D01*
X135584725Y-66447618D01*
X135585319Y-66447341D01*
X135642734Y-66420568D01*
X135829139Y-66290047D01*
X135990047Y-66129139D01*
X136120568Y-65942734D01*
X136216739Y-65736496D01*
X136275635Y-65516692D01*
X136295468Y-65290000D01*
X136275635Y-65063308D01*
X136216739Y-64843504D01*
X136120568Y-64637266D01*
X135990047Y-64450861D01*
X135990045Y-64450858D01*
X135829143Y-64289956D01*
X135804536Y-64272726D01*
X135760912Y-64218149D01*
X135753719Y-64148650D01*
X135785241Y-64086296D01*
X135845471Y-64050882D01*
X135862404Y-64047861D01*
X135897483Y-64044091D01*
X136032331Y-63993796D01*
X136147546Y-63907546D01*
X136233796Y-63792331D01*
X136284091Y-63657483D01*
X136290500Y-63597873D01*
X136290499Y-62749998D01*
X148924532Y-62749998D01*
X148924532Y-62750001D01*
X148944364Y-62976686D01*
X148944366Y-62976697D01*
X149003258Y-63196488D01*
X149003261Y-63196497D01*
X149099431Y-63402732D01*
X149099432Y-63402734D01*
X149229954Y-63589141D01*
X149390858Y-63750045D01*
X149390861Y-63750047D01*
X149577266Y-63880568D01*
X149635865Y-63907893D01*
X149688305Y-63954065D01*
X149707457Y-64021258D01*
X149687242Y-64088139D01*
X149635867Y-64132657D01*
X149577515Y-64159867D01*
X149391179Y-64290342D01*
X149230342Y-64451179D01*
X149099865Y-64637517D01*
X149003734Y-64843673D01*
X149003730Y-64843682D01*
X148951127Y-65039999D01*
X148951128Y-65040000D01*
X149796988Y-65040000D01*
X149764075Y-65097007D01*
X149730000Y-65224174D01*
X149730000Y-65355826D01*
X149764075Y-65482993D01*
X149796988Y-65540000D01*
X148951128Y-65540000D01*
X149003730Y-65736317D01*
X149003734Y-65736326D01*
X149099865Y-65942482D01*
X149230342Y-66128820D01*
X149391179Y-66289657D01*
X149577518Y-66420134D01*
X149577520Y-66420135D01*
X149635865Y-66447342D01*
X149688305Y-66493514D01*
X149707457Y-66560707D01*
X149687242Y-66627589D01*
X149635867Y-66672105D01*
X149577268Y-66699431D01*
X149577264Y-66699433D01*
X149390858Y-66829954D01*
X149229954Y-66990858D01*
X149099432Y-67177265D01*
X149099431Y-67177267D01*
X149003261Y-67383502D01*
X149003258Y-67383511D01*
X148944366Y-67603302D01*
X148944364Y-67603313D01*
X148924532Y-67829998D01*
X148924532Y-67830001D01*
X148944364Y-68056686D01*
X148944366Y-68056697D01*
X149003258Y-68276488D01*
X149003261Y-68276497D01*
X149099431Y-68482732D01*
X149099432Y-68482734D01*
X149229954Y-68669141D01*
X149390858Y-68830045D01*
X149390861Y-68830047D01*
X149577266Y-68960568D01*
X149635275Y-68987618D01*
X149687714Y-69033791D01*
X149706866Y-69100984D01*
X149686650Y-69167865D01*
X149635275Y-69212382D01*
X149577267Y-69239431D01*
X149577265Y-69239432D01*
X149390858Y-69369954D01*
X149229954Y-69530858D01*
X149099432Y-69717265D01*
X149099431Y-69717267D01*
X149003261Y-69923502D01*
X149003258Y-69923511D01*
X148944366Y-70143302D01*
X148944364Y-70143313D01*
X148924532Y-70369998D01*
X148924532Y-70370001D01*
X148944364Y-70596686D01*
X148944366Y-70596697D01*
X149003258Y-70816488D01*
X149003261Y-70816497D01*
X149099431Y-71022732D01*
X149099432Y-71022734D01*
X149229954Y-71209141D01*
X149390858Y-71370045D01*
X149394897Y-71372873D01*
X149577266Y-71500568D01*
X149634681Y-71527341D01*
X149635275Y-71527618D01*
X149687714Y-71573791D01*
X149706866Y-71640984D01*
X149686650Y-71707865D01*
X149635275Y-71752382D01*
X149577267Y-71779431D01*
X149577265Y-71779432D01*
X149390858Y-71909954D01*
X149229954Y-72070858D01*
X149099432Y-72257265D01*
X149099431Y-72257267D01*
X149003261Y-72463502D01*
X149003258Y-72463511D01*
X148944366Y-72683302D01*
X148944364Y-72683313D01*
X148924532Y-72909998D01*
X148924532Y-72910001D01*
X148944364Y-73136686D01*
X148944366Y-73136697D01*
X149003258Y-73356488D01*
X149003261Y-73356497D01*
X149099431Y-73562732D01*
X149099432Y-73562734D01*
X149229954Y-73749141D01*
X149390858Y-73910045D01*
X149390861Y-73910047D01*
X149577266Y-74040568D01*
X149581682Y-74042627D01*
X149635275Y-74067618D01*
X149687714Y-74113791D01*
X149706866Y-74180984D01*
X149686650Y-74247865D01*
X149635275Y-74292382D01*
X149577267Y-74319431D01*
X149577265Y-74319432D01*
X149390858Y-74449954D01*
X149229954Y-74610858D01*
X149099432Y-74797265D01*
X149099431Y-74797267D01*
X149003261Y-75003502D01*
X149003258Y-75003511D01*
X148944366Y-75223302D01*
X148944364Y-75223313D01*
X148924532Y-75449998D01*
X148924532Y-75450001D01*
X148944364Y-75676686D01*
X148944366Y-75676697D01*
X149003258Y-75896488D01*
X149003261Y-75896497D01*
X149099431Y-76102732D01*
X149099432Y-76102734D01*
X149229954Y-76289141D01*
X149390858Y-76450045D01*
X149390861Y-76450047D01*
X149577266Y-76580568D01*
X149635275Y-76607618D01*
X149687714Y-76653791D01*
X149706866Y-76720984D01*
X149686650Y-76787865D01*
X149635275Y-76832382D01*
X149577267Y-76859431D01*
X149577265Y-76859432D01*
X149390858Y-76989954D01*
X149229954Y-77150858D01*
X149099432Y-77337265D01*
X149099431Y-77337267D01*
X149003261Y-77543502D01*
X149003258Y-77543511D01*
X148944366Y-77763302D01*
X148944364Y-77763313D01*
X148924532Y-77989998D01*
X148924532Y-77990001D01*
X148944364Y-78216686D01*
X148944366Y-78216697D01*
X149003258Y-78436488D01*
X149003261Y-78436497D01*
X149099431Y-78642732D01*
X149099432Y-78642734D01*
X149229954Y-78829141D01*
X149390858Y-78990045D01*
X149390861Y-78990047D01*
X149577266Y-79120568D01*
X149635275Y-79147618D01*
X149687714Y-79193791D01*
X149706866Y-79260984D01*
X149686650Y-79327865D01*
X149635275Y-79372382D01*
X149577267Y-79399431D01*
X149577265Y-79399432D01*
X149390858Y-79529954D01*
X149229954Y-79690858D01*
X149099432Y-79877265D01*
X149099431Y-79877267D01*
X149003261Y-80083502D01*
X149003258Y-80083511D01*
X148944366Y-80303302D01*
X148944364Y-80303313D01*
X148924532Y-80529998D01*
X148924532Y-80530001D01*
X148944364Y-80756686D01*
X148944366Y-80756697D01*
X149003258Y-80976488D01*
X149003261Y-80976497D01*
X149099431Y-81182732D01*
X149099432Y-81182734D01*
X149229954Y-81369141D01*
X149390858Y-81530045D01*
X149390861Y-81530047D01*
X149577266Y-81660568D01*
X149635275Y-81687618D01*
X149687714Y-81733791D01*
X149706866Y-81800984D01*
X149686650Y-81867865D01*
X149635275Y-81912382D01*
X149577267Y-81939431D01*
X149577265Y-81939432D01*
X149390858Y-82069954D01*
X149229954Y-82230858D01*
X149099432Y-82417265D01*
X149099431Y-82417267D01*
X149003261Y-82623502D01*
X149003258Y-82623511D01*
X148944366Y-82843302D01*
X148944364Y-82843313D01*
X148924532Y-83069998D01*
X148924532Y-83070001D01*
X148944364Y-83296686D01*
X148944366Y-83296697D01*
X149003258Y-83516488D01*
X149003261Y-83516497D01*
X149099431Y-83722732D01*
X149099432Y-83722734D01*
X149229954Y-83909141D01*
X149390858Y-84070045D01*
X149390861Y-84070047D01*
X149577266Y-84200568D01*
X149635275Y-84227618D01*
X149687714Y-84273791D01*
X149706866Y-84340984D01*
X149686650Y-84407865D01*
X149635275Y-84452382D01*
X149577267Y-84479431D01*
X149577265Y-84479432D01*
X149390858Y-84609954D01*
X149229954Y-84770858D01*
X149099432Y-84957265D01*
X149099431Y-84957267D01*
X149003261Y-85163502D01*
X149003258Y-85163511D01*
X148944366Y-85383302D01*
X148944364Y-85383313D01*
X148924532Y-85609998D01*
X148924532Y-85610001D01*
X148944364Y-85836686D01*
X148944366Y-85836697D01*
X149003258Y-86056488D01*
X149003261Y-86056497D01*
X149099431Y-86262732D01*
X149099432Y-86262734D01*
X149229954Y-86449141D01*
X149390858Y-86610045D01*
X149390861Y-86610047D01*
X149577266Y-86740568D01*
X149635275Y-86767618D01*
X149687714Y-86813791D01*
X149706866Y-86880984D01*
X149686650Y-86947865D01*
X149635275Y-86992382D01*
X149577267Y-87019431D01*
X149577265Y-87019432D01*
X149390858Y-87149954D01*
X149229954Y-87310858D01*
X149099432Y-87497265D01*
X149099431Y-87497267D01*
X149003261Y-87703502D01*
X149003258Y-87703511D01*
X148944366Y-87923302D01*
X148944364Y-87923313D01*
X148924532Y-88149998D01*
X148924532Y-88150001D01*
X148944364Y-88376686D01*
X148944366Y-88376697D01*
X149003258Y-88596488D01*
X149003261Y-88596497D01*
X149099431Y-88802732D01*
X149099432Y-88802734D01*
X149229954Y-88989141D01*
X149390858Y-89150045D01*
X149390861Y-89150047D01*
X149577266Y-89280568D01*
X149635275Y-89307618D01*
X149687714Y-89353791D01*
X149706866Y-89420984D01*
X149686650Y-89487865D01*
X149635275Y-89532382D01*
X149577267Y-89559431D01*
X149577265Y-89559432D01*
X149390858Y-89689954D01*
X149229954Y-89850858D01*
X149099432Y-90037265D01*
X149099431Y-90037267D01*
X149003261Y-90243502D01*
X149003258Y-90243511D01*
X148944366Y-90463302D01*
X148944364Y-90463313D01*
X148924532Y-90689998D01*
X148924532Y-90690001D01*
X148944364Y-90916686D01*
X148944366Y-90916697D01*
X149003258Y-91136488D01*
X149003261Y-91136497D01*
X149099431Y-91342732D01*
X149099432Y-91342734D01*
X149229954Y-91529141D01*
X149390858Y-91690045D01*
X149390861Y-91690047D01*
X149577266Y-91820568D01*
X149635275Y-91847618D01*
X149687714Y-91893791D01*
X149706866Y-91960984D01*
X149686650Y-92027865D01*
X149635275Y-92072382D01*
X149577267Y-92099431D01*
X149577265Y-92099432D01*
X149390858Y-92229954D01*
X149229954Y-92390858D01*
X149099432Y-92577265D01*
X149099431Y-92577267D01*
X149003261Y-92783502D01*
X149003258Y-92783511D01*
X148944366Y-93003302D01*
X148944364Y-93003313D01*
X148924532Y-93229998D01*
X148924532Y-93230001D01*
X148944364Y-93456686D01*
X148944366Y-93456697D01*
X149003258Y-93676488D01*
X149003261Y-93676497D01*
X149099431Y-93882732D01*
X149099432Y-93882734D01*
X149229954Y-94069141D01*
X149390858Y-94230045D01*
X149390861Y-94230047D01*
X149577266Y-94360568D01*
X149635275Y-94387618D01*
X149687714Y-94433791D01*
X149706866Y-94500984D01*
X149686650Y-94567865D01*
X149635275Y-94612382D01*
X149577267Y-94639431D01*
X149577265Y-94639432D01*
X149390858Y-94769954D01*
X149229954Y-94930858D01*
X149099432Y-95117265D01*
X149099431Y-95117267D01*
X149003261Y-95323502D01*
X149003258Y-95323511D01*
X148944366Y-95543302D01*
X148944364Y-95543313D01*
X148924532Y-95769998D01*
X148924532Y-95770001D01*
X148944364Y-95996686D01*
X148944366Y-95996697D01*
X149003258Y-96216488D01*
X149003261Y-96216497D01*
X149099431Y-96422732D01*
X149099432Y-96422734D01*
X149229954Y-96609141D01*
X149390858Y-96770045D01*
X149390861Y-96770047D01*
X149577266Y-96900568D01*
X149635275Y-96927618D01*
X149687714Y-96973791D01*
X149706866Y-97040984D01*
X149686650Y-97107865D01*
X149635275Y-97152382D01*
X149577267Y-97179431D01*
X149577265Y-97179432D01*
X149390858Y-97309954D01*
X149229954Y-97470858D01*
X149099432Y-97657265D01*
X149099431Y-97657267D01*
X149003261Y-97863502D01*
X149003258Y-97863511D01*
X148944366Y-98083302D01*
X148944364Y-98083313D01*
X148924532Y-98309998D01*
X148924532Y-98310001D01*
X148944364Y-98536686D01*
X148944366Y-98536697D01*
X149003258Y-98756488D01*
X149003261Y-98756497D01*
X149099431Y-98962732D01*
X149099432Y-98962734D01*
X149229954Y-99149141D01*
X149390858Y-99310045D01*
X149390861Y-99310047D01*
X149577266Y-99440568D01*
X149783504Y-99536739D01*
X150003308Y-99595635D01*
X150165230Y-99609801D01*
X150229998Y-99615468D01*
X150230000Y-99615468D01*
X150230002Y-99615468D01*
X150286673Y-99610509D01*
X150456692Y-99595635D01*
X150676496Y-99536739D01*
X150882734Y-99440568D01*
X151069139Y-99310047D01*
X151230047Y-99149139D01*
X151360568Y-98962734D01*
X151456739Y-98756496D01*
X151515635Y-98536692D01*
X151535468Y-98310000D01*
X151515635Y-98083308D01*
X151456739Y-97863504D01*
X151360568Y-97657266D01*
X151230047Y-97470861D01*
X151230045Y-97470858D01*
X151069141Y-97309954D01*
X150882734Y-97179432D01*
X150882728Y-97179429D01*
X150824725Y-97152382D01*
X150772285Y-97106210D01*
X150753133Y-97039017D01*
X150773348Y-96972135D01*
X150824725Y-96927618D01*
X150882734Y-96900568D01*
X151069139Y-96770047D01*
X151230047Y-96609139D01*
X151360568Y-96422734D01*
X151456739Y-96216496D01*
X151515635Y-95996692D01*
X151535468Y-95770000D01*
X151533175Y-95743796D01*
X151528812Y-95693920D01*
X151515635Y-95543308D01*
X151456739Y-95323504D01*
X151360568Y-95117266D01*
X151230047Y-94930861D01*
X151230045Y-94930858D01*
X151069141Y-94769954D01*
X150882734Y-94639432D01*
X150882728Y-94639429D01*
X150824725Y-94612382D01*
X150772285Y-94566210D01*
X150753133Y-94499017D01*
X150773348Y-94432135D01*
X150824725Y-94387618D01*
X150882734Y-94360568D01*
X151069139Y-94230047D01*
X151230047Y-94069139D01*
X151360568Y-93882734D01*
X151456739Y-93676496D01*
X151515635Y-93456692D01*
X151535468Y-93230000D01*
X151526468Y-93127135D01*
X154153132Y-93127135D01*
X154153132Y-94922870D01*
X154153133Y-94922876D01*
X154159540Y-94982483D01*
X154209834Y-95117328D01*
X154209838Y-95117335D01*
X154296084Y-95232544D01*
X154296087Y-95232547D01*
X154411296Y-95318793D01*
X154411303Y-95318797D01*
X154473534Y-95342007D01*
X154543230Y-95368002D01*
X154599163Y-95409873D01*
X154623581Y-95475337D01*
X154608730Y-95543610D01*
X154587579Y-95571865D01*
X154465518Y-95693926D01*
X154330032Y-95887420D01*
X154330031Y-95887422D01*
X154230202Y-96101507D01*
X154230199Y-96101513D01*
X154172996Y-96314999D01*
X154172996Y-96315000D01*
X155070620Y-96315000D01*
X155037707Y-96372007D01*
X155003632Y-96499174D01*
X155003632Y-96630826D01*
X155037707Y-96757993D01*
X155070620Y-96815000D01*
X154172996Y-96815000D01*
X154230199Y-97028486D01*
X154230202Y-97028492D01*
X154330031Y-97242578D01*
X154465526Y-97436082D01*
X154632549Y-97603105D01*
X154826053Y-97738600D01*
X155040139Y-97838429D01*
X155040148Y-97838433D01*
X155253632Y-97895634D01*
X155253632Y-96998012D01*
X155310639Y-97030925D01*
X155437806Y-97065000D01*
X155569458Y-97065000D01*
X155696625Y-97030925D01*
X155753632Y-96998012D01*
X155753632Y-97895633D01*
X155967115Y-97838433D01*
X155967124Y-97838429D01*
X156181210Y-97738600D01*
X156374714Y-97603105D01*
X156541737Y-97436082D01*
X156677232Y-97242578D01*
X156777061Y-97028492D01*
X156777064Y-97028486D01*
X156834268Y-96815000D01*
X155936644Y-96815000D01*
X155969557Y-96757993D01*
X156003632Y-96630826D01*
X156003632Y-96499174D01*
X155969557Y-96372007D01*
X155936644Y-96315000D01*
X156834268Y-96315000D01*
X156834267Y-96314999D01*
X156777064Y-96101513D01*
X156777061Y-96101507D01*
X156677232Y-95887422D01*
X156677231Y-95887420D01*
X156541745Y-95693926D01*
X156541740Y-95693920D01*
X156419685Y-95571865D01*
X156386200Y-95510542D01*
X156391184Y-95440850D01*
X156433056Y-95384917D01*
X156464032Y-95368002D01*
X156553479Y-95334641D01*
X156595958Y-95318798D01*
X156595958Y-95318797D01*
X156595963Y-95318796D01*
X156711178Y-95232546D01*
X156797428Y-95117331D01*
X156847723Y-94982483D01*
X156854132Y-94922873D01*
X156854131Y-93127128D01*
X156847723Y-93067517D01*
X156843504Y-93056206D01*
X156797429Y-92932671D01*
X156797425Y-92932664D01*
X156711179Y-92817455D01*
X156711176Y-92817452D01*
X156595967Y-92731206D01*
X156595960Y-92731202D01*
X156461114Y-92680908D01*
X156461115Y-92680908D01*
X156401515Y-92674501D01*
X156401513Y-92674500D01*
X156401505Y-92674500D01*
X156401496Y-92674500D01*
X154605761Y-92674500D01*
X154605755Y-92674501D01*
X154546148Y-92680908D01*
X154411303Y-92731202D01*
X154411296Y-92731206D01*
X154296087Y-92817452D01*
X154296084Y-92817455D01*
X154209838Y-92932664D01*
X154209834Y-92932671D01*
X154159540Y-93067517D01*
X154153133Y-93127116D01*
X154153133Y-93127123D01*
X154153132Y-93127135D01*
X151526468Y-93127135D01*
X151515635Y-93003308D01*
X151456739Y-92783504D01*
X151360568Y-92577266D01*
X151230047Y-92390861D01*
X151230045Y-92390858D01*
X151069141Y-92229954D01*
X150882734Y-92099432D01*
X150882728Y-92099429D01*
X150824725Y-92072382D01*
X150772285Y-92026210D01*
X150753133Y-91959017D01*
X150773348Y-91892135D01*
X150824725Y-91847618D01*
X150882734Y-91820568D01*
X151069139Y-91690047D01*
X151230047Y-91529139D01*
X151360568Y-91342734D01*
X151456739Y-91136496D01*
X151515635Y-90916692D01*
X151535468Y-90690000D01*
X151534902Y-90683535D01*
X151518644Y-90497702D01*
X151515635Y-90463308D01*
X151456739Y-90243504D01*
X151360568Y-90037266D01*
X151230047Y-89850861D01*
X151230045Y-89850858D01*
X151069141Y-89689954D01*
X150882734Y-89559432D01*
X150882728Y-89559429D01*
X150824725Y-89532382D01*
X150772285Y-89486210D01*
X150753133Y-89419017D01*
X150773348Y-89352135D01*
X150824725Y-89307618D01*
X150882734Y-89280568D01*
X151069139Y-89150047D01*
X151230047Y-88989139D01*
X151360568Y-88802734D01*
X151456739Y-88596496D01*
X151515635Y-88376692D01*
X151535468Y-88150000D01*
X151515635Y-87923308D01*
X151456739Y-87703504D01*
X151360568Y-87497266D01*
X151230047Y-87310861D01*
X151230045Y-87310858D01*
X151069141Y-87149954D01*
X150933530Y-87054999D01*
X154144341Y-87054999D01*
X154144341Y-87055000D01*
X154164936Y-87290403D01*
X154164938Y-87290413D01*
X154226094Y-87518655D01*
X154226096Y-87518659D01*
X154226097Y-87518663D01*
X154309018Y-87696488D01*
X154325965Y-87732830D01*
X154325967Y-87732834D01*
X154461501Y-87926395D01*
X154461506Y-87926402D01*
X154628597Y-88093493D01*
X154628603Y-88093498D01*
X154814158Y-88223425D01*
X154857783Y-88278002D01*
X154864977Y-88347500D01*
X154833454Y-88409855D01*
X154814158Y-88426575D01*
X154628597Y-88556505D01*
X154461505Y-88723597D01*
X154325965Y-88917169D01*
X154325964Y-88917171D01*
X154226098Y-89131335D01*
X154226094Y-89131344D01*
X154164938Y-89359586D01*
X154164936Y-89359596D01*
X154144341Y-89594999D01*
X154144341Y-89595000D01*
X154164936Y-89830403D01*
X154164938Y-89830413D01*
X154226094Y-90058655D01*
X154226096Y-90058659D01*
X154226097Y-90058663D01*
X154312289Y-90243502D01*
X154325965Y-90272830D01*
X154325967Y-90272834D01*
X154434281Y-90427521D01*
X154461505Y-90466401D01*
X154628599Y-90633495D01*
X154709298Y-90690001D01*
X154822165Y-90769032D01*
X154822167Y-90769033D01*
X154822170Y-90769035D01*
X155036337Y-90868903D01*
X155264592Y-90930063D01*
X155452918Y-90946539D01*
X155499999Y-90950659D01*
X155500000Y-90950659D01*
X155500001Y-90950659D01*
X155539234Y-90947226D01*
X155735408Y-90930063D01*
X155963663Y-90868903D01*
X156177830Y-90769035D01*
X156371401Y-90633495D01*
X156538495Y-90466401D01*
X156674035Y-90272830D01*
X156773903Y-90058663D01*
X156835063Y-89830408D01*
X156855659Y-89595000D01*
X156835063Y-89359592D01*
X156773903Y-89131337D01*
X156674035Y-88917171D01*
X156593905Y-88802732D01*
X156538494Y-88723597D01*
X156371402Y-88556506D01*
X156371396Y-88556501D01*
X156185842Y-88426575D01*
X156142217Y-88371998D01*
X156135023Y-88302500D01*
X156166546Y-88240145D01*
X156185842Y-88223425D01*
X156290702Y-88150001D01*
X156371401Y-88093495D01*
X156538495Y-87926401D01*
X156674035Y-87732830D01*
X156773903Y-87518663D01*
X156835063Y-87290408D01*
X156855659Y-87055000D01*
X156835063Y-86819592D01*
X156773903Y-86591337D01*
X156674035Y-86377171D01*
X156593904Y-86262732D01*
X156538496Y-86183600D01*
X156538495Y-86183599D01*
X156416179Y-86061283D01*
X156382696Y-85999963D01*
X156387680Y-85930271D01*
X156429551Y-85874337D01*
X156460529Y-85857422D01*
X156592086Y-85808354D01*
X156592093Y-85808350D01*
X156707187Y-85722190D01*
X156707190Y-85722187D01*
X156793350Y-85607093D01*
X156793354Y-85607086D01*
X156843596Y-85472379D01*
X156843598Y-85472372D01*
X156849999Y-85412844D01*
X156850000Y-85412827D01*
X156850000Y-84765000D01*
X155933012Y-84765000D01*
X155965925Y-84707993D01*
X156000000Y-84580826D01*
X156000000Y-84449174D01*
X155965925Y-84322007D01*
X155933012Y-84265000D01*
X156850000Y-84265000D01*
X156850000Y-83617172D01*
X156849999Y-83617155D01*
X156843598Y-83557627D01*
X156843596Y-83557620D01*
X156793354Y-83422913D01*
X156793350Y-83422906D01*
X156707190Y-83307812D01*
X156707187Y-83307809D01*
X156592093Y-83221649D01*
X156592086Y-83221645D01*
X156457379Y-83171403D01*
X156457372Y-83171401D01*
X156397844Y-83165000D01*
X155750000Y-83165000D01*
X155750000Y-84081988D01*
X155692993Y-84049075D01*
X155565826Y-84015000D01*
X155434174Y-84015000D01*
X155307007Y-84049075D01*
X155250000Y-84081988D01*
X155250000Y-83165000D01*
X154602155Y-83165000D01*
X154542627Y-83171401D01*
X154542620Y-83171403D01*
X154407913Y-83221645D01*
X154407906Y-83221649D01*
X154292812Y-83307809D01*
X154292809Y-83307812D01*
X154206649Y-83422906D01*
X154206645Y-83422913D01*
X154156403Y-83557620D01*
X154156401Y-83557627D01*
X154150000Y-83617155D01*
X154150000Y-84265000D01*
X155066988Y-84265000D01*
X155034075Y-84322007D01*
X155000000Y-84449174D01*
X155000000Y-84580826D01*
X155034075Y-84707993D01*
X155066988Y-84765000D01*
X154150000Y-84765000D01*
X154150000Y-85412844D01*
X154156401Y-85472372D01*
X154156403Y-85472379D01*
X154206645Y-85607086D01*
X154206649Y-85607093D01*
X154292809Y-85722187D01*
X154292812Y-85722190D01*
X154407906Y-85808350D01*
X154407913Y-85808354D01*
X154539470Y-85857421D01*
X154595403Y-85899292D01*
X154619821Y-85964756D01*
X154604970Y-86033029D01*
X154583819Y-86061284D01*
X154461503Y-86183600D01*
X154325965Y-86377169D01*
X154325964Y-86377171D01*
X154226098Y-86591335D01*
X154226094Y-86591344D01*
X154164938Y-86819586D01*
X154164936Y-86819596D01*
X154144341Y-87054999D01*
X150933530Y-87054999D01*
X150882734Y-87019432D01*
X150882728Y-87019429D01*
X150824725Y-86992382D01*
X150772285Y-86946210D01*
X150753133Y-86879017D01*
X150773348Y-86812135D01*
X150824725Y-86767618D01*
X150882734Y-86740568D01*
X151069139Y-86610047D01*
X151230047Y-86449139D01*
X151360568Y-86262734D01*
X151456739Y-86056496D01*
X151515635Y-85836692D01*
X151535468Y-85610000D01*
X151515635Y-85383308D01*
X151456739Y-85163504D01*
X151360568Y-84957266D01*
X151230047Y-84770861D01*
X151230045Y-84770858D01*
X151069141Y-84609954D01*
X150882734Y-84479432D01*
X150882728Y-84479429D01*
X150824725Y-84452382D01*
X150772285Y-84406210D01*
X150753133Y-84339017D01*
X150773348Y-84272135D01*
X150824725Y-84227618D01*
X150882734Y-84200568D01*
X151069139Y-84070047D01*
X151230047Y-83909139D01*
X151360568Y-83722734D01*
X151456739Y-83516496D01*
X151515635Y-83296692D01*
X151535468Y-83070000D01*
X151515635Y-82843308D01*
X151456739Y-82623504D01*
X151360568Y-82417266D01*
X151230047Y-82230861D01*
X151230045Y-82230858D01*
X151069141Y-82069954D01*
X150882734Y-81939432D01*
X150882728Y-81939429D01*
X150824725Y-81912382D01*
X150772285Y-81866210D01*
X150753133Y-81799017D01*
X150773348Y-81732135D01*
X150824725Y-81687618D01*
X150882734Y-81660568D01*
X151069139Y-81530047D01*
X151230047Y-81369139D01*
X151360568Y-81182734D01*
X151456739Y-80976496D01*
X151515635Y-80756692D01*
X151535468Y-80530000D01*
X151515635Y-80303308D01*
X151456739Y-80083504D01*
X151360568Y-79877266D01*
X151230047Y-79690861D01*
X151230045Y-79690858D01*
X151069141Y-79529954D01*
X150882734Y-79399432D01*
X150882728Y-79399429D01*
X150824725Y-79372382D01*
X150772285Y-79326210D01*
X150753133Y-79259017D01*
X150773348Y-79192135D01*
X150824725Y-79147618D01*
X150882734Y-79120568D01*
X151069139Y-78990047D01*
X151230047Y-78829139D01*
X151360568Y-78642734D01*
X151456739Y-78436496D01*
X151515635Y-78216692D01*
X151535468Y-77990000D01*
X151515635Y-77763308D01*
X151456739Y-77543504D01*
X151455105Y-77539999D01*
X154144341Y-77539999D01*
X154144341Y-77540000D01*
X154164936Y-77775403D01*
X154164938Y-77775413D01*
X154226094Y-78003655D01*
X154226096Y-78003659D01*
X154226097Y-78003663D01*
X154294335Y-78150000D01*
X154325965Y-78217830D01*
X154325967Y-78217834D01*
X154461501Y-78411395D01*
X154461506Y-78411402D01*
X154628597Y-78578493D01*
X154628603Y-78578498D01*
X154814158Y-78708425D01*
X154857783Y-78763002D01*
X154864977Y-78832500D01*
X154833454Y-78894855D01*
X154814158Y-78911575D01*
X154628597Y-79041505D01*
X154461505Y-79208597D01*
X154325965Y-79402169D01*
X154325964Y-79402171D01*
X154226098Y-79616335D01*
X154226094Y-79616344D01*
X154164938Y-79844586D01*
X154164936Y-79844596D01*
X154144341Y-80079999D01*
X154144341Y-80080000D01*
X154164936Y-80315403D01*
X154164938Y-80315413D01*
X154226094Y-80543655D01*
X154226096Y-80543659D01*
X154226097Y-80543663D01*
X154295415Y-80692315D01*
X154325965Y-80757830D01*
X154325967Y-80757834D01*
X154351352Y-80794087D01*
X154461505Y-80951401D01*
X154628599Y-81118495D01*
X154720339Y-81182732D01*
X154822165Y-81254032D01*
X154822167Y-81254033D01*
X154822170Y-81254035D01*
X155036337Y-81353903D01*
X155264592Y-81415063D01*
X155452918Y-81431539D01*
X155499999Y-81435659D01*
X155500000Y-81435659D01*
X155500001Y-81435659D01*
X155539234Y-81432226D01*
X155735408Y-81415063D01*
X155963663Y-81353903D01*
X156177830Y-81254035D01*
X156371401Y-81118495D01*
X156538495Y-80951401D01*
X156674035Y-80757830D01*
X156773903Y-80543663D01*
X156835063Y-80315408D01*
X156855659Y-80080000D01*
X156835063Y-79844592D01*
X156773903Y-79616337D01*
X156674035Y-79402171D01*
X156672118Y-79399432D01*
X156538494Y-79208597D01*
X156371402Y-79041506D01*
X156371396Y-79041501D01*
X156185842Y-78911575D01*
X156142217Y-78856998D01*
X156135023Y-78787500D01*
X156166546Y-78725145D01*
X156185842Y-78708425D01*
X156279661Y-78642732D01*
X156371401Y-78578495D01*
X156538495Y-78411401D01*
X156674035Y-78217830D01*
X156773903Y-78003663D01*
X156835063Y-77775408D01*
X156855659Y-77540000D01*
X156835063Y-77304592D01*
X156773903Y-77076337D01*
X156674035Y-76862171D01*
X156672117Y-76859432D01*
X156538496Y-76668600D01*
X156477514Y-76607618D01*
X156416179Y-76546283D01*
X156382696Y-76484963D01*
X156387680Y-76415271D01*
X156429551Y-76359337D01*
X156460529Y-76342422D01*
X156592086Y-76293354D01*
X156592093Y-76293350D01*
X156707187Y-76207190D01*
X156707190Y-76207187D01*
X156793350Y-76092093D01*
X156793354Y-76092086D01*
X156843596Y-75957379D01*
X156843598Y-75957372D01*
X156849999Y-75897844D01*
X156850000Y-75897827D01*
X156850000Y-75250000D01*
X155933012Y-75250000D01*
X155965925Y-75192993D01*
X156000000Y-75065826D01*
X156000000Y-74934174D01*
X155965925Y-74807007D01*
X155933012Y-74750000D01*
X156850000Y-74750000D01*
X156850000Y-74102172D01*
X156849999Y-74102155D01*
X156843598Y-74042627D01*
X156843596Y-74042620D01*
X156793354Y-73907913D01*
X156793350Y-73907906D01*
X156707190Y-73792812D01*
X156707187Y-73792809D01*
X156592093Y-73706649D01*
X156592086Y-73706645D01*
X156457379Y-73656403D01*
X156457372Y-73656401D01*
X156397844Y-73650000D01*
X155750000Y-73650000D01*
X155750000Y-74566988D01*
X155692993Y-74534075D01*
X155565826Y-74500000D01*
X155434174Y-74500000D01*
X155307007Y-74534075D01*
X155250000Y-74566988D01*
X155250000Y-73650000D01*
X154602155Y-73650000D01*
X154542627Y-73656401D01*
X154542620Y-73656403D01*
X154407913Y-73706645D01*
X154407906Y-73706649D01*
X154292812Y-73792809D01*
X154292809Y-73792812D01*
X154206649Y-73907906D01*
X154206645Y-73907913D01*
X154156403Y-74042620D01*
X154156401Y-74042627D01*
X154150000Y-74102155D01*
X154150000Y-74750000D01*
X155066988Y-74750000D01*
X155034075Y-74807007D01*
X155000000Y-74934174D01*
X155000000Y-75065826D01*
X155034075Y-75192993D01*
X155066988Y-75250000D01*
X154150000Y-75250000D01*
X154150000Y-75897844D01*
X154156401Y-75957372D01*
X154156403Y-75957379D01*
X154206645Y-76092086D01*
X154206649Y-76092093D01*
X154292809Y-76207187D01*
X154292812Y-76207190D01*
X154407906Y-76293350D01*
X154407913Y-76293354D01*
X154539470Y-76342421D01*
X154595403Y-76384292D01*
X154619821Y-76449756D01*
X154604970Y-76518029D01*
X154583819Y-76546284D01*
X154461503Y-76668600D01*
X154325965Y-76862169D01*
X154325964Y-76862171D01*
X154226098Y-77076335D01*
X154226094Y-77076344D01*
X154164938Y-77304586D01*
X154164936Y-77304596D01*
X154144341Y-77539999D01*
X151455105Y-77539999D01*
X151360568Y-77337266D01*
X151230047Y-77150861D01*
X151230045Y-77150858D01*
X151069141Y-76989954D01*
X150882734Y-76859432D01*
X150882728Y-76859429D01*
X150824725Y-76832382D01*
X150772285Y-76786210D01*
X150753133Y-76719017D01*
X150773348Y-76652135D01*
X150824725Y-76607618D01*
X150882734Y-76580568D01*
X151069139Y-76450047D01*
X151230047Y-76289139D01*
X151360568Y-76102734D01*
X151456739Y-75896496D01*
X151515635Y-75676692D01*
X151535468Y-75450000D01*
X151515635Y-75223308D01*
X151456739Y-75003504D01*
X151360568Y-74797266D01*
X151230047Y-74610861D01*
X151230045Y-74610858D01*
X151069141Y-74449954D01*
X150882734Y-74319432D01*
X150882728Y-74319429D01*
X150824725Y-74292382D01*
X150772285Y-74246210D01*
X150753133Y-74179017D01*
X150773348Y-74112135D01*
X150824725Y-74067618D01*
X150882734Y-74040568D01*
X151069139Y-73910047D01*
X151230047Y-73749139D01*
X151360568Y-73562734D01*
X151456739Y-73356496D01*
X151515635Y-73136692D01*
X151535468Y-72910000D01*
X151515635Y-72683308D01*
X151456739Y-72463504D01*
X151360568Y-72257266D01*
X151230047Y-72070861D01*
X151230045Y-72070858D01*
X151069141Y-71909954D01*
X150882734Y-71779432D01*
X150882728Y-71779429D01*
X150824725Y-71752382D01*
X150772285Y-71706210D01*
X150753133Y-71639017D01*
X150773348Y-71572135D01*
X150824725Y-71527618D01*
X150825319Y-71527341D01*
X150882734Y-71500568D01*
X151069139Y-71370047D01*
X151230047Y-71209139D01*
X151360568Y-71022734D01*
X151456739Y-70816496D01*
X151515635Y-70596692D01*
X151535468Y-70370000D01*
X151515635Y-70143308D01*
X151456739Y-69923504D01*
X151360568Y-69717266D01*
X151230047Y-69530861D01*
X151230045Y-69530858D01*
X151069141Y-69369954D01*
X150882734Y-69239432D01*
X150882728Y-69239429D01*
X150824725Y-69212382D01*
X150772285Y-69166210D01*
X150753133Y-69099017D01*
X150773348Y-69032135D01*
X150824725Y-68987618D01*
X150882734Y-68960568D01*
X151069139Y-68830047D01*
X151230047Y-68669139D01*
X151360568Y-68482734D01*
X151456739Y-68276496D01*
X151515635Y-68056692D01*
X151535468Y-67830000D01*
X151515635Y-67603308D01*
X151456739Y-67383504D01*
X151360568Y-67177266D01*
X151230047Y-66990861D01*
X151230045Y-66990858D01*
X151069141Y-66829954D01*
X150882734Y-66699432D01*
X150882732Y-66699431D01*
X150824725Y-66672382D01*
X150824132Y-66672105D01*
X150771694Y-66625934D01*
X150752542Y-66558740D01*
X150772758Y-66491859D01*
X150824134Y-66447341D01*
X150882484Y-66420132D01*
X151068820Y-66289657D01*
X151229657Y-66128820D01*
X151360134Y-65942482D01*
X151456265Y-65736326D01*
X151456269Y-65736317D01*
X151508872Y-65540000D01*
X150663012Y-65540000D01*
X150695925Y-65482993D01*
X150730000Y-65355826D01*
X150730000Y-65264999D01*
X154144341Y-65264999D01*
X154144341Y-65265000D01*
X154164936Y-65500403D01*
X154164938Y-65500413D01*
X154226094Y-65728655D01*
X154226096Y-65728659D01*
X154226097Y-65728663D01*
X154238810Y-65755925D01*
X154325965Y-65942830D01*
X154325967Y-65942834D01*
X154434281Y-66097521D01*
X154456421Y-66129141D01*
X154461501Y-66136395D01*
X154461506Y-66136402D01*
X154628597Y-66303493D01*
X154628603Y-66303498D01*
X154814158Y-66433425D01*
X154857783Y-66488002D01*
X154864977Y-66557500D01*
X154833454Y-66619855D01*
X154814158Y-66636575D01*
X154628597Y-66766505D01*
X154461505Y-66933597D01*
X154325965Y-67127169D01*
X154325964Y-67127171D01*
X154226098Y-67341335D01*
X154226094Y-67341344D01*
X154164938Y-67569586D01*
X154164936Y-67569596D01*
X154144341Y-67804999D01*
X154144341Y-67805000D01*
X154164936Y-68040403D01*
X154164938Y-68040413D01*
X154226094Y-68268655D01*
X154226096Y-68268659D01*
X154226097Y-68268663D01*
X154325919Y-68482732D01*
X154325965Y-68482830D01*
X154325967Y-68482834D01*
X154434281Y-68637521D01*
X154456421Y-68669141D01*
X154461501Y-68676395D01*
X154461506Y-68676402D01*
X154628597Y-68843493D01*
X154628603Y-68843498D01*
X154814158Y-68973425D01*
X154857783Y-69028002D01*
X154864977Y-69097500D01*
X154833454Y-69159855D01*
X154814158Y-69176575D01*
X154628597Y-69306505D01*
X154461505Y-69473597D01*
X154325965Y-69667169D01*
X154325964Y-69667171D01*
X154226098Y-69881335D01*
X154226094Y-69881344D01*
X154164938Y-70109586D01*
X154164936Y-70109596D01*
X154144341Y-70344999D01*
X154144341Y-70345000D01*
X154164936Y-70580403D01*
X154164938Y-70580413D01*
X154226094Y-70808655D01*
X154226096Y-70808659D01*
X154226097Y-70808663D01*
X154286717Y-70938663D01*
X154325965Y-71022830D01*
X154325967Y-71022834D01*
X154393769Y-71119664D01*
X154461505Y-71216401D01*
X154628599Y-71383495D01*
X154640130Y-71391569D01*
X154822165Y-71519032D01*
X154822167Y-71519033D01*
X154822170Y-71519035D01*
X155036337Y-71618903D01*
X155036343Y-71618904D01*
X155036344Y-71618905D01*
X155091285Y-71633626D01*
X155264592Y-71680063D01*
X155452918Y-71696539D01*
X155499999Y-71700659D01*
X155500000Y-71700659D01*
X155500001Y-71700659D01*
X155539234Y-71697226D01*
X155735408Y-71680063D01*
X155963663Y-71618903D01*
X156177830Y-71519035D01*
X156371401Y-71383495D01*
X156538495Y-71216401D01*
X156674035Y-71022830D01*
X156773903Y-70808663D01*
X156835063Y-70580408D01*
X156855659Y-70345000D01*
X156835063Y-70109592D01*
X156785203Y-69923511D01*
X156773905Y-69881344D01*
X156773904Y-69881343D01*
X156773903Y-69881337D01*
X156674035Y-69667171D01*
X156629521Y-69603597D01*
X156538494Y-69473597D01*
X156371402Y-69306506D01*
X156371396Y-69306501D01*
X156185842Y-69176575D01*
X156142217Y-69121998D01*
X156135023Y-69052500D01*
X156166546Y-68990145D01*
X156185842Y-68973425D01*
X156208026Y-68957891D01*
X156371401Y-68843495D01*
X156538495Y-68676401D01*
X156674035Y-68482830D01*
X156773903Y-68268663D01*
X156835063Y-68040408D01*
X156855659Y-67805000D01*
X156835063Y-67569592D01*
X156785203Y-67383511D01*
X156773905Y-67341344D01*
X156773904Y-67341343D01*
X156773903Y-67341337D01*
X156674035Y-67127171D01*
X156578591Y-66990861D01*
X156538494Y-66933597D01*
X156371402Y-66766506D01*
X156371396Y-66766501D01*
X156185842Y-66636575D01*
X156142217Y-66581998D01*
X156135023Y-66512500D01*
X156166546Y-66450145D01*
X156185842Y-66433425D01*
X156208026Y-66417891D01*
X156371401Y-66303495D01*
X156538495Y-66136401D01*
X156674035Y-65942830D01*
X156773903Y-65728663D01*
X156835063Y-65500408D01*
X156855659Y-65265000D01*
X156835063Y-65029592D01*
X156785203Y-64843511D01*
X156773905Y-64801344D01*
X156773904Y-64801343D01*
X156773903Y-64801337D01*
X156674035Y-64587171D01*
X156538495Y-64393599D01*
X156416179Y-64271283D01*
X156382696Y-64209963D01*
X156387680Y-64140271D01*
X156429551Y-64084337D01*
X156460529Y-64067422D01*
X156592086Y-64018354D01*
X156592093Y-64018350D01*
X156707187Y-63932190D01*
X156707190Y-63932187D01*
X156793350Y-63817093D01*
X156793354Y-63817086D01*
X156843596Y-63682379D01*
X156843598Y-63682372D01*
X156849999Y-63622844D01*
X156850000Y-63622827D01*
X156850000Y-62975000D01*
X155933012Y-62975000D01*
X155965925Y-62917993D01*
X156000000Y-62790826D01*
X156000000Y-62659174D01*
X155965925Y-62532007D01*
X155933012Y-62475000D01*
X156850000Y-62475000D01*
X156850000Y-61827172D01*
X156849999Y-61827155D01*
X156843598Y-61767627D01*
X156843596Y-61767620D01*
X156793354Y-61632913D01*
X156793350Y-61632906D01*
X156707190Y-61517812D01*
X156707187Y-61517809D01*
X156592093Y-61431649D01*
X156592086Y-61431645D01*
X156457379Y-61381403D01*
X156457372Y-61381401D01*
X156397844Y-61375000D01*
X155750000Y-61375000D01*
X155750000Y-62291988D01*
X155692993Y-62259075D01*
X155565826Y-62225000D01*
X155434174Y-62225000D01*
X155307007Y-62259075D01*
X155250000Y-62291988D01*
X155250000Y-61375000D01*
X154602155Y-61375000D01*
X154542627Y-61381401D01*
X154542620Y-61381403D01*
X154407913Y-61431645D01*
X154407906Y-61431649D01*
X154292812Y-61517809D01*
X154292809Y-61517812D01*
X154206649Y-61632906D01*
X154206645Y-61632913D01*
X154156403Y-61767620D01*
X154156401Y-61767627D01*
X154150000Y-61827155D01*
X154150000Y-62475000D01*
X155066988Y-62475000D01*
X155034075Y-62532007D01*
X155000000Y-62659174D01*
X155000000Y-62790826D01*
X155034075Y-62917993D01*
X155066988Y-62975000D01*
X154150000Y-62975000D01*
X154150000Y-63622844D01*
X154156401Y-63682372D01*
X154156403Y-63682379D01*
X154206645Y-63817086D01*
X154206649Y-63817093D01*
X154292809Y-63932187D01*
X154292812Y-63932190D01*
X154407906Y-64018350D01*
X154407913Y-64018354D01*
X154539470Y-64067421D01*
X154595403Y-64109292D01*
X154619821Y-64174756D01*
X154604970Y-64243029D01*
X154583819Y-64271284D01*
X154461503Y-64393600D01*
X154325965Y-64587169D01*
X154325964Y-64587171D01*
X154226098Y-64801335D01*
X154226094Y-64801344D01*
X154164938Y-65029586D01*
X154164936Y-65029596D01*
X154144341Y-65264999D01*
X150730000Y-65264999D01*
X150730000Y-65224174D01*
X150695925Y-65097007D01*
X150663012Y-65040000D01*
X151508872Y-65040000D01*
X151508872Y-65039999D01*
X151456269Y-64843682D01*
X151456265Y-64843673D01*
X151360134Y-64637517D01*
X151229657Y-64451179D01*
X151068820Y-64290342D01*
X150882482Y-64159865D01*
X150824133Y-64132657D01*
X150771694Y-64086484D01*
X150752542Y-64019291D01*
X150772758Y-63952410D01*
X150824129Y-63907895D01*
X150882734Y-63880568D01*
X151069139Y-63750047D01*
X151230047Y-63589139D01*
X151360568Y-63402734D01*
X151456739Y-63196496D01*
X151515635Y-62976692D01*
X151535468Y-62750000D01*
X151515635Y-62523308D01*
X151456739Y-62303504D01*
X151360568Y-62097266D01*
X151230047Y-61910861D01*
X151230045Y-61910858D01*
X151069141Y-61749954D01*
X150882734Y-61619432D01*
X150882732Y-61619431D01*
X150676497Y-61523261D01*
X150676488Y-61523258D01*
X150456697Y-61464366D01*
X150456693Y-61464365D01*
X150456692Y-61464365D01*
X150456691Y-61464364D01*
X150456686Y-61464364D01*
X150230002Y-61444532D01*
X150229998Y-61444532D01*
X150003313Y-61464364D01*
X150003302Y-61464366D01*
X149783511Y-61523258D01*
X149783502Y-61523261D01*
X149577267Y-61619431D01*
X149577265Y-61619432D01*
X149390858Y-61749954D01*
X149229954Y-61910858D01*
X149099432Y-62097265D01*
X149099431Y-62097267D01*
X149003261Y-62303502D01*
X149003258Y-62303511D01*
X148944366Y-62523302D01*
X148944364Y-62523313D01*
X148924532Y-62749998D01*
X136290499Y-62749998D01*
X136290499Y-61902128D01*
X136284091Y-61842517D01*
X136278361Y-61827155D01*
X136233797Y-61707671D01*
X136233793Y-61707664D01*
X136147547Y-61592455D01*
X136147544Y-61592452D01*
X136032335Y-61506206D01*
X136032328Y-61506202D01*
X135897482Y-61455908D01*
X135897483Y-61455908D01*
X135837883Y-61449501D01*
X135837881Y-61449500D01*
X135837873Y-61449500D01*
X135837864Y-61449500D01*
X134142129Y-61449500D01*
X134142123Y-61449501D01*
X134082516Y-61455908D01*
X133947671Y-61506202D01*
X133947664Y-61506206D01*
X133832455Y-61592452D01*
X133832452Y-61592455D01*
X133746206Y-61707664D01*
X133746202Y-61707671D01*
X133695908Y-61842517D01*
X133689501Y-61902116D01*
X133689501Y-61902123D01*
X133689500Y-61902135D01*
X133689500Y-63597870D01*
X133689501Y-63597876D01*
X133695908Y-63657483D01*
X133746202Y-63792328D01*
X133746206Y-63792335D01*
X133832452Y-63907544D01*
X133832455Y-63907547D01*
X133947664Y-63993793D01*
X133947671Y-63993797D01*
X133992618Y-64010561D01*
X134082517Y-64044091D01*
X134117596Y-64047862D01*
X134182144Y-64074599D01*
X134221993Y-64131991D01*
X134224488Y-64201816D01*
X134188836Y-64261905D01*
X134175464Y-64272725D01*
X134150858Y-64289954D01*
X133989954Y-64450858D01*
X133859432Y-64637265D01*
X133859431Y-64637267D01*
X133763261Y-64843502D01*
X133763258Y-64843511D01*
X133704366Y-65063302D01*
X133704364Y-65063313D01*
X133684532Y-65289998D01*
X121100500Y-65289998D01*
X121100500Y-61503246D01*
X121100670Y-61496756D01*
X121104082Y-61431645D01*
X121117170Y-61181920D01*
X121118527Y-61169014D01*
X121118527Y-61169012D01*
X121167337Y-60860842D01*
X121170030Y-60848166D01*
X121250793Y-60546758D01*
X121254797Y-60534436D01*
X121366623Y-60243121D01*
X121371886Y-60231300D01*
X121513549Y-59953273D01*
X121520037Y-59942037D01*
X121586487Y-59839715D01*
X121689983Y-59680348D01*
X121697593Y-59669873D01*
X121893970Y-59427370D01*
X121902637Y-59417745D01*
X122123277Y-59197109D01*
X122132903Y-59188441D01*
X122375404Y-58992071D01*
X122385885Y-58984455D01*
X122647593Y-58814503D01*
X122658801Y-58808032D01*
X122936826Y-58666375D01*
X122948674Y-58661102D01*
X123239974Y-58549286D01*
X123252303Y-58545279D01*
X123553696Y-58464525D01*
X123566373Y-58461830D01*
X123874582Y-58413018D01*
X123887461Y-58411665D01*
X124102799Y-58400383D01*
X124203279Y-58395119D01*
X124209765Y-58394949D01*
X124271436Y-58394950D01*
X124271440Y-58394949D01*
X162834108Y-58394949D01*
X162896754Y-58394949D01*
X162903243Y-58395118D01*
G37*
%TD.AperFunction*%
%TD*%
M02*
