%TF.GenerationSoftware,KiCad,Pcbnew,8.0.3*%
%TF.CreationDate,2024-09-28T16:02:09+02:00*%
%TF.ProjectId,pcb_robot,7063625f-726f-4626-9f74-2e6b69636164,rev?*%
%TF.SameCoordinates,Original*%
%TF.FileFunction,Legend,Top*%
%TF.FilePolarity,Positive*%
%FSLAX46Y46*%
G04 Gerber Fmt 4.6, Leading zero omitted, Abs format (unit mm)*
G04 Created by KiCad (PCBNEW 8.0.3) date 2024-09-28 16:02:09*
%MOMM*%
%LPD*%
G01*
G04 APERTURE LIST*
%ADD10C,0.100000*%
%ADD11C,0.150000*%
%ADD12C,0.120000*%
G04 APERTURE END LIST*
D10*
X130000000Y-109000000D02*
X163000000Y-109000000D01*
X163000000Y-115000000D01*
X130000000Y-115000000D01*
X130000000Y-109000000D01*
X163719331Y-112512443D02*
X164481235Y-112512443D01*
X165433616Y-111369586D02*
X164576474Y-112655300D01*
X166290760Y-112512443D02*
X167052664Y-112512443D01*
X166127580Y-86303884D02*
X167127580Y-86303884D01*
X167127580Y-86303884D02*
X166413295Y-86637217D01*
X166413295Y-86637217D02*
X167127580Y-86970550D01*
X167127580Y-86970550D02*
X166127580Y-86970550D01*
X166127580Y-87970550D02*
X166127580Y-87399122D01*
X166127580Y-87684836D02*
X167127580Y-87684836D01*
X167127580Y-87684836D02*
X166984723Y-87589598D01*
X166984723Y-87589598D02*
X166889485Y-87494360D01*
X166889485Y-87494360D02*
X166841866Y-87399122D01*
X143175200Y-76756265D02*
X143127580Y-76899122D01*
X143127580Y-76899122D02*
X143127580Y-77137217D01*
X143127580Y-77137217D02*
X143175200Y-77232455D01*
X143175200Y-77232455D02*
X143222819Y-77280074D01*
X143222819Y-77280074D02*
X143318057Y-77327693D01*
X143318057Y-77327693D02*
X143413295Y-77327693D01*
X143413295Y-77327693D02*
X143508533Y-77280074D01*
X143508533Y-77280074D02*
X143556152Y-77232455D01*
X143556152Y-77232455D02*
X143603771Y-77137217D01*
X143603771Y-77137217D02*
X143651390Y-76946741D01*
X143651390Y-76946741D02*
X143699009Y-76851503D01*
X143699009Y-76851503D02*
X143746628Y-76803884D01*
X143746628Y-76803884D02*
X143841866Y-76756265D01*
X143841866Y-76756265D02*
X143937104Y-76756265D01*
X143937104Y-76756265D02*
X144032342Y-76803884D01*
X144032342Y-76803884D02*
X144079961Y-76851503D01*
X144079961Y-76851503D02*
X144127580Y-76946741D01*
X144127580Y-76946741D02*
X144127580Y-77184836D01*
X144127580Y-77184836D02*
X144079961Y-77327693D01*
X144127580Y-77613408D02*
X144127580Y-78184836D01*
X143127580Y-77899122D02*
X144127580Y-77899122D01*
X143127580Y-78518170D02*
X144127580Y-78518170D01*
X144127580Y-78518170D02*
X143413295Y-78851503D01*
X143413295Y-78851503D02*
X144127580Y-79184836D01*
X144127580Y-79184836D02*
X143127580Y-79184836D01*
X144127580Y-79565789D02*
X144127580Y-80184836D01*
X144127580Y-80184836D02*
X143746628Y-79851503D01*
X143746628Y-79851503D02*
X143746628Y-79994360D01*
X143746628Y-79994360D02*
X143699009Y-80089598D01*
X143699009Y-80089598D02*
X143651390Y-80137217D01*
X143651390Y-80137217D02*
X143556152Y-80184836D01*
X143556152Y-80184836D02*
X143318057Y-80184836D01*
X143318057Y-80184836D02*
X143222819Y-80137217D01*
X143222819Y-80137217D02*
X143175200Y-80089598D01*
X143175200Y-80089598D02*
X143127580Y-79994360D01*
X143127580Y-79994360D02*
X143127580Y-79708646D01*
X143127580Y-79708646D02*
X143175200Y-79613408D01*
X143175200Y-79613408D02*
X143222819Y-79565789D01*
X144032342Y-80565789D02*
X144079961Y-80613408D01*
X144079961Y-80613408D02*
X144127580Y-80708646D01*
X144127580Y-80708646D02*
X144127580Y-80946741D01*
X144127580Y-80946741D02*
X144079961Y-81041979D01*
X144079961Y-81041979D02*
X144032342Y-81089598D01*
X144032342Y-81089598D02*
X143937104Y-81137217D01*
X143937104Y-81137217D02*
X143841866Y-81137217D01*
X143841866Y-81137217D02*
X143699009Y-81089598D01*
X143699009Y-81089598D02*
X143127580Y-80518170D01*
X143127580Y-80518170D02*
X143127580Y-81137217D01*
X143127580Y-82803884D02*
X143127580Y-82327694D01*
X143127580Y-82327694D02*
X144127580Y-82327694D01*
X143794247Y-83565789D02*
X143127580Y-83565789D01*
X144175200Y-83327694D02*
X143460914Y-83089599D01*
X143460914Y-83089599D02*
X143460914Y-83708646D01*
X144127580Y-83994361D02*
X144127580Y-84613408D01*
X144127580Y-84613408D02*
X143746628Y-84280075D01*
X143746628Y-84280075D02*
X143746628Y-84422932D01*
X143746628Y-84422932D02*
X143699009Y-84518170D01*
X143699009Y-84518170D02*
X143651390Y-84565789D01*
X143651390Y-84565789D02*
X143556152Y-84613408D01*
X143556152Y-84613408D02*
X143318057Y-84613408D01*
X143318057Y-84613408D02*
X143222819Y-84565789D01*
X143222819Y-84565789D02*
X143175200Y-84518170D01*
X143175200Y-84518170D02*
X143127580Y-84422932D01*
X143127580Y-84422932D02*
X143127580Y-84137218D01*
X143127580Y-84137218D02*
X143175200Y-84041980D01*
X143175200Y-84041980D02*
X143222819Y-83994361D01*
X144032342Y-84994361D02*
X144079961Y-85041980D01*
X144079961Y-85041980D02*
X144127580Y-85137218D01*
X144127580Y-85137218D02*
X144127580Y-85375313D01*
X144127580Y-85375313D02*
X144079961Y-85470551D01*
X144079961Y-85470551D02*
X144032342Y-85518170D01*
X144032342Y-85518170D02*
X143937104Y-85565789D01*
X143937104Y-85565789D02*
X143841866Y-85565789D01*
X143841866Y-85565789D02*
X143699009Y-85518170D01*
X143699009Y-85518170D02*
X143127580Y-84946742D01*
X143127580Y-84946742D02*
X143127580Y-85565789D01*
X143127580Y-85994361D02*
X144127580Y-85994361D01*
X143127580Y-86565789D02*
X143699009Y-86137218D01*
X144127580Y-86565789D02*
X143556152Y-85994361D01*
X143222819Y-87565789D02*
X143175200Y-87518170D01*
X143175200Y-87518170D02*
X143127580Y-87375313D01*
X143127580Y-87375313D02*
X143127580Y-87280075D01*
X143127580Y-87280075D02*
X143175200Y-87137218D01*
X143175200Y-87137218D02*
X143270438Y-87041980D01*
X143270438Y-87041980D02*
X143365676Y-86994361D01*
X143365676Y-86994361D02*
X143556152Y-86946742D01*
X143556152Y-86946742D02*
X143699009Y-86946742D01*
X143699009Y-86946742D02*
X143889485Y-86994361D01*
X143889485Y-86994361D02*
X143984723Y-87041980D01*
X143984723Y-87041980D02*
X144079961Y-87137218D01*
X144079961Y-87137218D02*
X144127580Y-87280075D01*
X144127580Y-87280075D02*
X144127580Y-87375313D01*
X144127580Y-87375313D02*
X144079961Y-87518170D01*
X144079961Y-87518170D02*
X144032342Y-87565789D01*
X166508533Y-60303884D02*
X166508533Y-61065789D01*
X166508533Y-63065789D02*
X166508533Y-63827694D01*
X166127580Y-63446741D02*
X166889485Y-63446741D01*
X166127580Y-66303884D02*
X166127580Y-65827694D01*
X166127580Y-65827694D02*
X167127580Y-65827694D01*
X166413295Y-68113409D02*
X166413295Y-68589599D01*
X166127580Y-68018171D02*
X167127580Y-68351504D01*
X167127580Y-68351504D02*
X166127580Y-68684837D01*
X164507144Y-100317257D02*
X165269048Y-100317257D01*
X166221429Y-99174400D02*
X165364287Y-100460114D01*
X167078573Y-100317257D02*
X167840477Y-100317257D01*
X139880952Y-60262475D02*
X139880952Y-59262475D01*
X139880952Y-59738665D02*
X140452380Y-59738665D01*
X140452380Y-60262475D02*
X140452380Y-59262475D01*
X140880952Y-59976760D02*
X141357142Y-59976760D01*
X140785714Y-60262475D02*
X141119047Y-59262475D01*
X141119047Y-59262475D02*
X141452380Y-60262475D01*
X141785714Y-59262475D02*
X141785714Y-60071998D01*
X141785714Y-60071998D02*
X141833333Y-60167236D01*
X141833333Y-60167236D02*
X141880952Y-60214856D01*
X141880952Y-60214856D02*
X141976190Y-60262475D01*
X141976190Y-60262475D02*
X142166666Y-60262475D01*
X142166666Y-60262475D02*
X142261904Y-60214856D01*
X142261904Y-60214856D02*
X142309523Y-60167236D01*
X142309523Y-60167236D02*
X142357142Y-60071998D01*
X142357142Y-60071998D02*
X142357142Y-59262475D01*
X142690476Y-59262475D02*
X143261904Y-59262475D01*
X142976190Y-60262475D02*
X142976190Y-59262475D01*
X139857142Y-62253371D02*
X139809523Y-62205752D01*
X139809523Y-62205752D02*
X139714285Y-62062895D01*
X139714285Y-62062895D02*
X139666666Y-61967657D01*
X139666666Y-61967657D02*
X139619047Y-61824800D01*
X139619047Y-61824800D02*
X139571428Y-61586704D01*
X139571428Y-61586704D02*
X139571428Y-61396228D01*
X139571428Y-61396228D02*
X139619047Y-61158133D01*
X139619047Y-61158133D02*
X139666666Y-61015276D01*
X139666666Y-61015276D02*
X139714285Y-60920038D01*
X139714285Y-60920038D02*
X139809523Y-60777180D01*
X139809523Y-60777180D02*
X139857142Y-60729561D01*
X140238095Y-60872419D02*
X140238095Y-61681942D01*
X140238095Y-61681942D02*
X140285714Y-61777180D01*
X140285714Y-61777180D02*
X140333333Y-61824800D01*
X140333333Y-61824800D02*
X140428571Y-61872419D01*
X140428571Y-61872419D02*
X140619047Y-61872419D01*
X140619047Y-61872419D02*
X140714285Y-61824800D01*
X140714285Y-61824800D02*
X140761904Y-61777180D01*
X140761904Y-61777180D02*
X140809523Y-61681942D01*
X140809523Y-61681942D02*
X140809523Y-60872419D01*
X141238095Y-61824800D02*
X141380952Y-61872419D01*
X141380952Y-61872419D02*
X141619047Y-61872419D01*
X141619047Y-61872419D02*
X141714285Y-61824800D01*
X141714285Y-61824800D02*
X141761904Y-61777180D01*
X141761904Y-61777180D02*
X141809523Y-61681942D01*
X141809523Y-61681942D02*
X141809523Y-61586704D01*
X141809523Y-61586704D02*
X141761904Y-61491466D01*
X141761904Y-61491466D02*
X141714285Y-61443847D01*
X141714285Y-61443847D02*
X141619047Y-61396228D01*
X141619047Y-61396228D02*
X141428571Y-61348609D01*
X141428571Y-61348609D02*
X141333333Y-61300990D01*
X141333333Y-61300990D02*
X141285714Y-61253371D01*
X141285714Y-61253371D02*
X141238095Y-61158133D01*
X141238095Y-61158133D02*
X141238095Y-61062895D01*
X141238095Y-61062895D02*
X141285714Y-60967657D01*
X141285714Y-60967657D02*
X141333333Y-60920038D01*
X141333333Y-60920038D02*
X141428571Y-60872419D01*
X141428571Y-60872419D02*
X141666666Y-60872419D01*
X141666666Y-60872419D02*
X141809523Y-60920038D01*
X142571428Y-61348609D02*
X142714285Y-61396228D01*
X142714285Y-61396228D02*
X142761904Y-61443847D01*
X142761904Y-61443847D02*
X142809523Y-61539085D01*
X142809523Y-61539085D02*
X142809523Y-61681942D01*
X142809523Y-61681942D02*
X142761904Y-61777180D01*
X142761904Y-61777180D02*
X142714285Y-61824800D01*
X142714285Y-61824800D02*
X142619047Y-61872419D01*
X142619047Y-61872419D02*
X142238095Y-61872419D01*
X142238095Y-61872419D02*
X142238095Y-60872419D01*
X142238095Y-60872419D02*
X142571428Y-60872419D01*
X142571428Y-60872419D02*
X142666666Y-60920038D01*
X142666666Y-60920038D02*
X142714285Y-60967657D01*
X142714285Y-60967657D02*
X142761904Y-61062895D01*
X142761904Y-61062895D02*
X142761904Y-61158133D01*
X142761904Y-61158133D02*
X142714285Y-61253371D01*
X142714285Y-61253371D02*
X142666666Y-61300990D01*
X142666666Y-61300990D02*
X142571428Y-61348609D01*
X142571428Y-61348609D02*
X142238095Y-61348609D01*
X143142857Y-62253371D02*
X143190476Y-62205752D01*
X143190476Y-62205752D02*
X143285714Y-62062895D01*
X143285714Y-62062895D02*
X143333333Y-61967657D01*
X143333333Y-61967657D02*
X143380952Y-61824800D01*
X143380952Y-61824800D02*
X143428571Y-61586704D01*
X143428571Y-61586704D02*
X143428571Y-61396228D01*
X143428571Y-61396228D02*
X143380952Y-61158133D01*
X143380952Y-61158133D02*
X143333333Y-61015276D01*
X143333333Y-61015276D02*
X143285714Y-60920038D01*
X143285714Y-60920038D02*
X143190476Y-60777180D01*
X143190476Y-60777180D02*
X143142857Y-60729561D01*
X154398989Y-107518871D02*
X153922799Y-107518871D01*
X153922799Y-107518871D02*
X153922799Y-106518871D01*
X154732323Y-107518871D02*
X154732323Y-106518871D01*
X154732323Y-106518871D02*
X154970418Y-106518871D01*
X154970418Y-106518871D02*
X155113275Y-106566490D01*
X155113275Y-106566490D02*
X155208513Y-106661728D01*
X155208513Y-106661728D02*
X155256132Y-106756966D01*
X155256132Y-106756966D02*
X155303751Y-106947442D01*
X155303751Y-106947442D02*
X155303751Y-107090299D01*
X155303751Y-107090299D02*
X155256132Y-107280775D01*
X155256132Y-107280775D02*
X155208513Y-107376013D01*
X155208513Y-107376013D02*
X155113275Y-107471252D01*
X155113275Y-107471252D02*
X154970418Y-107518871D01*
X154970418Y-107518871D02*
X154732323Y-107518871D01*
X155684704Y-106614109D02*
X155732323Y-106566490D01*
X155732323Y-106566490D02*
X155827561Y-106518871D01*
X155827561Y-106518871D02*
X156065656Y-106518871D01*
X156065656Y-106518871D02*
X156160894Y-106566490D01*
X156160894Y-106566490D02*
X156208513Y-106614109D01*
X156208513Y-106614109D02*
X156256132Y-106709347D01*
X156256132Y-106709347D02*
X156256132Y-106804585D01*
X156256132Y-106804585D02*
X156208513Y-106947442D01*
X156208513Y-106947442D02*
X155637085Y-107518871D01*
X155637085Y-107518871D02*
X156256132Y-107518871D01*
X140108301Y-107366437D02*
X139632111Y-107366437D01*
X139632111Y-107366437D02*
X139632111Y-106366437D01*
X140441635Y-107366437D02*
X140441635Y-106366437D01*
X140441635Y-106366437D02*
X140679730Y-106366437D01*
X140679730Y-106366437D02*
X140822587Y-106414056D01*
X140822587Y-106414056D02*
X140917825Y-106509294D01*
X140917825Y-106509294D02*
X140965444Y-106604532D01*
X140965444Y-106604532D02*
X141013063Y-106795008D01*
X141013063Y-106795008D02*
X141013063Y-106937865D01*
X141013063Y-106937865D02*
X140965444Y-107128341D01*
X140965444Y-107128341D02*
X140917825Y-107223579D01*
X140917825Y-107223579D02*
X140822587Y-107318818D01*
X140822587Y-107318818D02*
X140679730Y-107366437D01*
X140679730Y-107366437D02*
X140441635Y-107366437D01*
X141965444Y-107366437D02*
X141394016Y-107366437D01*
X141679730Y-107366437D02*
X141679730Y-106366437D01*
X141679730Y-106366437D02*
X141584492Y-106509294D01*
X141584492Y-106509294D02*
X141489254Y-106604532D01*
X141489254Y-106604532D02*
X141394016Y-106652151D01*
X166127580Y-77303884D02*
X167127580Y-77303884D01*
X167127580Y-77303884D02*
X166413295Y-77637217D01*
X166413295Y-77637217D02*
X167127580Y-77970550D01*
X167127580Y-77970550D02*
X166127580Y-77970550D01*
X167032342Y-78399122D02*
X167079961Y-78446741D01*
X167079961Y-78446741D02*
X167127580Y-78541979D01*
X167127580Y-78541979D02*
X167127580Y-78780074D01*
X167127580Y-78780074D02*
X167079961Y-78875312D01*
X167079961Y-78875312D02*
X167032342Y-78922931D01*
X167032342Y-78922931D02*
X166937104Y-78970550D01*
X166937104Y-78970550D02*
X166841866Y-78970550D01*
X166841866Y-78970550D02*
X166699009Y-78922931D01*
X166699009Y-78922931D02*
X166127580Y-78351503D01*
X166127580Y-78351503D02*
X166127580Y-78970550D01*
X162008533Y-94903884D02*
X162008533Y-95665789D01*
X166508533Y-89303884D02*
X166508533Y-90065789D01*
X166508533Y-92065789D02*
X166508533Y-92827694D01*
X166127580Y-92446741D02*
X166889485Y-92446741D01*
X166508533Y-94684837D02*
X166556152Y-94732456D01*
X166556152Y-94732456D02*
X166603771Y-94827694D01*
X166603771Y-94827694D02*
X166508533Y-95018170D01*
X166508533Y-95018170D02*
X166556152Y-95113408D01*
X166556152Y-95113408D02*
X166603771Y-95161027D01*
X141637217Y-102348609D02*
X141780074Y-102396228D01*
X141780074Y-102396228D02*
X141827693Y-102443847D01*
X141827693Y-102443847D02*
X141875312Y-102539085D01*
X141875312Y-102539085D02*
X141875312Y-102681942D01*
X141875312Y-102681942D02*
X141827693Y-102777180D01*
X141827693Y-102777180D02*
X141780074Y-102824800D01*
X141780074Y-102824800D02*
X141684836Y-102872419D01*
X141684836Y-102872419D02*
X141303884Y-102872419D01*
X141303884Y-102872419D02*
X141303884Y-101872419D01*
X141303884Y-101872419D02*
X141637217Y-101872419D01*
X141637217Y-101872419D02*
X141732455Y-101920038D01*
X141732455Y-101920038D02*
X141780074Y-101967657D01*
X141780074Y-101967657D02*
X141827693Y-102062895D01*
X141827693Y-102062895D02*
X141827693Y-102158133D01*
X141827693Y-102158133D02*
X141780074Y-102253371D01*
X141780074Y-102253371D02*
X141732455Y-102300990D01*
X141732455Y-102300990D02*
X141637217Y-102348609D01*
X141637217Y-102348609D02*
X141303884Y-102348609D01*
X142256265Y-102586704D02*
X142732455Y-102586704D01*
X142161027Y-102872419D02*
X142494360Y-101872419D01*
X142494360Y-101872419D02*
X142827693Y-102872419D01*
X143113408Y-102824800D02*
X143256265Y-102872419D01*
X143256265Y-102872419D02*
X143494360Y-102872419D01*
X143494360Y-102872419D02*
X143589598Y-102824800D01*
X143589598Y-102824800D02*
X143637217Y-102777180D01*
X143637217Y-102777180D02*
X143684836Y-102681942D01*
X143684836Y-102681942D02*
X143684836Y-102586704D01*
X143684836Y-102586704D02*
X143637217Y-102491466D01*
X143637217Y-102491466D02*
X143589598Y-102443847D01*
X143589598Y-102443847D02*
X143494360Y-102396228D01*
X143494360Y-102396228D02*
X143303884Y-102348609D01*
X143303884Y-102348609D02*
X143208646Y-102300990D01*
X143208646Y-102300990D02*
X143161027Y-102253371D01*
X143161027Y-102253371D02*
X143113408Y-102158133D01*
X143113408Y-102158133D02*
X143113408Y-102062895D01*
X143113408Y-102062895D02*
X143161027Y-101967657D01*
X143161027Y-101967657D02*
X143208646Y-101920038D01*
X143208646Y-101920038D02*
X143303884Y-101872419D01*
X143303884Y-101872419D02*
X143541979Y-101872419D01*
X143541979Y-101872419D02*
X143684836Y-101920038D01*
X136696115Y-109508533D02*
X135934211Y-109508533D01*
X136315163Y-109127580D02*
X136315163Y-109889485D01*
X134696115Y-109508533D02*
X133934211Y-109508533D01*
X166508533Y-70303884D02*
X166508533Y-71065789D01*
X166508533Y-73065789D02*
X166508533Y-73827694D01*
X166127580Y-73446741D02*
X166889485Y-73446741D01*
X166508533Y-75684837D02*
X166556152Y-75732456D01*
X166556152Y-75732456D02*
X166603771Y-75827694D01*
X166603771Y-75827694D02*
X166508533Y-76018170D01*
X166508533Y-76018170D02*
X166556152Y-76113408D01*
X166556152Y-76113408D02*
X166603771Y-76161027D01*
D11*
X147666666Y-111931009D02*
X147333333Y-111931009D01*
X147333333Y-112454819D02*
X147333333Y-111454819D01*
X147333333Y-111454819D02*
X147809523Y-111454819D01*
X148714285Y-112454819D02*
X148142857Y-112454819D01*
X148428571Y-112454819D02*
X148428571Y-111454819D01*
X148428571Y-111454819D02*
X148333333Y-111597676D01*
X148333333Y-111597676D02*
X148238095Y-111692914D01*
X148238095Y-111692914D02*
X148142857Y-111740533D01*
X161833333Y-82994777D02*
X161785714Y-83042397D01*
X161785714Y-83042397D02*
X161642857Y-83090016D01*
X161642857Y-83090016D02*
X161547619Y-83090016D01*
X161547619Y-83090016D02*
X161404762Y-83042397D01*
X161404762Y-83042397D02*
X161309524Y-82947158D01*
X161309524Y-82947158D02*
X161261905Y-82851920D01*
X161261905Y-82851920D02*
X161214286Y-82661444D01*
X161214286Y-82661444D02*
X161214286Y-82518587D01*
X161214286Y-82518587D02*
X161261905Y-82328111D01*
X161261905Y-82328111D02*
X161309524Y-82232873D01*
X161309524Y-82232873D02*
X161404762Y-82137635D01*
X161404762Y-82137635D02*
X161547619Y-82090016D01*
X161547619Y-82090016D02*
X161642857Y-82090016D01*
X161642857Y-82090016D02*
X161785714Y-82137635D01*
X161785714Y-82137635D02*
X161833333Y-82185254D01*
X162785714Y-83090016D02*
X162214286Y-83090016D01*
X162500000Y-83090016D02*
X162500000Y-82090016D01*
X162500000Y-82090016D02*
X162404762Y-82232873D01*
X162404762Y-82232873D02*
X162309524Y-82328111D01*
X162309524Y-82328111D02*
X162214286Y-82375730D01*
D12*
%TO.C,J7*%
X156730000Y-57930000D02*
X158000000Y-57930000D01*
X156730000Y-59200000D02*
X156730000Y-57930000D01*
X159042929Y-61360000D02*
X159440000Y-61360000D01*
X159042929Y-62120000D02*
X159440000Y-62120000D01*
X159042929Y-63900000D02*
X159440000Y-63900000D01*
X159042929Y-64660000D02*
X159440000Y-64660000D01*
X159042929Y-66440000D02*
X159440000Y-66440000D01*
X159042929Y-67200000D02*
X159440000Y-67200000D01*
X159110000Y-58820000D02*
X159440000Y-58820000D01*
X159110000Y-59580000D02*
X159440000Y-59580000D01*
X159440000Y-57870000D02*
X159440000Y-68150000D01*
X159440000Y-60470000D02*
X162100000Y-60470000D01*
X159440000Y-63010000D02*
X162100000Y-63010000D01*
X159440000Y-65550000D02*
X162100000Y-65550000D01*
X159440000Y-68150000D02*
X162100000Y-68150000D01*
X162100000Y-57870000D02*
X159440000Y-57870000D01*
X162100000Y-58820000D02*
X168100000Y-58820000D01*
X162100000Y-58880000D02*
X168100000Y-58880000D01*
X162100000Y-59000000D02*
X168100000Y-59000000D01*
X162100000Y-59120000D02*
X168100000Y-59120000D01*
X162100000Y-59240000D02*
X168100000Y-59240000D01*
X162100000Y-59360000D02*
X168100000Y-59360000D01*
X162100000Y-59480000D02*
X168100000Y-59480000D01*
X162100000Y-61360000D02*
X168100000Y-61360000D01*
X162100000Y-63900000D02*
X168100000Y-63900000D01*
X162100000Y-66440000D02*
X168100000Y-66440000D01*
X162100000Y-68150000D02*
X162100000Y-57870000D01*
X168100000Y-58820000D02*
X168100000Y-59580000D01*
X168100000Y-59580000D02*
X162100000Y-59580000D01*
X168100000Y-61360000D02*
X168100000Y-62120000D01*
X168100000Y-62120000D02*
X162100000Y-62120000D01*
X168100000Y-63900000D02*
X168100000Y-64660000D01*
X168100000Y-64660000D02*
X162100000Y-64660000D01*
X168100000Y-66440000D02*
X168100000Y-67200000D01*
X168100000Y-67200000D02*
X162100000Y-67200000D01*
%TO.C,J5*%
X131090000Y-112110000D02*
X131090000Y-114610000D01*
X131090000Y-114610000D02*
X133590000Y-114610000D01*
X131390000Y-110290000D02*
X131390000Y-114310000D01*
X131390000Y-112000000D02*
X131890000Y-112000000D01*
X131390000Y-112810000D02*
X132390000Y-112810000D01*
X131390000Y-114310000D02*
X139110000Y-114310000D01*
X131890000Y-110790000D02*
X138610000Y-110790000D01*
X131890000Y-112000000D02*
X131890000Y-110790000D01*
X132390000Y-112810000D02*
X132390000Y-114310000D01*
X138110000Y-112810000D02*
X138110000Y-114310000D01*
X138610000Y-110790000D02*
X138610000Y-112000000D01*
X138610000Y-112000000D02*
X139110000Y-112000000D01*
X139110000Y-110290000D02*
X131390000Y-110290000D01*
X139110000Y-112810000D02*
X138110000Y-112810000D01*
X139110000Y-114310000D02*
X139110000Y-110290000D01*
%TO.C,D1*%
X149440000Y-105764000D02*
X149440000Y-105920000D01*
X149440000Y-108080000D02*
X149440000Y-108236000D01*
X149440000Y-105764484D02*
G75*
G02*
X152672335Y-105921392I1560000J-1235516D01*
G01*
X149959039Y-105920000D02*
G75*
G02*
X152041130Y-105920163I1040961J-1080000D01*
G01*
X152041130Y-108079837D02*
G75*
G02*
X149959039Y-108080000I-1041130J1079837D01*
G01*
X152672335Y-108078608D02*
G75*
G02*
X149440000Y-108235516I-1672335J1078608D01*
G01*
%TO.C,J6*%
X156733632Y-97160000D02*
X158003632Y-97160000D01*
X156733632Y-98430000D02*
X156733632Y-97160000D01*
X159046561Y-100590000D02*
X159443632Y-100590000D01*
X159046561Y-101350000D02*
X159443632Y-101350000D01*
X159113632Y-98050000D02*
X159443632Y-98050000D01*
X159113632Y-98810000D02*
X159443632Y-98810000D01*
X159443632Y-97100000D02*
X159443632Y-102300000D01*
X159443632Y-99700000D02*
X162103632Y-99700000D01*
X159443632Y-102300000D02*
X162103632Y-102300000D01*
X162103632Y-97100000D02*
X159443632Y-97100000D01*
X162103632Y-98050000D02*
X168103632Y-98050000D01*
X162103632Y-98110000D02*
X168103632Y-98110000D01*
X162103632Y-98230000D02*
X168103632Y-98230000D01*
X162103632Y-98350000D02*
X168103632Y-98350000D01*
X162103632Y-98470000D02*
X168103632Y-98470000D01*
X162103632Y-98590000D02*
X168103632Y-98590000D01*
X162103632Y-98710000D02*
X168103632Y-98710000D01*
X162103632Y-100590000D02*
X168103632Y-100590000D01*
X162103632Y-102300000D02*
X162103632Y-97100000D01*
X168103632Y-98050000D02*
X168103632Y-98810000D01*
X168103632Y-98810000D02*
X162103632Y-98810000D01*
X168103632Y-100590000D02*
X168103632Y-101350000D01*
X168103632Y-101350000D02*
X162103632Y-101350000D01*
%TO.C,J2*%
X156730000Y-87650000D02*
X158000000Y-87650000D01*
X156730000Y-88920000D02*
X156730000Y-87650000D01*
X159042929Y-91080000D02*
X159440000Y-91080000D01*
X159042929Y-91840000D02*
X159440000Y-91840000D01*
X159042929Y-93620000D02*
X159440000Y-93620000D01*
X159042929Y-94380000D02*
X159440000Y-94380000D01*
X159110000Y-88540000D02*
X159440000Y-88540000D01*
X159110000Y-89300000D02*
X159440000Y-89300000D01*
X159440000Y-87590000D02*
X159440000Y-95330000D01*
X159440000Y-90190000D02*
X162100000Y-90190000D01*
X159440000Y-92730000D02*
X162100000Y-92730000D01*
X159440000Y-95330000D02*
X162100000Y-95330000D01*
X162100000Y-87590000D02*
X159440000Y-87590000D01*
X162100000Y-88540000D02*
X168100000Y-88540000D01*
X162100000Y-88600000D02*
X168100000Y-88600000D01*
X162100000Y-88720000D02*
X168100000Y-88720000D01*
X162100000Y-88840000D02*
X168100000Y-88840000D01*
X162100000Y-88960000D02*
X168100000Y-88960000D01*
X162100000Y-89080000D02*
X168100000Y-89080000D01*
X162100000Y-89200000D02*
X168100000Y-89200000D01*
X162100000Y-91080000D02*
X168100000Y-91080000D01*
X162100000Y-93620000D02*
X168100000Y-93620000D01*
X162100000Y-95330000D02*
X162100000Y-87590000D01*
X168100000Y-88540000D02*
X168100000Y-89300000D01*
X168100000Y-89300000D02*
X162100000Y-89300000D01*
X168100000Y-91080000D02*
X168100000Y-91840000D01*
X168100000Y-91840000D02*
X162100000Y-91840000D01*
X168100000Y-93620000D02*
X168100000Y-94380000D01*
X168100000Y-94380000D02*
X162100000Y-94380000D01*
%TO.C,J4*%
X156355000Y-109455000D02*
X157625000Y-109455000D01*
X156355000Y-110725000D02*
X156355000Y-109455000D01*
X158667929Y-112885000D02*
X159065000Y-112885000D01*
X158667929Y-113645000D02*
X159065000Y-113645000D01*
X158735000Y-110345000D02*
X159065000Y-110345000D01*
X158735000Y-111105000D02*
X159065000Y-111105000D01*
X159065000Y-109395000D02*
X159065000Y-114595000D01*
X159065000Y-111995000D02*
X161725000Y-111995000D01*
X159065000Y-114595000D02*
X161725000Y-114595000D01*
X161725000Y-109395000D02*
X159065000Y-109395000D01*
X161725000Y-110345000D02*
X167725000Y-110345000D01*
X161725000Y-110405000D02*
X167725000Y-110405000D01*
X161725000Y-110525000D02*
X167725000Y-110525000D01*
X161725000Y-110645000D02*
X167725000Y-110645000D01*
X161725000Y-110765000D02*
X167725000Y-110765000D01*
X161725000Y-110885000D02*
X167725000Y-110885000D01*
X161725000Y-111005000D02*
X167725000Y-111005000D01*
X161725000Y-112885000D02*
X167725000Y-112885000D01*
X161725000Y-114595000D02*
X161725000Y-109395000D01*
X167725000Y-110345000D02*
X167725000Y-111105000D01*
X167725000Y-111105000D02*
X161725000Y-111105000D01*
X167725000Y-112885000D02*
X167725000Y-113645000D01*
X167725000Y-113645000D02*
X161725000Y-113645000D01*
%TO.C,J9*%
X152373632Y-95930000D02*
X152373632Y-60310000D01*
X155033632Y-60310000D02*
X152373632Y-60310000D01*
X155033632Y-95930000D02*
X152373632Y-95930000D01*
X155033632Y-95930000D02*
X155033632Y-60310000D01*
X155033632Y-97200000D02*
X155033632Y-98530000D01*
X155033632Y-98530000D02*
X153703632Y-98530000D01*
%TO.C,J10*%
X128670000Y-60310000D02*
X130000000Y-60310000D01*
X128670000Y-61640000D02*
X128670000Y-60310000D01*
X128670000Y-62910000D02*
X128670000Y-98530000D01*
X128670000Y-62910000D02*
X131330000Y-62910000D01*
X128670000Y-98530000D02*
X131330000Y-98530000D01*
X131330000Y-62910000D02*
X131330000Y-98530000D01*
%TO.C,D2*%
X146560000Y-105920000D02*
X146560000Y-105764000D01*
X146560000Y-108236000D02*
X146560000Y-108080000D01*
X143327665Y-105921392D02*
G75*
G02*
X146560000Y-105764484I1672335J-1078608D01*
G01*
X143958870Y-105920163D02*
G75*
G02*
X146040961Y-105920000I1041130J-1079837D01*
G01*
X146040961Y-108080000D02*
G75*
G02*
X143958870Y-108079837I-1040961J1080000D01*
G01*
X146560000Y-108235516D02*
G75*
G02*
X143327665Y-108078608I-1560000J1235516D01*
G01*
%TO.C,F1*%
X142690000Y-112000000D02*
X143380000Y-112000000D01*
X143380000Y-110280000D02*
X143380000Y-113720000D01*
X143380000Y-113720000D02*
X152620000Y-113720000D01*
X152620000Y-110280000D02*
X143380000Y-110280000D01*
X152620000Y-113720000D02*
X152620000Y-110280000D01*
X153310000Y-112000000D02*
X152620000Y-112000000D01*
%TO.C,J3*%
X156730000Y-70205000D02*
X158000000Y-70205000D01*
X156730000Y-71475000D02*
X156730000Y-70205000D01*
X159042929Y-73635000D02*
X159440000Y-73635000D01*
X159042929Y-74395000D02*
X159440000Y-74395000D01*
X159042929Y-76175000D02*
X159440000Y-76175000D01*
X159042929Y-76935000D02*
X159440000Y-76935000D01*
X159110000Y-71095000D02*
X159440000Y-71095000D01*
X159110000Y-71855000D02*
X159440000Y-71855000D01*
X159440000Y-70145000D02*
X159440000Y-77885000D01*
X159440000Y-72745000D02*
X162100000Y-72745000D01*
X159440000Y-75285000D02*
X162100000Y-75285000D01*
X159440000Y-77885000D02*
X162100000Y-77885000D01*
X162100000Y-70145000D02*
X159440000Y-70145000D01*
X162100000Y-71095000D02*
X168100000Y-71095000D01*
X162100000Y-71155000D02*
X168100000Y-71155000D01*
X162100000Y-71275000D02*
X168100000Y-71275000D01*
X162100000Y-71395000D02*
X168100000Y-71395000D01*
X162100000Y-71515000D02*
X168100000Y-71515000D01*
X162100000Y-71635000D02*
X168100000Y-71635000D01*
X162100000Y-71755000D02*
X168100000Y-71755000D01*
X162100000Y-73635000D02*
X168100000Y-73635000D01*
X162100000Y-76175000D02*
X168100000Y-76175000D01*
X162100000Y-77885000D02*
X162100000Y-70145000D01*
X168100000Y-71095000D02*
X168100000Y-71855000D01*
X168100000Y-71855000D02*
X162100000Y-71855000D01*
X168100000Y-73635000D02*
X168100000Y-74395000D01*
X168100000Y-74395000D02*
X162100000Y-74395000D01*
X168100000Y-76175000D02*
X168100000Y-76935000D01*
X168100000Y-76935000D02*
X162100000Y-76935000D01*
%TO.C,A1*%
X132890000Y-57710000D02*
X132890000Y-60380000D01*
X132890000Y-62920000D02*
X132890000Y-101150000D01*
X132890000Y-101150000D02*
X137970000Y-101150000D01*
X135560000Y-60380000D02*
X132890000Y-60380000D01*
X135560000Y-62920000D02*
X132890000Y-62920000D01*
X135560000Y-62920000D02*
X135560000Y-60380000D01*
X135560000Y-62920000D02*
X135560000Y-98480000D01*
X135560000Y-98480000D02*
X132890000Y-98480000D01*
X137970000Y-93270000D02*
X145850000Y-93270000D01*
X137970000Y-103690000D02*
X137970000Y-93270000D01*
X145850000Y-93270000D02*
X145850000Y-103690000D01*
X145850000Y-103690000D02*
X137970000Y-103690000D01*
X148260000Y-60380000D02*
X148260000Y-98480000D01*
X148260000Y-60380000D02*
X150930000Y-60380000D01*
X148260000Y-98480000D02*
X150930000Y-98480000D01*
X150930000Y-57710000D02*
X132890000Y-57710000D01*
X150930000Y-101150000D02*
X145850000Y-101150000D01*
X150930000Y-101150000D02*
X150930000Y-57710000D01*
%TO.C,C1*%
X158590000Y-79225197D02*
X158590000Y-81575197D01*
X158590000Y-86045197D02*
X158590000Y-83695197D01*
X164345563Y-79225197D02*
X158590000Y-79225197D01*
X164345563Y-86045197D02*
X158590000Y-86045197D01*
X165410000Y-80289634D02*
X164345563Y-79225197D01*
X165410000Y-80289634D02*
X165410000Y-81575197D01*
X165410000Y-84980760D02*
X164345563Y-86045197D01*
X165410000Y-84980760D02*
X165410000Y-83695197D01*
%TO.C,R1*%
X158227064Y-106265000D02*
X157772936Y-106265000D01*
X158227064Y-107735000D02*
X157772936Y-107735000D01*
%TD*%
M02*
