M48
; DRILL file {KiCad 8.0.3} date 2024-09-13T10:49:26+0200
; FORMAT={-:-/ absolute / inch / decimal}
; #@! TF.CreationDate,2024-09-13T10:49:26+02:00
; #@! TF.GenerationSoftware,Kicad,Pcbnew,8.0.3
; #@! TF.FileFunction,Plated,1,2,PTH
FMAT,2
INCH
; #@! TA.AperFunction,Plated,PTH,ComponentDrill
T1C0.0315
; #@! TA.AperFunction,Plated,PTH,ComponentDrill
T2C0.0354
; #@! TA.AperFunction,Plated,PTH,ComponentDrill
T3C0.0394
%
G90
G05
T1
X5.0827Y-2.935
X5.0827Y-3.435
T2
X5.0748Y-3.6165
X5.0748Y-3.7165
X5.0748Y-3.8327
X5.0748Y-3.9327
T3
X4.8976Y-3.1299
X4.8976Y-3.2283
X4.9852Y-2.7746
X5.0852Y-2.7746
X5.3146Y-2.4705
X5.3146Y-2.5705
X5.3146Y-2.6705
X5.3146Y-2.7705
X5.3146Y-2.8705
X5.3146Y-2.9705
X5.3146Y-3.0705
X5.3146Y-3.1705
X5.3146Y-3.2705
X5.3146Y-3.3705
X5.3146Y-3.4705
X5.3146Y-3.5705
X5.3146Y-3.6705
X5.3146Y-3.7705
X5.3146Y-3.8705
X5.9146Y-2.4705
X5.9146Y-2.5705
X5.9146Y-2.6705
X5.9146Y-2.7705
X5.9146Y-2.8705
X5.9146Y-2.9705
X5.9146Y-3.0705
X5.9146Y-3.1705
X5.9146Y-3.2705
X5.9146Y-3.3705
X5.9146Y-3.4705
X5.9146Y-3.5705
X5.9146Y-3.6705
X5.9146Y-3.7705
X5.9146Y-3.8705
X6.122Y-2.4695
X6.122Y-2.5695
X6.122Y-2.6695
X6.122Y-2.7695
X6.122Y-2.9528
X6.122Y-3.0528
X6.122Y-3.1528
X6.122Y-3.3274
X6.122Y-3.4274
X6.122Y-3.5274
X6.1222Y-3.7018
X6.1222Y-3.8018
M30
