%TF.GenerationSoftware,KiCad,Pcbnew,8.0.3*%
%TF.CreationDate,2024-09-13T10:49:28+02:00*%
%TF.ProjectId,pcb_robot,7063625f-726f-4626-9f74-2e6b69636164,rev?*%
%TF.SameCoordinates,Original*%
%TF.FileFunction,Copper,L1,Top*%
%TF.FilePolarity,Positive*%
%FSLAX46Y46*%
G04 Gerber Fmt 4.6, Leading zero omitted, Abs format (unit mm)*
G04 Created by KiCad (PCBNEW 8.0.3) date 2024-09-13 10:49:28*
%MOMM*%
%LPD*%
G01*
G04 APERTURE LIST*
G04 Aperture macros list*
%AMRoundRect*
0 Rectangle with rounded corners*
0 $1 Rounding radius*
0 $2 $3 $4 $5 $6 $7 $8 $9 X,Y pos of 4 corners*
0 Add a 4 corners polygon primitive as box body*
4,1,4,$2,$3,$4,$5,$6,$7,$8,$9,$2,$3,0*
0 Add four circle primitives for the rounded corners*
1,1,$1+$1,$2,$3*
1,1,$1+$1,$4,$5*
1,1,$1+$1,$6,$7*
1,1,$1+$1,$8,$9*
0 Add four rect primitives between the rounded corners*
20,1,$1+$1,$2,$3,$4,$5,0*
20,1,$1+$1,$4,$5,$6,$7,0*
20,1,$1+$1,$6,$7,$8,$9,0*
20,1,$1+$1,$8,$9,$2,$3,0*%
G04 Aperture macros list end*
%TA.AperFunction,ComponentPad*%
%ADD10R,1.700000X1.700000*%
%TD*%
%TA.AperFunction,ComponentPad*%
%ADD11O,1.700000X1.700000*%
%TD*%
%TA.AperFunction,ComponentPad*%
%ADD12RoundRect,0.250000X-0.750000X0.600000X-0.750000X-0.600000X0.750000X-0.600000X0.750000X0.600000X0*%
%TD*%
%TA.AperFunction,ComponentPad*%
%ADD13O,2.000000X1.700000*%
%TD*%
%TA.AperFunction,ComponentPad*%
%ADD14C,1.800000*%
%TD*%
%TA.AperFunction,ComponentPad*%
%ADD15R,1.800000X1.800000*%
%TD*%
%TA.AperFunction,ComponentPad*%
%ADD16C,1.600000*%
%TD*%
%TA.AperFunction,ComponentPad*%
%ADD17O,1.600000X1.600000*%
%TD*%
%TA.AperFunction,SMDPad,CuDef*%
%ADD18RoundRect,0.237500X-0.237500X0.250000X-0.237500X-0.250000X0.237500X-0.250000X0.237500X0.250000X0*%
%TD*%
%TA.AperFunction,ComponentPad*%
%ADD19R,1.600000X1.600000*%
%TD*%
%TA.AperFunction,Conductor*%
%ADD20C,0.200000*%
%TD*%
G04 APERTURE END LIST*
D10*
%TO.P,J6,1,Pin_1*%
%TO.N,Net-(A1-D13)*%
X155503632Y-94025000D03*
D11*
%TO.P,J6,2,Pin_2*%
%TO.N,GND*%
X155503632Y-96565000D03*
%TD*%
%TO.P,J7,4,Pin_4*%
%TO.N,Net-(A1-D4)*%
X155500000Y-70345000D03*
%TO.P,J7,3,Pin_3*%
%TO.N,Net-(A1-D5)*%
X155500000Y-67805000D03*
%TO.P,J7,2,Pin_2*%
%TO.N,Net-(A1-+5V)*%
X155500000Y-65265000D03*
D10*
%TO.P,J7,1,Pin_1*%
%TO.N,GND*%
X155500000Y-62725000D03*
%TD*%
%TO.P,J4,1,Pin_1*%
%TO.N,Net-(A1-VIN)*%
X126625000Y-70475000D03*
D11*
%TO.P,J4,2,Pin_2*%
%TO.N,Net-(J4-Pin_2)*%
X129165000Y-70475000D03*
%TD*%
D10*
%TO.P,J3,1,Pin_1*%
%TO.N,GND*%
X155500000Y-75000000D03*
D11*
%TO.P,J3,2,Pin_2*%
%TO.N,Net-(A1-VIN)*%
X155500000Y-77540000D03*
%TO.P,J3,3,Pin_3*%
%TO.N,Net-(A1-A1)*%
X155500000Y-80080000D03*
%TD*%
D12*
%TO.P,J5,1,Pin_1*%
%TO.N,GND*%
X124400000Y-79500000D03*
D13*
%TO.P,J5,2,Pin_2*%
%TO.N,Net-(J5-Pin_2)*%
X124400000Y-82000000D03*
%TD*%
D14*
%TO.P,D1,2,A*%
%TO.N,Net-(A1-D10)*%
X128900000Y-91860000D03*
D15*
%TO.P,D1,1,K*%
%TO.N,Net-(D1-K)*%
X128900000Y-94400000D03*
%TD*%
D14*
%TO.P,D2,2,A*%
%TO.N,Net-(A1-D11)*%
X128900000Y-99890000D03*
D15*
%TO.P,D2,1,K*%
%TO.N,Net-(D1-K)*%
X128900000Y-97350000D03*
%TD*%
D16*
%TO.P,F1,1*%
%TO.N,Net-(J5-Pin_2)*%
X129100000Y-87250000D03*
D17*
%TO.P,F1,2*%
%TO.N,Net-(J4-Pin_2)*%
X129100000Y-74550000D03*
%TD*%
D18*
%TO.P,R1,2*%
%TO.N,Net-(D1-K)*%
X124500000Y-96700000D03*
%TO.P,R1,1*%
%TO.N,GND*%
X124500000Y-94875000D03*
%TD*%
D11*
%TO.P,J2,3,Pin_3*%
%TO.N,Net-(A1-A0)*%
X155500000Y-89595000D03*
%TO.P,J2,2,Pin_2*%
%TO.N,Net-(A1-VIN)*%
X155500000Y-87055000D03*
D10*
%TO.P,J2,1,Pin_1*%
%TO.N,GND*%
X155500000Y-84515000D03*
%TD*%
D17*
%TO.P,A1,30,VIN*%
%TO.N,Net-(A1-VIN)*%
X150230000Y-62750000D03*
%TO.P,A1,29,GND*%
%TO.N,GND*%
X150230000Y-65290000D03*
%TO.P,A1,28,~{RESET}*%
%TO.N,unconnected-(A1-~{RESET}-Pad28)*%
X150230000Y-67830000D03*
%TO.P,A1,27,+5V*%
%TO.N,Net-(A1-+5V)*%
X150230000Y-70370000D03*
%TO.P,A1,26,A7*%
%TO.N,unconnected-(A1-A7-Pad26)*%
X150230000Y-72910000D03*
%TO.P,A1,25,A6*%
%TO.N,unconnected-(A1-A6-Pad25)*%
X150230000Y-75450000D03*
%TO.P,A1,24,A5*%
%TO.N,unconnected-(A1-A5-Pad24)*%
X150230000Y-77990000D03*
%TO.P,A1,23,A4*%
%TO.N,unconnected-(A1-A4-Pad23)*%
X150230000Y-80530000D03*
%TO.P,A1,22,A3*%
%TO.N,unconnected-(A1-A3-Pad22)*%
X150230000Y-83070000D03*
%TO.P,A1,21,A2*%
%TO.N,unconnected-(A1-A2-Pad21)*%
X150230000Y-85610000D03*
%TO.P,A1,20,A1*%
%TO.N,Net-(A1-A1)*%
X150230000Y-88150000D03*
%TO.P,A1,19,A0*%
%TO.N,Net-(A1-A0)*%
X150230000Y-90690000D03*
%TO.P,A1,18,AREF*%
%TO.N,unconnected-(A1-AREF-Pad18)*%
X150230000Y-93230000D03*
%TO.P,A1,17,3V3*%
%TO.N,unconnected-(A1-3V3-Pad17)*%
X150230000Y-95770000D03*
%TO.P,A1,16,D13*%
%TO.N,Net-(A1-D13)*%
X150230000Y-98310000D03*
%TO.P,A1,15,D12*%
%TO.N,unconnected-(A1-D12-Pad15)*%
X134990000Y-98310000D03*
%TO.P,A1,14,D11*%
%TO.N,Net-(A1-D11)*%
X134990000Y-95770000D03*
%TO.P,A1,13,D10*%
%TO.N,Net-(A1-D10)*%
X134990000Y-93230000D03*
%TO.P,A1,12,D9*%
%TO.N,unconnected-(A1-D9-Pad12)*%
X134990000Y-90690000D03*
%TO.P,A1,11,D8*%
%TO.N,unconnected-(A1-D8-Pad11)*%
X134990000Y-88150000D03*
%TO.P,A1,10,D7*%
%TO.N,unconnected-(A1-D7-Pad10)*%
X134990000Y-85610000D03*
%TO.P,A1,9,D6*%
%TO.N,unconnected-(A1-D6-Pad9)*%
X134990000Y-83070000D03*
%TO.P,A1,8,D5*%
%TO.N,Net-(A1-D5)*%
X134990000Y-80530000D03*
%TO.P,A1,7,D4*%
%TO.N,Net-(A1-D4)*%
X134990000Y-77990000D03*
%TO.P,A1,6,D3*%
%TO.N,unconnected-(A1-D3-Pad6)*%
X134990000Y-75450000D03*
%TO.P,A1,5,D2*%
%TO.N,unconnected-(A1-D2-Pad5)*%
X134990000Y-72910000D03*
%TO.P,A1,4,GND*%
%TO.N,GND*%
X134990000Y-70370000D03*
%TO.P,A1,3,~{RESET}*%
%TO.N,unconnected-(A1-~{RESET}-Pad3)*%
X134990000Y-67830000D03*
%TO.P,A1,2,D0/RX*%
%TO.N,unconnected-(A1-D0{slash}RX-Pad2)*%
X134990000Y-65290000D03*
D19*
%TO.P,A1,1,D1/TX*%
%TO.N,unconnected-(A1-D1{slash}TX-Pad1)*%
X134990000Y-62750000D03*
%TD*%
D20*
%TO.N,GND*%
X122400000Y-81500000D02*
X124400000Y-79500000D01*
X122400000Y-92775000D02*
X122400000Y-81500000D01*
X124500000Y-94875000D02*
X122400000Y-92775000D01*
%TO.N,Net-(J4-Pin_2)*%
X129100000Y-70540000D02*
X129165000Y-70475000D01*
X129100000Y-74550000D02*
X129100000Y-70540000D01*
%TO.N,Net-(J5-Pin_2)*%
X124400000Y-82550000D02*
X129100000Y-87250000D01*
X124400000Y-82000000D02*
X124400000Y-82550000D01*
%TO.N,Net-(D1-K)*%
X125150000Y-97350000D02*
X124500000Y-96700000D01*
X128900000Y-97350000D02*
X125150000Y-97350000D01*
%TO.N,Net-(A1-D10)*%
X130270000Y-93230000D02*
X134990000Y-93230000D01*
X128900000Y-91860000D02*
X130270000Y-93230000D01*
%TO.N,Net-(D1-K)*%
X128900000Y-97350000D02*
X128900000Y-94400000D01*
%TO.N,Net-(A1-D11)*%
X133020000Y-95770000D02*
X134990000Y-95770000D01*
X128900000Y-99890000D02*
X133020000Y-95770000D01*
%TO.N,Net-(A1-+5V)*%
X150395000Y-70370000D02*
X150230000Y-70370000D01*
X155500000Y-65265000D02*
X150395000Y-70370000D01*
%TO.N,Net-(A1-D5)*%
X135195635Y-76800000D02*
X134624365Y-76800000D01*
X140525635Y-71470000D02*
X135195635Y-76800000D01*
X151835000Y-71470000D02*
X140525635Y-71470000D01*
X133890000Y-77534365D02*
X133890000Y-79430000D01*
X133890000Y-79430000D02*
X134990000Y-80530000D01*
X155500000Y-67805000D02*
X151835000Y-71470000D01*
X134624365Y-76800000D02*
X133890000Y-77534365D01*
%TO.N,Net-(A1-D4)*%
X138630000Y-74350000D02*
X134990000Y-77990000D01*
X151495000Y-74350000D02*
X138630000Y-74350000D01*
X155500000Y-70345000D02*
X151495000Y-74350000D01*
%TO.N,Net-(A1-A1)*%
X155500000Y-81895635D02*
X150230000Y-87165635D01*
X150230000Y-87165635D02*
X150230000Y-88150000D01*
X155500000Y-80080000D02*
X155500000Y-81895635D01*
%TO.N,Net-(A1-A0)*%
X151325000Y-89595000D02*
X150230000Y-90690000D01*
X155500000Y-89595000D02*
X151325000Y-89595000D01*
%TO.N,Net-(A1-D13)*%
X154515000Y-94025000D02*
X150230000Y-98310000D01*
X155503632Y-94025000D02*
X154515000Y-94025000D01*
%TO.N,Net-(A1-VIN)*%
X158900000Y-83655000D02*
X155500000Y-87055000D01*
X158900000Y-75400000D02*
X158900000Y-83655000D01*
X158900000Y-75400000D02*
X158900000Y-75500000D01*
X158900000Y-62000000D02*
X158900000Y-75400000D01*
X158900000Y-75500000D02*
X156860000Y-77540000D01*
X157200000Y-60300000D02*
X158900000Y-62000000D01*
X156860000Y-77540000D02*
X155500000Y-77540000D01*
X152680000Y-60300000D02*
X157200000Y-60300000D01*
X150230000Y-62750000D02*
X152680000Y-60300000D01*
X149080000Y-61600000D02*
X150230000Y-62750000D01*
X133940000Y-61600000D02*
X149080000Y-61600000D01*
X126625000Y-68915000D02*
X133940000Y-61600000D01*
X126625000Y-70475000D02*
X126625000Y-68915000D01*
%TD*%
M02*
